<svg width="445" height="478" viewBox="0 0 445 478" fill="none" xmlns="http://www.w3.org/2000/svg">
<g clip-path="url(#clip0_775_18139)">
<path d="M120.641 167.151C111.213 172.078 100.755 174.698 90.1249 174.792C79.5572 174.563 69.0937 172.677 59.1093 169.198C39.5051 162.719 22.1405 150.787 9.0572 134.797C6.01033 130.896 3.47908 126.625 1.52075 122.078C-1.40634 115.714 -0.776129 112.203 5.13012 108.38C13.1093 103.219 21.677 98.969 30.0676 94.4638C33.177 92.792 36.4947 91.5211 39.7187 90.068C48.9582 85.9065 54.3853 79.6617 53.1822 68.6149C52.3228 60.7451 54.5468 53.1149 58.2864 46.1409C62.7239 37.8649 69.5728 33.6305 79.2135 34.943C82.703 35.417 86.1353 36.2711 89.6301 36.7034C98.6353 37.8128 101.682 36.0367 104.245 27.0211C106.641 18.5992 110.349 11.2711 117.375 5.76591C126.703 -1.54138 132.495 -1.62472 140.151 7.58883C153.937 24.1826 163.114 42.9899 166.458 64.667C170.114 88.4013 163.823 110.104 154.703 131.438C155.385 135.526 152.646 138 150.266 140.558C142.578 148.823 133.953 156.188 126.87 165.052C125.406 166.886 123.557 168.985 120.641 167.151Z" fill="#D9041D"/>
<mask id="mask0_775_18139" style="mask-type:luminance" maskUnits="userSpaceOnUse" x="265" y="210" width="177" height="269">
<path d="M265 210.573H441.052V478.12H265V210.573Z" fill="white"/>
</mask>
<g mask="url(#mask0_775_18139)">
<path d="M308.599 210.99C317.838 221.251 327.276 231.334 336.281 241.792C350.568 258.381 358.13 278.021 360.708 299.537C361.391 305.245 360.047 311.204 359.604 317.417C386.516 314.058 408.125 325.933 429.5 338.521C434.432 341.454 438.125 346.089 439.885 351.553C441.859 357.261 441.552 362.709 437.151 367.412C435.458 369.225 433.802 371.074 432.245 373.011C427.661 378.688 424.385 384.782 426.016 392.506C426.375 394.209 426.057 396.042 426.187 397.808C427.302 412.636 424.141 417.792 410.49 422.537C403.818 424.86 397.068 426.954 390.245 428.829C381.526 431.209 377.5 436.891 376.849 445.714C376.458 451.704 375.641 457.657 374.396 463.527C371.5 476.673 361.927 481.751 349.693 475.475C341.963 471.511 334.922 465.688 328.568 459.662C316.578 448.548 307.016 435.074 300.463 420.089C295.411 408.282 293.828 396.329 297.365 383.834C297.823 382.214 297.667 380.428 297.87 377.808H265.995C263.359 373.042 266.625 369.714 268.802 366.105C269.88 364.865 271.422 364.115 273.057 364.032C304.896 367.829 318.349 354.907 334.812 320.292C348.458 291.61 336.51 266.662 318.505 243.917C314.354 238.667 309.812 233.704 305.349 228.678C304.557 227.094 304.068 225.386 303.896 223.626C304.25 218.959 302.292 213.428 308.599 210.99Z" fill="#D9041D"/>
</g>
<path d="M223.385 134.162C240.599 143.902 256.198 155.626 268.734 171.115C271.281 177.214 273.292 183.449 273.359 190.152C277.026 248.975 256.833 301.824 232.474 353.641C231.25 355.678 229.87 357.568 227.495 358.402C225.927 357.777 224.047 357.516 222.844 356.475C209.281 344.766 195.755 333.011 182.417 321.053C180.51 319.344 179.646 316.48 178.302 314.157C177.13 309.146 180.292 305.386 182.052 301.23C198.089 263.417 213.417 225.402 219.51 184.376C221.344 172.027 220.208 159.662 220.687 147.308C220.859 142.798 219.932 138.016 223.385 134.162Z" fill="#FF021F"/>
<path d="M223.385 134.162C223.552 146.495 224.984 158.98 223.583 171.136C221.573 188.542 218.719 206.053 214.031 222.907C206.182 250.719 196.14 277.87 184 304.094C182.401 307.584 180.213 310.808 178.302 314.157C174.015 310.636 169.385 307.464 165.531 303.527C159.63 297.495 154.224 290.98 148.713 284.574C147.963 283.407 147.38 282.146 146.974 280.824C146.411 275.881 149.057 272.058 151.349 268.089C174.703 227.589 188.698 184.579 186.724 137.199C186.526 132.376 185.765 127.266 188.838 122.834C193.213 123.428 197.838 123.318 201.906 124.771C209.245 127.407 216.245 130.98 223.385 134.162Z" fill="#F0F7CB"/>
<path d="M188.844 122.833C194.505 180.703 177.781 232.635 146.974 280.823C124.062 259.333 112.062 232.818 110.484 201.484C109.969 191.187 113.37 182.094 118.812 173.62C120.12 171.588 122.406 169.984 120.641 167.151C123.505 164.219 126.354 161.266 129.234 158.354C135.219 152.318 141.276 146.364 147.177 140.245C149.849 137.469 152.208 134.38 154.703 131.437C157.203 130.766 159.641 129.901 162.01 128.849C170.432 124.375 179.26 122.005 188.844 122.833Z" fill="#FF021F"/>
<path d="M270.568 190.548C269.958 184.068 269.349 177.594 268.734 171.115C282.021 184.407 295.307 197.699 308.599 210.99C307.885 215.501 307.177 220.011 306.464 224.516C305.182 225.209 303.599 225.032 302.51 224.068C291.172 213.558 279.083 203.751 270.568 190.548Z" fill="#D9E0B8"/>
<path d="M227.495 358.402L229.625 353.912C242.911 358.938 257.703 359.376 270.073 367.204C268.719 370.735 267.354 374.266 265.995 377.808C251.25 376.178 237.583 369.287 227.495 358.402Z" fill="#D9E0B8"/>
<path d="M270.073 367.203C260.151 364.943 250.135 363.036 240.365 360.25C236.495 359.141 233.188 356.078 229.625 353.911C234.516 342.599 239.745 331.417 244.214 319.938C253.432 296.286 262.281 272.526 266.938 247.396C269.406 233.161 270.5 218.729 270.214 204.286C270.177 199.708 270.443 195.125 270.568 190.547C279.161 198.818 287.734 207.115 296.37 215.344C299.656 218.474 303.094 221.464 306.464 224.516C306.714 225.917 306.964 227.313 307.214 228.714C308.792 231.104 309.469 233.99 309.125 236.833C304.333 277.448 298.13 317.719 279.766 354.948C277.917 358.708 276.536 362.917 272.438 365.099L270.073 367.203Z" fill="#F0F7CB"/>
<path d="M272.438 365.1C275.292 358.667 278.177 352.251 280.995 345.808C292.25 320.068 297.953 292.824 302.406 265.287C304.37 253.152 305.635 240.907 307.214 228.709C313.734 229.865 315.266 236.35 318.802 240.37C329.083 252.058 337.521 265.068 341.203 280.641C345.5 298.834 342.24 315.673 332.625 331.412C329.13 337.126 325.422 342.751 321.411 348.11C308.307 365.605 292.448 369.537 274.005 366.454C273.427 366.36 272.964 365.568 272.438 365.1Z" fill="#FF021F"/>
<path d="M140.104 247.276C140.943 242.985 141.505 238.391 142.765 233.99C146.469 221.089 150.021 208.115 154.484 195.469C157.276 187.552 161.896 185.193 167.021 187C172.172 188.813 174.604 193.943 172.14 201.344C166.906 217.094 160.948 232.604 155.255 248.198C154.859 249.188 154.37 250.136 153.781 251.021C151.594 254.594 149.687 259.604 144.682 258.401C139.401 257.125 141.104 251.49 140.104 247.276Z" fill="#FFABB5"/>
<path d="M178.12 150.204C176.604 154.428 175.515 158.865 173.463 162.808C171.536 166.511 167.578 166.735 164.682 163.605C159.911 158.683 158.073 151.62 159.838 144.99C160.719 141.277 165.359 138.798 169.943 139.167C174.307 139.511 176.573 141.865 177.099 146.683C177.161 147.74 177.167 148.798 177.114 149.855C177.448 149.975 177.781 150.089 178.12 150.204Z" fill="#FFABB5"/>
</g>
<defs>
<clipPath id="clip0_775_18139">
<rect width="445" height="478" fill="white"/>
</clipPath>
</defs>
</svg>
