<svg width="274" height="540" viewBox="0 0 274 540" fill="none" xmlns="http://www.w3.org/2000/svg">
<mask id="mask0_775_18323" style="mask-type:luminance" maskUnits="userSpaceOnUse" x="3" y="489" width="268" height="51">
<path d="M3.6665 489.666H270.333V539.531H3.6665V489.666Z" fill="white"/>
</mask>
<g mask="url(#mask0_775_18323)">
<path d="M270.255 490.89C266.536 495.374 261.187 503.02 261.166 509.78V509.827C261.166 526.244 205.562 539.53 136.974 539.53C68.4007 539.53 12.807 526.244 12.7861 509.838H12.7705C12.7705 503.067 7.43717 495.39 3.70801 490.89C6.92676 494.259 12.2965 497.39 19.4007 500.249C28.7341 504.009 41.057 507.254 55.6038 509.838C78.3591 513.879 106.489 516.265 136.958 516.265C167.437 516.265 195.614 513.879 218.354 509.838C232.916 507.254 245.229 504.009 254.562 500.249C261.666 497.39 267.047 494.259 270.255 490.89Z" fill="#D4D2CF"/>
</g>
<mask id="mask1_775_18323" style="mask-type:luminance" maskUnits="userSpaceOnUse" x="0" y="40" width="274" height="477">
<path d="M0.0415039 40.333H273.906V516.333H0.0415039V40.333Z" fill="white"/>
</mask>
<g mask="url(#mask1_775_18323)">
<path d="M273.75 63.2656V483.536C273.75 484.708 273.479 485.833 273 486.979C272.693 487.688 272.26 488.385 271.786 489.089C271.359 489.635 270.89 490.219 270.38 490.781C270.344 490.818 270.292 490.859 270.255 490.891C267.047 494.26 261.667 497.391 254.562 500.25C245.229 504.01 232.917 507.255 218.354 509.839C195.614 513.88 167.437 516.266 136.958 516.266C106.489 516.266 78.3592 513.88 55.604 509.839C41.0571 507.255 28.7342 504.01 19.4009 500.25C12.2967 497.391 6.92692 494.26 3.70817 490.891C3.6665 490.859 3.63525 490.818 3.59359 490.781C3.08317 490.146 2.61442 489.599 2.17692 489.089C1.70296 488.385 1.28109 487.688 0.958171 486.979C0.484212 485.833 0.213379 484.708 0.213379 483.536V63.2656H0.197754C3.99463 55.6927 5.15609 48.1406 3.69255 40.5781C21.4998 56.1823 80.0519 65.2135 136.974 65.2135C193.901 65.2135 252.463 56.1823 270.255 40.5625C268.792 48.1302 269.958 55.6927 273.75 63.2656Z" fill="#DF1F29"/>
</g>
<mask id="mask2_775_18323" style="mask-type:luminance" maskUnits="userSpaceOnUse" x="0" y="217" width="274" height="124">
<path d="M0.0415039 217.666H273.906V340.333H0.0415039V217.666Z" fill="white"/>
</mask>
<g mask="url(#mask2_775_18323)">
<path d="M273.75 246.874C257.708 231.249 237.505 218.604 206.745 218.604C161.99 218.604 139.63 245.343 119.901 268.952C101.661 290.76 87.224 308.025 57.1719 308.025C30.3802 308.025 15.9844 294.281 0.21875 275.843V319.885C14.5729 331.202 32.4583 339.343 57.1719 339.343C101.891 339.343 124.255 312.598 143.984 288.994C162.266 267.187 176.703 249.921 206.745 249.921C236.797 249.921 251.234 267.187 269.474 288.994C270.885 290.676 272.297 292.364 273.75 294.088V246.874Z" fill="white"/>
</g>
<mask id="mask3_775_18323" style="mask-type:luminance" maskUnits="userSpaceOnUse" x="1" y="-1" width="272" height="63">
<path d="M1 -0.198242H273V61.6663H1V-0.198242Z" fill="white"/>
</mask>
<g mask="url(#mask3_775_18323)">
<path d="M271.786 30.5361V30.5518C271.786 45.3955 217.614 61.3018 136.974 61.3018C56.328 61.3018 2.1665 45.3955 2.1665 30.5518V30.5361C2.19255 15.6924 56.354 -0.198242 136.974 -0.198242C217.583 -0.198242 271.76 15.6924 271.786 30.5361Z" fill="#E0DDDB"/>
</g>
<path d="M91.1823 19.5723C82.0365 19.5723 74.5938 27.0098 74.5938 36.1452C74.5938 45.291 82.0365 52.7233 91.1823 52.7233H166.75C175.896 52.7233 183.333 45.291 183.333 36.1452C183.333 27.0098 175.896 19.5723 166.75 19.5723H91.1823ZM166.75 56.0931H91.1823C80.1771 56.0931 71.2188 47.1452 71.2188 36.1452C71.2188 25.1504 80.1771 16.1973 91.1823 16.1973H166.75C177.755 16.1973 186.714 25.1504 186.714 36.1452C186.714 47.1452 177.755 56.0931 166.75 56.0931Z" fill="#A8ACAA"/>
<path d="M128.963 23.1348H95.4842C88.2915 23.1348 82.4634 28.9629 82.4634 36.1452C82.4634 43.3379 88.2915 49.1608 95.4842 49.1608H128.963V23.1348ZM125.588 26.5098V45.791H95.4842C90.1665 45.791 85.8384 41.4681 85.8384 36.1452C85.8384 30.8327 90.1665 26.5098 95.4842 26.5098H125.588Z" fill="#A8ACAA"/>
<path d="M165.219 24.4844H149.557V47.8125H165.219C171.661 47.8125 176.88 42.5885 176.88 36.1458C176.88 29.7031 171.661 24.4844 165.219 24.4844Z" fill="#A8ACAA"/>
<path d="M2.22363 36.1455C3.91113 33.7705 6.19238 31.8695 8.58301 30.2184C10.9997 28.5726 13.6038 27.2393 16.2341 25.9788C21.5205 23.5153 27.0309 21.5518 32.6091 19.8799C43.807 16.6038 55.2549 14.3278 66.7549 12.5309C89.7809 8.99447 113.093 7.6403 136.364 7.55176C159.635 7.59863 182.942 8.89551 205.979 12.359C217.489 14.1143 228.948 16.3486 240.156 19.5465C245.75 21.182 251.265 23.1143 256.593 25.4841C259.244 26.7028 261.854 28.0153 264.328 29.5674C266.771 31.1507 269.109 32.9528 270.968 35.1924C268.989 33.057 266.583 31.4007 264.088 29.9632C261.578 28.5309 258.948 27.3278 256.276 26.2288C250.911 24.0882 245.369 22.3955 239.76 20.984C228.562 18.1143 217.135 16.1455 205.656 14.682C194.172 13.2653 182.64 12.1715 171.083 11.557C159.526 10.8851 147.942 10.5778 136.369 10.6038C124.786 10.5934 113.208 10.932 101.656 11.6299C90.0934 12.2809 78.5674 13.3851 67.0882 14.8486C55.6195 16.3538 44.1924 18.359 33.0153 21.3122C27.4163 22.7549 21.8903 24.484 16.557 26.7132C13.9111 27.8538 11.2861 29.083 8.83301 30.6038C6.37988 32.1143 4.03093 33.8643 2.22363 36.1455Z" fill="#A8ACAA"/>
</svg>
