<svg width="431" height="362" viewBox="0 0 431 362" fill="none" xmlns="http://www.w3.org/2000/svg">
<g clip-path="url(#clip0_775_18348)">
<path d="M93.271 255.537C72.6564 258.105 49.8075 256.386 36.7137 240.454C22.0835 222.652 22.5627 193.339 39.0575 176.881C51.5002 164.464 69.5835 160.115 86.4898 155.324C140.834 139.917 194.162 113.214 228.578 68.4017C237.36 56.9746 244.823 44.485 254.719 34.0111C264.61 23.5319 277.636 14.9955 292.026 14.4277C301.625 14.0527 311.172 17.3027 319.167 22.6361C329.318 29.4121 337.297 39.9069 339.531 51.9121C342.729 69.1465 334.078 86.2559 324.443 100.896C297.75 141.469 261.459 175.193 221.11 202.209C188.073 224.324 151.891 242.251 113.297 251.756C107.214 253.256 100.375 254.647 93.271 255.537Z" fill="#E5801A"/>
<path d="M79.9271 182.995C152.271 162.479 223.255 126.932 269.078 67.2866C280.766 52.073 290.703 35.448 303.875 21.5001C305.292 19.9949 306.76 18.5261 308.276 17.0991C303.068 15.198 297.557 14.2136 292.026 14.4272C277.635 14.9949 264.609 23.5314 254.719 34.0105C244.823 44.4845 237.359 56.9741 228.578 68.4012C194.161 113.214 140.833 139.917 86.4896 155.323C69.5833 160.115 51.5 164.464 39.0573 176.88C31.8802 184.042 27.7396 193.63 26.5469 203.651C42.0833 193.037 61.5313 188.208 79.9271 182.995Z" fill="#FF931E"/>
<path d="M43.8335 183.574C56.2762 171.157 74.3595 166.808 91.271 162.016C145.61 146.605 198.938 119.907 233.354 75.0944C242.136 63.6673 249.599 51.1777 259.495 40.7038C269.391 30.2246 282.412 21.6882 296.802 21.1205C306.406 20.7455 315.948 23.9955 323.943 29.3288C327.865 31.9382 331.453 35.11 334.516 38.7038C330.75 32.2975 325.365 26.7715 319.167 22.6361C311.172 17.3027 301.625 14.0527 292.026 14.4277C277.636 14.9955 264.61 23.5319 254.719 34.0111C244.823 44.485 237.36 56.9746 228.578 68.4017C194.162 113.214 140.834 139.917 86.4898 155.324C69.5835 160.115 51.5002 164.464 39.0575 176.881C22.5627 193.339 22.0835 222.652 36.7137 240.454C36.9689 240.761 37.2241 241.068 37.4898 241.365C27.1252 223.501 29.021 198.355 43.8335 183.574Z" fill="white"/>
<mask id="mask0_775_18348" style="mask-type:luminance" maskUnits="userSpaceOnUse" x="-1" y="-1" width="432" height="349">
<path d="M-0.895752 -0.145508H430.896V347.334H-0.895752V-0.145508Z" fill="white"/>
</mask>
<g mask="url(#mask0_775_18348)">
<path d="M93.2711 255.537C72.6565 258.104 49.8075 256.386 36.7137 240.453C22.0835 222.651 22.5627 193.339 39.0575 176.88C51.5002 164.464 69.5836 160.115 86.4898 155.323C140.834 139.917 194.162 113.213 228.579 68.4009C237.36 56.9739 244.823 44.4842 254.719 34.0103C264.61 23.5311 277.636 14.9946 292.027 14.4269C301.626 14.0519 311.173 17.3019 319.167 22.6353C329.318 29.4113 337.298 39.9061 339.532 51.9113C342.73 69.1457 334.079 86.2551 324.443 100.896C297.751 141.469 261.459 175.193 221.11 202.208C188.073 224.323 151.891 242.25 113.297 251.755C107.214 253.255 100.375 254.646 93.2711 255.537Z" stroke="#42210B" stroke-width="6.37168" stroke-miterlimit="10"/>
</g>
<path d="M94.0469 324.048C66.6042 327.464 36.1875 325.178 18.7552 303.97C-0.718729 280.272 -0.0833131 241.251 21.875 219.339C38.4427 202.813 62.5156 197.027 85.0261 190.641C157.365 170.131 228.354 134.584 274.172 74.9331C285.859 59.7195 295.797 43.0945 308.969 29.1518C322.135 15.1987 339.474 3.83409 358.635 3.08409C371.417 2.58409 384.12 6.90701 394.766 14.006C408.287 23.0216 418.906 36.9956 421.875 52.9799C426.13 75.9174 414.615 98.6987 401.792 118.188C366.255 172.199 317.938 217.095 264.229 253.058C220.25 282.501 172.083 306.36 120.703 319.016C112.609 321.011 103.505 322.865 94.0469 324.048Z" fill="#C1272D"/>
<path d="M25.0626 226.032C41.6303 209.506 65.7032 203.714 88.2084 197.334C160.552 176.824 231.537 141.277 277.359 81.6258C289.047 66.4122 298.984 49.7872 312.156 35.8445C325.323 21.8914 342.656 10.5268 361.823 9.7768C374.599 9.27159 387.307 13.5997 397.948 20.6987C406.573 26.4539 414.016 34.2247 419.047 43.2455C414.333 31.3705 405.458 21.1362 394.766 14.006C384.12 6.90701 371.417 2.58409 358.636 3.08409C339.474 3.83409 322.136 15.1987 308.969 29.1518C295.797 43.0945 285.859 59.7195 274.172 74.9331C228.354 134.584 157.365 170.131 85.0261 190.641C62.5157 197.027 38.4428 202.813 21.8751 219.339C2.45842 238.714 -0.286369 271.47 12.8074 295.178C3.54176 272.303 7.41676 243.641 25.0626 226.032Z" fill="#FFBBC3"/>
<path d="M421.875 52.9792C419.474 40.0677 412.083 28.4687 402.203 19.7344C403.958 40.8594 393.24 61.6458 381.411 79.625C345.87 133.635 297.557 178.536 243.844 214.495C199.87 243.938 151.703 267.802 100.323 280.453C92.224 282.448 83.1198 284.307 73.6615 285.484C49.6042 288.484 23.2552 287.094 5.375 272.406C6.94271 283.948 11.4219 295.047 18.7552 303.969C36.1875 325.177 66.6042 327.464 94.0469 324.047C103.505 322.865 112.609 321.01 120.703 319.016C172.083 306.359 220.25 282.5 264.229 253.057C317.938 217.094 366.255 172.198 401.792 118.188C414.615 98.6979 426.13 75.9167 421.875 52.9792Z" fill="#B7131F"/>
<path d="M136.646 357.339C112.365 360.365 85.4428 358.339 70.0157 339.568C52.7813 318.599 53.3438 284.063 72.7761 264.672C87.4376 250.042 108.745 244.922 128.662 239.271C192.688 221.12 255.511 189.662 296.063 136.87C306.401 123.407 315.198 108.693 326.854 96.3494C338.511 84.0109 353.849 73.9484 370.813 73.2817C382.12 72.839 393.365 76.6723 402.781 82.9536C414.745 90.9327 424.146 103.297 426.776 117.443C430.542 137.745 420.354 157.902 409.005 175.152C377.552 222.948 334.792 262.683 287.261 294.511C248.339 320.568 205.714 341.683 160.24 352.886C153.073 354.646 145.016 356.292 136.646 357.339Z" fill="#F9A048"/>
<path d="M143.63 260.626C123.714 266.272 102.406 271.397 87.7449 286.022C72.4636 301.272 68.8543 325.886 76.3907 345.907C92.2084 358.766 115.432 359.98 136.646 357.339C145.016 356.292 153.073 354.647 160.24 352.886C205.714 341.683 248.339 320.569 287.261 294.511C334.792 262.683 377.552 222.949 409.005 175.152C420.354 157.902 430.542 137.746 426.776 117.444C426.276 114.751 425.526 112.126 424.568 109.584C422.417 107.662 420.141 105.897 417.75 104.303C408.333 98.0217 397.089 94.1935 385.781 94.6362C368.818 95.2977 353.479 105.36 341.823 117.704C330.167 130.042 321.37 144.761 311.031 158.225C270.479 211.011 207.656 242.475 143.63 260.626Z" fill="#FF931E"/>
<mask id="mask1_775_18348" style="mask-type:luminance" maskUnits="userSpaceOnUse" x="1" y="-1" width="430" height="363">
<path d="M1.5625 -0.145508H430.755V361.667H1.5625V-0.145508Z" fill="white"/>
</mask>
<g mask="url(#mask1_775_18348)">
<path d="M94.047 324.048C66.6043 327.464 36.1876 325.178 18.7553 303.969C-0.718738 280.271 -0.0833212 241.251 21.875 219.339C38.4428 202.813 62.5157 197.027 85.0262 190.641C157.365 170.131 228.355 134.584 274.172 74.9326C285.86 59.7191 295.797 43.0941 308.969 29.1513C322.136 15.1982 339.475 3.83359 358.636 3.08359C371.417 2.58359 384.12 6.90653 394.766 14.0055C408.287 23.0211 418.907 36.9951 421.876 52.9795C426.131 75.917 414.615 98.6983 401.792 118.188C366.256 172.198 317.938 217.094 264.23 253.058C220.25 282.501 172.084 306.36 120.703 319.016C112.61 321.011 103.505 322.865 94.047 324.048Z" stroke="#42210B" stroke-width="6.37168" stroke-miterlimit="10"/>
</g>
<path d="M426.776 117.443C424.146 103.297 414.745 90.9323 402.781 82.9531C401.521 82.1094 400.224 81.3125 398.901 80.5625C398.609 97.5469 389.885 114.115 380.339 128.625C348.891 176.422 306.13 216.156 258.594 247.984C219.672 274.042 177.047 295.156 131.578 306.359C124.411 308.125 116.354 309.766 107.984 310.813C90.8698 312.943 72.4427 312.568 57.6562 305.589C58.099 317.917 62.25 330.12 70.0156 339.568C85.4427 358.339 112.365 360.365 136.646 357.339C145.016 356.292 153.073 354.646 160.24 352.885C205.714 341.682 248.339 320.568 287.26 294.51C334.792 262.682 377.552 222.948 409.005 175.151C420.354 157.901 430.542 137.745 426.776 117.443Z" fill="#E5801A"/>
<path d="M426.776 117.443C425.557 110.886 422.886 104.714 419.177 99.1826C421.073 103.042 422.485 107.136 423.271 111.386C427.042 131.688 416.849 151.849 405.5 169.094C374.052 216.896 331.287 256.631 283.755 288.453C244.834 314.516 202.209 335.631 156.74 346.828C149.573 348.594 141.516 350.24 133.146 351.282C108.86 354.313 81.9377 352.282 66.5106 333.511C65.4793 332.261 64.5158 330.959 63.6147 329.615C65.37 333.162 67.5002 336.511 70.0158 339.568C85.4429 358.339 112.365 360.365 136.646 357.339C145.016 356.292 153.073 354.646 160.24 352.886C205.714 341.683 248.339 320.568 287.261 294.511C334.792 262.683 377.552 222.948 409.005 175.151C420.354 157.901 430.542 137.745 426.776 117.443Z" fill="#FF931E"/>
<path d="M78.1928 272C92.8543 257.375 114.156 252.25 134.078 246.605C198.099 228.448 260.922 196.99 301.474 144.204C311.818 130.74 320.615 116.021 332.271 103.683C343.927 91.339 359.266 81.2765 376.224 80.615C387.537 80.1671 398.781 84.0005 408.193 90.2817C412.641 93.2452 416.729 96.813 420.25 100.855C415.854 93.74 409.755 87.5994 402.781 82.9536C393.365 76.6723 382.12 72.839 370.813 73.2817C353.849 73.9484 338.511 84.0109 326.854 96.3494C315.198 108.693 306.401 123.407 296.063 136.87C255.511 189.662 192.688 221.12 128.662 239.271C108.745 244.922 87.4376 250.042 72.7761 264.672C53.3438 284.063 52.7813 318.599 70.0157 339.568C70.4272 340.068 70.849 340.558 71.2813 341.037C58.4428 319.938 60.474 289.678 78.1928 272Z" fill="white"/>
<mask id="mask2_775_18348" style="mask-type:luminance" maskUnits="userSpaceOnUse" x="1" y="-1" width="430" height="363">
<path d="M1.5625 -0.145508H430.755V361.667H1.5625V-0.145508Z" fill="white"/>
</mask>
<g mask="url(#mask2_775_18348)">
<path d="M136.646 357.339C112.365 360.365 85.4428 358.339 70.0157 339.568C52.7813 318.599 53.3438 284.063 72.7762 264.672C87.4376 250.047 108.745 244.922 128.662 239.271C192.688 221.12 255.511 189.662 296.063 136.87C306.402 123.406 315.198 108.693 326.855 96.3489C338.511 84.0104 353.85 73.9479 370.813 73.2812C382.12 72.8385 393.365 76.6718 402.782 82.9531C414.745 90.9323 424.147 103.297 426.777 117.443C430.542 137.745 420.355 157.901 409.006 175.151C377.553 222.948 334.792 262.682 287.261 294.511C248.339 320.568 205.714 341.683 160.24 352.886C153.073 354.646 145.016 356.292 136.646 357.339Z" stroke="#42210B" stroke-width="6.37168" stroke-miterlimit="10"/>
</g>
<path d="M27.724 266.49L28.5886 268.485C28.7292 268.803 28.8646 269.12 29.0104 269.433C29.1563 269.745 29.2656 270.053 29.4219 270.36C29.6979 270.975 29.9583 271.574 30.2448 272.167L30.6406 273.053C30.7813 273.35 30.9219 273.636 31.0521 273.928C32.1302 276.245 33.2136 278.475 34.3073 280.719C34.9219 281.808 35.4167 282.959 36.0365 284.063C36.3333 284.62 36.5833 285.209 36.8906 285.771C37.1979 286.334 37.4948 286.907 37.7761 287.495C37.9271 287.787 38.0521 288.094 38.2031 288.386C38.3594 288.678 38.5156 288.964 38.6615 289.266C38.9636 289.855 39.2448 290.475 39.5261 291.105C40.1094 292.35 40.724 293.6 41.1823 295.074C40.4636 294.85 39.7865 294.558 39.125 294.24C38.4688 293.917 37.8021 293.589 37.1979 293.199C36.6042 292.792 36.0052 292.381 35.4323 291.938C35.1406 291.719 34.8594 291.495 34.5729 291.266C34.3021 291.032 34.0417 290.782 33.7813 290.532C33.2656 290.027 32.7604 289.506 32.2656 288.98C32.0104 288.719 31.7917 288.428 31.5729 288.141C31.3438 287.86 31.125 287.568 30.9115 287.277C30.0104 286.136 29.3125 284.844 28.6094 283.563C27.3333 280.938 26.4583 278.084 26.2083 275.146C26.1771 274.782 26.1563 274.412 26.1302 274.048C26.125 273.678 26.1302 273.308 26.1406 272.938C26.1458 272.756 26.151 272.568 26.1563 272.386C26.1667 272.204 26.1719 272.021 26.1979 271.834C26.2396 271.464 26.2813 271.094 26.3333 270.73C26.3802 270.365 26.4583 270.001 26.5417 269.636C26.625 269.277 26.7031 268.917 26.8281 268.558C27.0469 267.85 27.3229 267.141 27.724 266.49Z" fill="#42210B"/>
<path d="M19.3074 285.256C19.974 285.016 20.5886 284.777 21.1928 284.548C21.4897 284.438 21.7865 284.313 22.0782 284.199C22.224 284.136 22.3699 284.089 22.5157 284.032L22.9428 283.85C23.2292 283.73 23.5105 283.636 23.7917 283.516C24.0678 283.391 24.349 283.277 24.6199 283.167C25.172 282.964 25.7136 282.704 26.2553 282.495L32.573 279.813C33.0938 279.579 33.6199 279.355 34.1563 279.141C34.4272 279.053 34.6772 278.907 34.948 278.798C35.2136 278.683 35.474 278.558 35.7449 278.454C36.8334 278.042 37.8907 277.527 39.0261 277.12C39.3126 277.016 39.599 276.917 39.8751 276.792C40.1563 276.678 40.4376 276.563 40.7292 276.459C41.3022 276.24 41.9011 276.042 42.5053 275.85C43.7032 275.433 44.9324 275.016 46.3542 274.771C46.1042 275.433 45.7917 276.037 45.4584 276.631C45.1303 277.225 44.7709 277.803 44.3907 278.355C43.9792 278.876 43.5678 279.402 43.1251 279.902C42.6824 280.396 42.2501 280.907 41.7449 281.334C40.7553 282.219 39.7449 283.089 38.6042 283.782C38.0417 284.141 37.4792 284.506 36.8907 284.813C36.2917 285.11 35.6824 285.402 35.073 285.678C32.599 286.714 29.922 287.376 27.1876 287.407C26.4949 287.402 25.823 287.407 25.1355 287.313C24.7917 287.277 24.4532 287.235 24.1147 287.178C23.7761 287.115 23.4376 287.042 23.1042 286.964C22.7657 286.881 22.4376 286.798 22.1042 286.678C21.7761 286.558 21.4532 286.469 21.1303 286.313C20.4897 286.037 19.8595 285.714 19.3074 285.256Z" fill="#42210B"/>
<path d="M135.604 241.433C129.099 241.433 122.88 238.271 119.037 232.662L98.1251 202.177C97.9688 201.943 97.4897 201.245 96.3855 201.479C95.2865 201.714 95.1303 202.547 95.0782 202.818L91.6407 221.219C90.7032 226.235 85.8751 229.542 80.8647 228.604C75.849 227.662 72.5417 222.839 73.4845 217.818L76.922 199.422C78.4272 191.375 84.5678 185.089 92.5678 183.396C100.568 181.703 108.729 184.969 113.354 191.714L134.266 222.203C134.479 222.511 134.974 223.229 136.156 222.86C137.344 222.49 137.344 221.62 137.344 221.25V172.995C137.344 165.005 141.854 157.974 149.12 154.651C156.385 151.328 164.646 152.511 170.688 157.74L207.849 189.906C208.125 190.146 208.771 190.703 209.818 190.078C210.865 189.453 210.677 188.62 210.599 188.261L207.146 172.828C205.547 165.693 207.948 158.229 213.406 153.365C218.865 148.5 226.542 146.969 233.448 149.375L257.391 157.724C257.651 157.818 258.448 158.094 259.198 157.255C259.948 156.417 259.583 155.656 259.464 155.406L244.5 124.125C240.714 116.203 242.323 107.12 248.599 100.99C254.875 94.8544 263.99 93.4585 271.813 97.4325C272.386 97.7242 272.896 97.6252 273.224 97.4846C273.552 97.3492 273.984 97.0575 274.182 96.4429L278.287 83.5888C280.406 76.9586 285.917 71.8075 292.677 70.1461L306.167 66.8231C311.12 65.6044 316.125 68.6356 317.344 73.5888C318.563 78.5471 315.531 83.5523 310.578 84.7711L297.089 88.094C296.521 88.2294 296.063 88.6617 295.886 89.2138L291.776 102.073C289.974 107.714 285.807 112.261 280.349 114.542C274.886 116.823 268.724 116.594 263.448 113.912C263.151 113.761 262.37 113.365 261.505 114.209C260.641 115.052 261.021 115.849 261.162 116.146L276.125 147.427C279.651 154.797 278.412 163.49 272.969 169.578C267.521 175.667 259.021 177.865 251.313 175.177L227.37 166.834C226.75 166.615 226.188 166.729 225.693 167.167C225.203 167.604 225.026 168.151 225.172 168.792L228.625 184.224C230.557 192.87 226.896 201.396 219.297 205.943C211.698 210.49 202.458 209.683 195.766 203.886L158.604 171.719C158.401 171.542 157.787 171.011 156.802 171.464C155.813 171.912 155.813 172.724 155.813 172.995V221.25C155.813 230.141 150.115 237.88 141.63 240.516C139.635 241.13 137.604 241.433 135.604 241.433Z" fill="#E5C028"/>
<path d="M80.1094 206.433C81.6094 198.391 87.7501 192.1 95.7553 190.407C103.755 188.714 111.917 191.98 116.542 198.73L137.453 229.214C137.662 229.521 138.156 230.24 139.339 229.87C140.526 229.501 140.526 228.631 140.526 228.261V180.006C140.526 172.011 145.042 164.985 152.302 161.662C159.568 158.339 167.833 159.521 173.875 164.751L211.037 196.917C211.313 197.157 211.958 197.714 213.005 197.089C214.047 196.464 213.859 195.631 213.781 195.277L210.328 179.839C208.734 172.704 211.13 165.245 216.589 160.376C222.047 155.511 229.729 153.985 236.635 156.386L260.573 164.735C260.839 164.829 261.636 165.105 262.386 164.266C263.136 163.433 262.771 162.667 262.651 162.417L259.656 156.162C259.656 156.48 259.557 156.86 259.198 157.256C258.448 158.094 257.651 157.818 257.391 157.725L233.448 149.376C226.542 146.969 218.865 148.501 213.406 153.365C207.948 158.23 205.547 165.693 207.146 172.829L210.599 188.261C210.677 188.62 210.865 189.454 209.818 190.079C208.771 190.704 208.125 190.146 207.849 189.907L170.688 157.74C164.646 152.511 156.385 151.329 149.12 154.652C141.854 157.975 137.344 165.001 137.344 172.995V221.251C137.344 221.62 137.344 222.49 136.156 222.86C134.974 223.23 134.479 222.511 134.266 222.204L113.354 191.714C108.729 184.969 100.568 181.704 92.5678 183.396C84.5678 185.089 78.4272 191.376 76.9219 199.422L73.4844 217.818C72.8594 221.162 74.1199 224.422 76.5105 226.501C76.5105 225.949 76.5626 225.391 76.6667 224.829L80.1094 206.433Z" fill="white"/>
<path d="M264.349 123.156L277.052 149.714C276.792 148.943 276.485 148.177 276.125 147.427L264.146 122.375C264.146 122.724 264.276 123.005 264.349 123.156Z" fill="#E5C028"/>
<path d="M251.787 108C258.063 101.865 267.172 100.469 274.995 104.443C275.573 104.735 276.083 104.636 276.412 104.495C276.74 104.36 277.172 104.068 277.365 103.453L281.474 90.5992C283.589 83.969 289.104 78.8179 295.859 77.1565L309.354 73.8336C312.38 73.0888 315.422 73.9325 317.609 75.8283C317.615 75.094 317.526 74.3388 317.344 73.5888C316.125 68.6356 311.12 65.6044 306.167 66.8231L292.677 70.1461C285.917 71.8075 280.406 76.9586 278.287 83.5888L274.182 96.4429C273.984 97.0575 273.552 97.3492 273.224 97.4846C272.896 97.6252 272.386 97.7242 271.813 97.4325C263.99 93.4585 254.875 94.8544 248.599 100.99C242.323 107.12 240.714 116.203 244.5 124.125L246.734 128.792C244.255 121.474 246.12 113.537 251.787 108Z" fill="white"/>
<path d="M259.464 155.407L246.734 128.792C247 129.584 247.318 130.365 247.688 131.136L259.656 156.162C259.656 155.813 259.526 155.537 259.464 155.407Z" fill="#E5C028"/>
<path d="M261.505 114.209C262.37 113.365 263.151 113.761 263.448 113.912C268.724 116.594 274.886 116.823 280.349 114.542C285.807 112.261 289.974 107.714 291.776 102.073L295.886 89.2139C296.063 88.6618 296.521 88.2295 297.089 88.0941L310.578 84.7712C314.787 83.7348 317.599 79.9743 317.609 75.8285C315.422 73.9327 312.38 73.0889 309.354 73.8337L295.859 77.1566C289.104 78.8181 283.589 83.9691 281.474 90.5993L277.365 103.454C277.172 104.068 276.74 104.36 276.412 104.495C276.083 104.636 275.573 104.735 274.995 104.443C267.172 100.469 258.063 101.865 251.787 108C246.12 113.537 244.255 121.474 246.734 128.792L259.464 155.407C259.526 155.537 259.656 155.813 259.656 156.162L262.651 162.417C262.771 162.667 263.136 163.433 262.386 164.266C261.636 165.105 260.839 164.829 260.573 164.735L236.636 156.386C229.729 153.985 222.047 155.511 216.589 160.375C211.13 165.245 208.734 172.704 210.328 179.839L213.781 195.276C213.859 195.631 214.047 196.464 213.005 197.089C211.958 197.714 211.313 197.157 211.037 196.917L173.875 164.75C167.833 159.521 159.568 158.339 152.302 161.662C145.042 164.985 140.526 172.011 140.526 180.006V228.261C140.526 228.631 140.526 229.5 139.339 229.87C138.156 230.24 137.662 229.521 137.453 229.214L116.542 198.73C111.917 191.98 103.755 188.714 95.7553 190.407C87.7501 192.099 81.6095 198.391 80.1095 206.433L76.6667 224.829C76.5626 225.391 76.5105 225.948 76.5105 226.5C77.7084 227.542 79.1928 228.292 80.8647 228.605C85.8751 229.542 90.7032 226.235 91.6407 221.219L95.0782 202.818C95.1303 202.547 95.2865 201.714 96.3855 201.48C97.4897 201.245 97.9688 201.943 98.1251 202.177L119.037 232.662C122.88 238.271 129.099 241.433 135.604 241.433C137.604 241.433 139.635 241.131 141.63 240.516C150.115 237.881 155.813 230.141 155.813 221.25V172.995C155.813 172.724 155.813 171.912 156.802 171.464C157.787 171.011 158.401 171.542 158.604 171.719L195.766 203.886C202.458 209.683 211.698 210.49 219.297 205.943C226.896 201.396 230.557 192.87 228.625 184.224L225.172 168.792C225.026 168.151 225.203 167.605 225.693 167.167C226.188 166.73 226.75 166.615 227.37 166.834L251.313 175.177C259.021 177.865 267.521 175.667 272.969 169.579C277.854 164.115 279.354 156.542 277.052 149.714L264.349 123.157C264.276 123.006 264.146 122.724 264.146 122.375L261.162 116.146C261.021 115.844 260.641 115.052 261.505 114.209Z" fill="#E5C028"/>
<path d="M317.344 73.5892C316.87 71.6621 315.818 70.0267 314.427 68.8184C314.417 72.9642 311.599 76.7246 307.396 77.7611L293.901 81.0788C293.334 81.2194 292.875 81.6517 292.698 82.2038L288.594 95.0579C286.792 100.704 282.625 105.245 277.162 107.532C271.698 109.813 265.542 109.584 260.261 106.902C259.969 106.751 259.188 106.355 258.323 107.199C257.459 108.042 257.834 108.834 257.979 109.136L260.959 115.365C260.959 115.027 261.084 114.626 261.505 114.209C262.37 113.365 263.151 113.761 263.448 113.912C268.724 116.594 274.886 116.824 280.349 114.542C285.807 112.261 289.974 107.714 291.776 102.074L295.886 89.2142C296.063 88.6621 296.521 88.2298 297.089 88.0944L310.578 84.7715C315.531 83.5527 318.563 78.5475 317.344 73.5892Z" fill="#AF9010"/>
<path d="M270.099 162.25C264.656 168.339 256.156 170.537 248.443 167.849L224.505 159.5C223.88 159.287 223.318 159.396 222.828 159.839C222.339 160.271 222.161 160.823 222.307 161.464L225.755 176.896C227.693 185.542 224.031 194.068 216.432 198.615C208.833 203.162 199.594 202.354 192.896 196.558L155.734 164.391C155.531 164.214 154.917 163.683 153.932 164.131C152.948 164.584 152.948 165.396 152.948 165.667V213.922C152.948 222.808 147.245 230.552 138.76 233.183C136.766 233.802 134.74 234.104 132.74 234.104C126.229 234.104 120.016 230.938 116.172 225.334L95.2604 194.844C95.099 194.615 94.6198 193.917 93.5209 194.151C92.4219 194.381 92.2656 195.214 92.2136 195.49L88.7761 213.891C87.8334 218.907 83.0104 222.214 77.9948 221.271C76.3229 220.959 74.8438 220.214 73.6459 219.172C73.625 223.547 76.7292 227.453 81.1823 228.282C86.1979 229.224 91.0209 225.917 91.9584 220.901L95.4011 202.5C95.4479 202.224 95.6042 201.391 96.7084 201.162C97.8073 200.927 98.2865 201.625 98.4427 201.854L119.354 232.344C123.203 237.948 129.417 241.115 135.922 241.115C137.922 241.115 139.953 240.813 141.948 240.193C150.432 237.563 156.13 229.818 156.13 220.933V172.677C156.13 172.407 156.13 171.594 157.12 171.141C158.104 170.693 158.719 171.224 158.922 171.401L196.083 203.568C202.776 209.365 212.016 210.172 219.615 205.625C227.214 201.078 230.875 192.552 228.943 183.907L225.49 168.474C225.349 167.834 225.521 167.287 226.01 166.849C226.505 166.407 227.068 166.297 227.688 166.516L251.63 174.86C259.339 177.547 267.839 175.349 273.286 169.261C278.729 163.172 279.969 154.474 276.443 147.104L274.188 142.386C276.484 149.209 274.99 156.782 270.099 162.25Z" fill="#AF9010"/>
<mask id="mask3_775_18348" style="mask-type:luminance" maskUnits="userSpaceOnUse" x="0" y="-1" width="392" height="315">
<path d="M0.333496 -0.145508H391V314H0.333496V-0.145508Z" fill="white"/>
</mask>
<g mask="url(#mask3_775_18348)">
<path d="M135.605 241.433C129.099 241.433 122.881 238.271 119.037 232.662L98.1254 202.177C97.9691 201.943 97.4899 201.245 96.3858 201.479C95.2868 201.714 95.1306 202.547 95.0785 202.818L91.641 221.219C90.7035 226.235 85.8753 229.542 80.8649 228.604C75.8493 227.662 72.542 222.839 73.4847 217.818L76.9222 199.422C78.4274 191.375 84.5681 185.089 92.5681 183.396C100.568 181.703 108.73 184.969 113.355 191.714L134.266 222.203C134.48 222.511 134.974 223.229 136.157 222.86C137.344 222.49 137.344 221.62 137.344 221.25V172.995C137.344 165.005 141.855 157.974 149.12 154.651C156.386 151.328 164.646 152.511 170.688 157.74L207.849 189.907C208.126 190.146 208.771 190.703 209.818 190.078C210.865 189.453 210.678 188.62 210.599 188.261L207.146 172.828C205.547 165.693 207.948 158.229 213.407 153.365C218.865 148.5 226.542 146.969 233.448 149.375L257.391 157.724C257.652 157.818 258.449 158.094 259.199 157.255C259.949 156.417 259.584 155.656 259.464 155.406L244.501 124.125C240.714 116.203 242.324 107.12 248.6 100.99C254.876 94.8543 263.99 93.4585 271.813 97.4325C272.386 97.7241 272.896 97.6252 273.225 97.4846C273.553 97.3491 273.985 97.0575 274.183 96.4429L278.287 83.5887C280.407 76.9585 285.917 71.8074 292.678 70.146L306.167 66.8231C311.12 65.6043 316.126 68.6356 317.344 73.5887C318.563 78.547 315.532 83.5522 310.579 84.771L297.089 88.0939C296.522 88.2293 296.063 88.6616 295.886 89.2137L291.777 102.073C289.975 107.714 285.808 112.261 280.35 114.542C274.886 116.823 268.725 116.594 263.449 113.912C263.152 113.761 262.37 113.365 261.506 114.209C260.641 115.052 261.021 115.849 261.162 116.146L276.126 147.427C279.652 154.797 278.412 163.49 272.969 169.578C267.521 175.667 259.021 177.865 251.313 175.177L227.37 166.834C226.751 166.615 226.188 166.729 225.693 167.167C225.204 167.604 225.027 168.151 225.172 168.792L228.626 184.224C230.558 192.87 226.896 201.396 219.297 205.943C211.698 210.49 202.459 209.683 195.766 203.886L158.605 171.719C158.401 171.542 157.787 171.011 156.803 171.464C155.813 171.912 155.813 172.724 155.813 172.995V221.25C155.813 230.141 150.115 237.881 141.631 240.516C139.636 241.131 137.605 241.433 135.605 241.433Z" stroke="#42210B" stroke-width="5.09734" stroke-miterlimit="10"/>
</g>
</g>
<defs>
<clipPath id="clip0_775_18348">
<rect width="431" height="362" fill="white"/>
</clipPath>
</defs>
</svg>
