<svg width="278" height="538" viewBox="0 0 278 538" fill="none" xmlns="http://www.w3.org/2000/svg">
<mask id="mask0_775_18392" style="mask-type:luminance" maskUnits="userSpaceOnUse" x="0" y="-1" width="278" height="539">
<path d="M0.020752 -0.198242H277.88V537.666H0.020752V-0.198242Z" fill="white"/>
</mask>
<g mask="url(#mask0_775_18392)">
<path d="M277.807 138.713C277.807 61.9945 215.641 -0.198242 138.943 -0.198242C62.25 -0.198242 0.078125 61.9945 0.078125 138.713C0.078125 160.234 5 180.593 13.7396 198.765C23.5573 219.083 23.8333 233.729 22.026 243.625C21.1198 248.567 20.0052 255.765 20.3542 266.057C20.5729 272.609 22.1927 280.427 28.4844 286.38C35.1354 292.666 44.7083 294 52.5469 292.406L103.052 450.791L126.594 524.63L127.359 527.026L127.932 528.812C131.354 539.547 146.536 539.547 149.958 528.812L231.516 273.047C238.036 274.88 245.578 273.567 251.031 269.401C258.901 263.385 262.271 252.489 260.354 242.765C259.198 236.916 256.349 231.406 255.979 225.453C255.49 217.458 259.484 210.057 262.302 202.458C272.193 183.364 277.807 161.703 277.807 138.713Z" fill="#FABDC9"/>
</g>
<path d="M216.255 248.823C216.047 244.865 216.323 241.672 216.453 240.511C217.271 233.526 219.734 228.37 216.583 223.49C216.307 223.063 213.885 219.438 209.312 218.599C205.141 217.839 200.875 219.708 198.641 222.526C195.651 226.313 197.135 230.781 197.714 237.953C197.812 239.182 197.917 240.776 197.969 242.594L208.755 263.073L216.255 248.823Z" fill="#FBC15F"/>
<path d="M204.094 271.917L196.713 257.891C196.12 260.51 195.281 263.099 194.109 265.484C190.63 272.573 183.594 277.719 175.865 279.188L188.068 302.359L204.094 271.917Z" fill="#FBC15F"/>
<path d="M149.859 392.599L169.349 429.604L188 394.187L168.516 357.177L149.859 392.599Z" fill="#FBC15F"/>
<path d="M223.703 268.713C221.552 266.702 220.01 264.192 218.891 261.51L213.411 271.916L224.911 293.755L221.401 304.775L208.755 280.765L192.724 311.202L209.307 342.692L205.797 353.713L188.068 320.046L173.172 348.333L192.656 385.338L200.391 370.656L186.094 415.499L174.005 438.452L176.974 444.088L173.464 455.109C168.557 470.473 163.661 485.838 158.76 501.208L155.245 512.223C153.484 517.749 151.719 523.281 149.958 528.807C146.536 539.541 131.354 539.541 127.932 528.807L127.359 527.025L127.932 528.812C131.354 539.541 146.536 539.541 149.958 528.812L231.516 273.046C228.62 272.229 225.927 270.801 223.703 268.713Z" fill="#FBC15F"/>
<path d="M140.542 229.807L135.141 219.547C133.786 219.541 132.437 219.531 131.094 219.521C128.406 221.698 127.5 225.119 127.088 226.76C125.088 234.823 129.896 237.854 129.365 245.661C129.099 249.583 127.542 253.609 125.052 256.963L125.651 258.093L140.542 229.807Z" fill="#FBC15F"/>
<path d="M102.338 302.359L120.989 266.937L118.724 262.63C111.062 266.952 100.318 266.385 93.9373 260.39C93.5884 260.062 93.2603 259.697 92.9321 259.338L86.3071 271.916L102.338 302.359Z" fill="#FBC15F"/>
<path d="M88.3437 250.359C88.0364 248.932 87.8801 247.474 87.9374 246.026C88.1979 239.599 92.2551 237.078 91.6354 229.318C91.2499 224.537 89.4947 222.792 89.052 222.38C86.4426 219.953 82.0781 219.635 79.0885 221.26C76.0729 222.896 74.9322 226.25 74.1301 230.031C72.6197 237.146 73.0989 242.042 73.6301 247.839L81.651 263.073L88.3437 250.359Z" fill="#FBC15F"/>
<path d="M76.9947 271.917L74.2864 266.781C74.2395 267.755 74.1718 268.708 74.0676 269.635C74.578 271.25 75.0989 272.875 75.6301 274.505L76.9947 271.917Z" fill="#FBC15F"/>
<path d="M123.849 516.01L109.146 469.911L108.687 468.463L103.052 450.791L126.594 524.63L123.849 516.01Z" fill="#FBC15F"/>
<path d="M130.307 266.937L145.203 295.223L156.177 274.385C152.922 271.926 150.229 268.723 148.505 265.02C145.172 257.859 145.073 250.083 145.26 243.999C145.312 242.348 145.432 240.807 145.557 239.322L145.203 238.65L130.307 266.937Z" fill="#FBC15F"/>
<path d="M168.516 339.489L183.406 311.203L166.505 279.099C165.469 278.885 164.453 278.599 163.453 278.255L149.859 304.067L168.516 339.489Z" fill="#FBC15F"/>
<path d="M140.542 304.068L125.651 275.781L106.995 311.203L121.89 339.49L140.542 304.068Z" fill="#FBC15F"/>
<path d="M145.203 401.442L143.312 405.031C147.094 410.052 150.906 414.901 154.745 419.567L145.203 401.442Z" fill="#FBC15F"/>
<path d="M163.854 348.333L145.203 312.911L126.552 348.333L145.203 383.755L163.854 348.333Z" fill="#FBC15F"/>
<path d="M140.542 392.599L121.891 357.177L117.172 366.14C123.443 376.646 130.328 387.177 137.88 397.656L140.542 392.599Z" fill="#FBC15F"/>
<path d="M117.234 348.333L102.339 320.047L97.4688 329.297C101.938 338.703 106.87 348.203 112.281 357.74L117.234 348.333Z" fill="#FBC15F"/>
<path d="M97.6823 311.202L81.651 280.76L79.2812 285.255C83.2708 296.531 87.8646 308.104 93.125 319.859L97.6823 311.202Z" fill="#FBC15F"/>
<path d="M127.359 527.026L127.932 528.807C131.354 539.541 146.536 539.541 149.958 528.807C151.719 523.281 153.484 517.75 155.245 512.224L145.203 493.146L127.359 527.026Z" fill="#FAB253"/>
<path d="M108.688 468.463L105.635 458.895L116.401 438.452L97.7448 403.031L91.5625 414.765L88.0521 403.749L93.0885 394.187L78.1927 365.895L76.8177 368.515L73.3021 357.494L73.5365 357.051L72.5833 355.244L61.2083 319.577L57.6979 308.557L75.6302 274.505C75.099 272.874 74.5781 271.249 74.0677 269.635C73.6042 273.739 72.5156 277.4 70.1979 280.916C65.1719 288.557 57.1823 291.192 54.6667 291.906C53.9792 292.098 53.2656 292.26 52.5469 292.406L103.052 450.791L108.688 468.463Z" fill="#FAB253"/>
<path d="M149.859 484.302L158.76 501.208C163.661 485.839 168.557 470.474 173.464 455.109L169.349 447.297L149.859 484.302Z" fill="#FAB253"/>
<path d="M137.88 397.656C130.328 387.177 123.443 376.646 117.172 366.141L102.406 394.188L121.057 429.604L137.88 397.656Z" fill="#FAB253"/>
<path d="M109.146 469.911L123.849 516.01L140.542 484.302L121.057 447.297L109.146 469.911Z" fill="#FAB253"/>
<path d="M93.1249 319.859C87.8645 308.104 83.2708 296.531 79.2812 285.255L62.1614 317.765L78.1926 348.208L93.1249 319.859Z" fill="#FAB253"/>
<path d="M143.312 405.031L125.713 438.453L145.203 475.458L164.687 438.453L154.745 419.568C150.906 414.901 147.094 410.052 143.312 405.031Z" fill="#FAB253"/>
<path d="M112.281 357.74C106.87 348.203 101.937 338.703 97.4687 329.297L82.8489 357.052L97.7447 385.339L112.281 357.74Z" fill="#FAB253"/>
<path d="M138.943 219.563C139.802 219.563 140.651 219.557 141.505 219.552C140.719 218.792 139.927 218.323 139.177 218.036C138.823 217.901 138.469 217.807 138.115 217.734H135.042C133.708 217.99 132.724 218.474 132.479 218.599C131.969 218.87 131.516 219.182 131.094 219.521C132.438 219.531 133.786 219.542 135.141 219.547C136.406 219.552 137.672 219.563 138.943 219.563Z" fill="#F68C46"/>
<mask id="mask1_775_18392" style="mask-type:luminance" maskUnits="userSpaceOnUse" x="0" y="-1" width="278" height="295">
<path d="M0.020752 -0.198242H277.88V293.666H0.020752V-0.198242Z" fill="white"/>
</mask>
<g mask="url(#mask1_775_18392)">
<path d="M12.6563 113.297C24.3542 54.5674 74.9219 10.3903 135.536 10.3903C137.458 10.3903 139.37 10.4476 141.271 10.5361C141.755 10.5622 142.234 10.583 142.714 10.6143C144.573 10.7184 146.422 10.859 148.255 11.0465C148.297 11.0518 148.339 11.0518 148.38 11.057C150.234 11.2497 152.078 11.4997 153.911 11.7757C154.401 11.8538 154.891 11.932 155.38 12.0101C157.109 12.2913 158.823 12.6038 160.526 12.958C160.667 12.984 160.807 13.0101 160.943 13.0413C162.682 13.4059 164.401 13.8226 166.115 14.2653C166.635 14.4007 167.161 14.5361 167.682 14.682C169.219 15.0986 170.745 15.5413 172.255 16.0153C172.589 16.1195 172.917 16.2236 173.245 16.3278C174.781 16.8226 176.302 17.359 177.818 17.9163C178.396 18.1299 178.979 18.3486 179.557 18.5726C180.854 19.0778 182.146 19.5934 183.427 20.1403C184.01 20.3903 184.594 20.6403 185.172 20.8955C186.453 21.4632 187.719 22.0518 188.969 22.6611C189.625 22.9788 190.276 23.3018 190.922 23.6299C191.958 24.1559 192.984 24.7028 194.01 25.2549C194.885 25.7288 195.76 26.2184 196.625 26.7132C197.599 27.2757 198.573 27.8434 199.536 28.4372C200.26 28.8799 200.984 29.333 201.703 29.7913C202.474 30.2861 203.234 30.7861 203.99 31.2966C205.161 32.083 206.328 32.8955 207.474 33.7236C208.141 34.208 208.802 34.682 209.458 35.1716C210.25 35.7705 211.036 36.3747 211.813 36.9893C212.328 37.4007 212.839 37.8174 213.354 38.2288C214.792 39.4059 216.203 40.6038 217.589 41.8434C217.953 42.1663 218.328 42.4893 218.693 42.8226C219.526 43.583 220.349 44.3591 221.161 45.1403C221.469 45.432 221.771 45.7341 222.078 46.0361C223.693 47.6143 225.266 49.2393 226.797 50.9111C226.927 51.057 227.068 51.1976 227.198 51.3382C228.036 52.2653 228.865 53.2028 229.677 54.1559C229.833 54.333 229.979 54.5153 230.13 54.6872C232.646 57.6611 235.036 60.7497 237.286 63.9476C237.339 64.0309 237.391 64.1091 237.448 64.1924C239.755 67.4893 241.906 70.9007 243.911 74.4216C243.917 74.432 243.927 74.4424 243.927 74.4528L243.969 74.5257C243.974 74.5309 243.974 74.5361 243.979 74.5413C254.755 93.5674 260.958 115.666 260.958 139.271C260.958 161.088 254.302 181.224 246.792 201.276C244.969 206.146 242.005 211.192 237.688 213.682C236.417 214.411 235.026 214.922 233.516 215.14C222.771 216.687 213.76 202.635 203.307 205.552C192.615 208.536 192.75 225.609 182.88 230.687C174.943 234.771 164.807 227.911 162.484 219.291C161.797 216.75 161.568 214.052 160.38 211.703C159.323 209.614 157.573 207.948 155.641 206.63C146.13 200.14 131.62 202.729 124.938 212.104C122.063 216.151 118.979 221.942 114.13 220.896C111.536 220.333 109.87 217.885 108.349 215.718C105.01 210.953 101 206.51 95.9063 203.708C90.8125 200.901 84.4948 199.916 79.1094 202.114C71.099 205.38 67.2917 214.265 63.0729 221.823C58.849 229.38 51.4688 237.13 43.0052 235.328C38.6198 234.39 35.1094 230.942 33.0052 226.984C30.901 223.026 29.9896 218.557 29.1094 214.161C27.6667 206.974 25.5417 201.562 22.4479 194.989C15.9375 181.073 11.776 165.786 10.5208 149.651C10.4948 149.359 10.4792 149.067 10.4583 148.781C10.401 147.958 10.3437 147.13 10.2969 146.307C10.2656 145.698 10.2448 145.088 10.224 144.479C10.1979 143.932 10.1719 143.385 10.1563 142.843C10.125 141.651 10.1094 140.463 10.1094 139.271C10.1094 130.369 10.9844 121.687 12.6563 113.297ZM22.026 243.625C21.1198 248.567 20.0052 255.765 20.3542 266.057C20.5729 272.609 22.1927 280.427 28.4844 286.38C35.1354 292.666 44.7083 294 52.5469 292.406C53.2656 292.26 53.9792 292.099 54.6667 291.906C57.1823 291.192 65.1719 288.557 70.1979 280.916C72.5156 277.401 73.6042 273.739 74.0677 269.635C74.1719 268.713 74.2396 267.755 74.2865 266.781C74.4531 263.437 74.3281 259.791 74.1823 255.703C74.0781 252.781 73.849 250.234 73.6302 247.838C73.099 242.041 72.6198 237.146 74.1302 230.036C74.9323 226.25 76.0729 222.901 79.0885 221.26C82.0781 219.635 86.4427 219.953 89.0521 222.38C89.4948 222.791 91.25 224.536 91.6354 229.317C92.2552 237.078 88.1979 239.599 87.9375 246.026C87.8802 247.474 88.0365 248.932 88.3438 250.359C89.0781 253.729 90.7448 256.906 92.9323 259.338C93.2604 259.703 93.5885 260.062 93.9375 260.39C100.318 266.39 111.063 266.958 118.724 262.63C119.255 262.333 119.776 262.005 120.281 261.661C122.12 260.38 123.714 258.765 125.052 256.963C127.542 253.609 129.099 249.583 129.365 245.661C129.896 237.854 125.089 234.823 127.089 226.765C127.5 225.119 128.406 221.698 131.094 219.526C131.516 219.187 131.969 218.869 132.479 218.599C132.724 218.474 133.708 217.989 135.042 217.734H138.115C138.464 217.812 138.823 217.901 139.177 218.036C139.927 218.323 140.719 218.791 141.505 219.552C142.349 220.369 143.193 221.552 143.99 223.265C144.083 223.463 144.177 223.64 144.266 223.849C146.349 228.724 146.099 232.922 145.693 237.718C145.646 238.244 145.604 238.781 145.557 239.323C145.432 240.807 145.313 242.354 145.26 244C145.068 250.083 145.172 257.859 148.505 265.021C150.229 268.724 152.922 271.927 156.177 274.385C158.38 276.047 160.849 277.359 163.448 278.255C164.448 278.599 165.469 278.885 166.5 279.104C168.036 279.422 169.594 279.614 171.161 279.63C172.74 279.646 174.318 279.484 175.865 279.187C183.594 277.724 190.63 272.573 194.109 265.484C195.281 263.099 196.115 260.51 196.708 257.89C197.938 252.442 198.094 246.864 197.969 242.593C197.917 240.776 197.813 239.182 197.714 237.953C197.135 230.781 195.651 226.312 198.641 222.531C200.875 219.708 205.141 217.838 209.313 218.599C213.885 219.437 216.307 223.067 216.578 223.489C219.734 228.369 217.271 233.526 216.453 240.51C216.323 241.672 216.047 244.864 216.255 248.828C216.464 252.708 217.146 257.323 218.891 261.51C220.01 264.192 221.552 266.703 223.698 268.718C225.922 270.802 228.62 272.229 231.516 273.047C238.036 274.88 245.578 273.567 251.031 269.401C258.901 263.385 262.271 252.489 260.354 242.765C259.198 236.916 256.349 231.406 255.979 225.453C255.49 217.458 259.484 210.057 262.302 202.458C272.193 183.364 277.807 161.703 277.807 138.713C277.807 61.9945 215.641 -0.198242 138.943 -0.198242C62.25 -0.198242 0.078125 61.9945 0.078125 138.713C0.078125 160.234 5 180.593 13.7396 198.765C23.5573 219.083 23.8333 233.729 22.026 243.625Z" fill="#F78FB9"/>
</g>
<path d="M10.224 144.473C10.1979 143.926 10.1719 143.385 10.1562 142.838C10.1719 143.385 10.2031 143.926 10.224 144.473Z" fill="#F9ACC0"/>
<path d="M242.911 87.4993C242.604 87.89 242.292 88.2806 241.984 88.666C235.338 96.9681 228.094 104.827 220.078 111.817C213.031 117.952 204.047 124.598 202.021 134.317C200.578 141.234 201.641 148.39 201.687 155.452C201.755 164.807 200.109 170.536 195.526 175.145C188.849 181.854 178.687 181.067 175.906 180.854C172.385 180.577 167.083 180.166 163.479 176.327C160.026 172.65 160.562 167.822 155.661 165.046C152.172 163.067 147.484 162.848 143.969 164.244C139.687 165.947 137.667 169.723 135.484 173.796C132.724 178.952 133.573 180.723 129.979 188.426C128.437 191.718 127.526 193.63 125.588 195.812C124.073 197.52 120.687 201.333 115.87 201.906C104.427 203.265 98.3593 188.473 90.8489 182.734C85.1926 178.411 73.4895 178.854 50.0885 179.744C48.052 179.822 43.3333 180.025 36.8489 179.999C32.4374 179.984 28.026 179.864 23.6145 179.635L23.3958 179.624C19.0676 179.406 15.3905 176.395 14.3072 172.208L14.2916 172.145C12.2291 164.161 11.2864 157.411 10.8124 152.864C10.703 151.796 10.6041 150.723 10.5208 149.65C11.7812 165.786 15.9374 181.072 22.4478 194.984C25.5416 201.562 27.6666 206.979 29.1093 214.156C29.9895 218.557 30.901 223.025 33.0051 226.979C35.1093 230.937 38.6249 234.39 43.0051 235.327C51.4687 237.13 58.8489 229.374 63.0728 221.817C67.2968 214.265 71.0989 205.38 79.1145 202.109C84.4947 199.916 90.8124 200.906 95.9062 203.708C101 206.51 105.01 210.952 108.349 215.713C109.875 217.89 111.536 220.333 114.13 220.895C118.979 221.942 122.062 216.145 124.943 212.104C131.62 202.723 146.13 200.14 155.641 206.624C157.573 207.947 159.328 209.614 160.385 211.702C161.568 214.051 161.797 216.749 162.484 219.291C164.807 227.911 174.943 234.77 182.88 230.682C192.755 225.604 192.615 208.531 203.307 205.551C213.766 202.635 222.771 216.687 233.516 215.135C235.031 214.921 236.417 214.411 237.682 213.676C242.005 211.187 244.969 206.145 246.792 201.275C254.302 181.223 260.958 161.088 260.958 139.265C260.958 115.666 254.76 93.5671 243.979 74.541C246.302 78.6556 245.844 83.7962 242.911 87.4993Z" fill="#F9ACC0"/>
<path d="M226.797 50.9115C225.266 49.2396 223.693 47.6146 222.078 46.0312C223.693 47.6146 225.271 49.2396 226.797 50.9115Z" fill="#F9ACC0"/>
<path d="M237.448 64.1875C239.75 67.4896 241.911 70.901 243.911 74.4219C241.911 70.8958 239.75 67.4896 237.448 64.1875Z" fill="#F9ACC0"/>
<path d="M213.354 38.2285C214.792 39.4056 216.203 40.6035 217.588 41.8379C216.203 40.6035 214.792 39.4004 213.354 38.2285Z" fill="#F9ACC0"/>
<path d="M230.13 54.6875C232.646 57.6615 235.036 60.7448 237.286 63.9479C235.036 60.7448 232.651 57.6615 230.13 54.6875Z" fill="#F9ACC0"/>
<path d="M19.4688 144.245C22.7865 144.245 22.7813 149.401 19.4688 149.401C16.151 149.401 16.1563 144.245 19.4688 144.245ZM22.1302 108.958C23.5313 105.786 26.1615 103.875 28 104.693C29.8437 105.5 30.1979 108.734 28.7969 111.906C27.3958 115.078 24.7656 116.99 22.9271 116.177C21.0833 115.365 20.7292 112.13 22.1302 108.958ZM24.8229 89.1875C24.8281 88.724 24.9427 88.2917 25.1771 87.8906C25.3125 87.7188 25.4427 87.5417 25.5781 87.3698C25.901 87.0469 26.276 86.8281 26.7135 86.7083C26.9427 86.6719 27.1719 86.6458 27.401 86.6146C27.7552 86.599 28.0833 86.6719 28.3906 86.8333C28.7135 86.9375 28.9896 87.1198 29.2188 87.3698C29.474 87.6042 29.651 87.875 29.7552 88.1979C29.9167 88.5052 29.9896 88.8333 29.974 89.1875V89.3385C29.974 89.8073 29.8594 90.2396 29.625 90.6406C29.4896 90.8125 29.3542 90.9896 29.2188 91.1615C28.901 91.4792 28.5208 91.7031 28.0833 91.8229C27.8542 91.8542 27.625 91.8854 27.401 91.9167C27.0469 91.9323 26.7135 91.8542 26.4063 91.6927C26.0885 91.5938 25.8125 91.4115 25.5781 91.1615C25.3281 90.9271 25.151 90.651 25.0469 90.3333C24.8854 90.026 24.8125 89.6979 24.8229 89.3385V89.1875ZM32.7917 131.516C32.2448 134.943 30.1875 137.458 28.2031 137.141C26.2135 136.823 25.0521 133.792 25.599 130.365C26.1458 126.938 28.2031 124.422 30.1875 124.74C32.1771 125.063 33.3438 128.094 32.7917 131.516ZM53.6719 47.5625C72.3073 31.5052 95.0833 27.3906 104.542 38.375C114.005 49.3594 106.568 71.2865 87.9323 87.3438C69.2969 103.406 46.5156 107.521 37.0573 96.5365C27.599 85.5469 35.0365 63.6198 53.6719 47.5625ZM58.375 133.146C56.7188 133.146 56.7188 130.563 58.375 130.563C60.0365 130.563 60.0365 133.146 58.375 133.146ZM47.0052 172.964C45.3438 172.964 45.3438 170.385 47.0052 170.385C48.6615 170.385 48.6615 172.964 47.0052 172.964ZM44.474 114.75C43.9271 118.177 41.8698 120.693 39.8854 120.375C37.8958 120.052 36.7344 117.021 37.2813 113.599C37.8281 110.172 39.8854 107.656 41.8698 107.974C43.8594 108.297 45.0208 111.328 44.474 114.75ZM44.2708 142.724C44.1667 143.047 43.9896 143.323 43.7344 143.557C43.5052 143.807 43.2292 143.984 42.9063 144.089C42.599 144.25 42.2708 144.323 41.9167 144.313H41.7656C41.3021 144.313 40.8698 144.193 40.4635 143.958C40.2917 143.823 40.1198 143.688 39.9427 143.557C39.625 143.234 39.4063 142.854 39.2813 142.417C39.25 142.188 39.2188 141.958 39.1927 141.734C39.1771 141.38 39.25 141.052 39.4115 140.74C39.5156 140.422 39.6927 140.146 39.9427 139.911C40.1771 139.661 40.4531 139.479 40.776 139.38C41.0781 139.219 41.4115 139.141 41.7656 139.156H41.9167C42.3802 139.156 42.8125 139.276 43.2135 139.51C43.3906 139.641 43.5625 139.776 43.7344 139.911C44.0573 140.234 44.276 140.609 44.401 141.052C44.4271 141.276 44.4583 141.505 44.4896 141.734C44.5052 142.089 44.4323 142.422 44.2708 142.724ZM29.6458 161.016C32.9635 161.016 32.9583 166.167 29.6458 166.167C26.3229 166.167 26.3281 161.016 29.6458 161.016ZM214.625 48.8646C221.125 56.0521 227.859 63.6927 229.984 73.151C230.229 74.2292 230.234 75.6615 229.214 76.0938C228.37 76.4479 227.453 75.8073 226.802 75.1615C224.927 73.2969 223.479 71.0521 221.854 68.9688C215.917 61.3281 207.719 55.8281 199.635 50.5156C195.453 47.7708 186.323 37.7135 196.063 36.6146C202.698 35.8594 210.755 44.5781 214.625 48.8646ZM10.224 144.474C10.2448 145.083 10.2656 145.698 10.2969 146.307C10.3437 147.13 10.401 147.958 10.4583 148.776C10.4792 149.073 10.4948 149.365 10.5208 149.651C10.6042 150.729 10.7031 151.797 10.8125 152.865C11.2865 157.411 12.2292 164.161 14.2917 172.146L14.3073 172.208C15.3906 176.401 19.0677 179.406 23.3906 179.625L23.6146 179.635C28.026 179.859 32.4375 179.984 36.849 180C43.3333 180.026 48.0469 179.823 50.0885 179.745C73.4896 178.859 85.1927 178.411 90.849 182.734C98.3594 188.474 104.427 203.266 115.87 201.906C120.688 201.333 124.068 197.526 125.589 195.813C127.526 193.63 128.438 191.724 129.979 188.427C133.573 180.724 132.724 178.953 135.484 173.797C137.667 169.724 139.682 165.953 143.969 164.25C147.484 162.854 152.172 163.068 155.661 165.047C160.563 167.828 160.026 172.646 163.479 176.328C167.083 180.167 172.385 180.578 175.901 180.854C178.688 181.068 188.849 181.859 195.526 175.146C200.109 170.536 201.755 164.807 201.688 155.453C201.641 148.391 200.578 141.234 202.021 134.318C204.047 124.599 213.031 117.958 220.078 111.818C228.089 104.828 235.333 96.9688 241.984 88.6719C242.292 88.2813 242.604 87.8906 242.911 87.5C245.844 83.7969 246.297 78.6563 243.979 74.5417C243.974 74.5365 243.974 74.5313 243.969 74.526L243.932 74.4583C243.922 74.4427 243.917 74.4323 243.911 74.4219C241.911 70.901 239.755 67.4844 237.448 64.1875C237.396 64.1094 237.339 64.0313 237.286 63.9479C235.036 60.75 232.646 57.6615 230.13 54.6927C229.979 54.5104 229.833 54.3333 229.677 54.1563C228.865 53.2031 228.036 52.2656 227.198 51.3385C227.068 51.1979 226.927 51.0573 226.797 50.9115C225.271 49.2396 223.693 47.6146 222.078 46.0313C221.771 45.7396 221.469 45.4323 221.161 45.1406C220.349 44.3542 219.526 43.5833 218.693 42.8229C218.328 42.4896 217.953 42.1719 217.589 41.8385C216.203 40.6042 214.792 39.4063 213.354 38.2344C212.839 37.8177 212.328 37.401 211.813 36.9896C211.036 36.375 210.25 35.7708 209.458 35.1719C208.802 34.6823 208.135 34.2083 207.474 33.724C206.328 32.8958 205.161 32.0885 203.99 31.2969C203.234 30.7865 202.474 30.2865 201.703 29.7917C200.984 29.3333 200.26 28.875 199.536 28.4323C198.573 27.8437 197.599 27.276 196.625 26.7188C195.76 26.2188 194.885 25.7292 194.01 25.2552C192.984 24.6979 191.958 24.1563 190.922 23.6302C190.276 23.3021 189.625 22.9792 188.969 22.6615C187.719 22.0521 186.453 21.4635 185.172 20.8958C184.594 20.6406 184.01 20.3906 183.427 20.1406C182.146 19.5937 180.854 19.0729 179.557 18.5729C178.979 18.349 178.396 18.1302 177.818 17.9115C176.307 17.3594 174.781 16.8229 173.245 16.3281C172.917 16.224 172.589 16.1198 172.255 16.0156C170.745 15.5417 169.219 15.099 167.682 14.6823C167.161 14.5417 166.635 14.401 166.115 14.2656C164.401 13.8229 162.682 13.4063 160.943 13.0417C160.807 13.0104 160.667 12.9844 160.526 12.9583C158.823 12.599 157.109 12.2917 155.38 12.0104C154.891 11.9323 154.401 11.8542 153.911 11.776C152.078 11.5052 150.24 11.25 148.38 11.0573C148.339 11.0521 148.297 11.0521 148.255 11.0469C146.422 10.8594 144.573 10.724 142.714 10.6146C142.234 10.5833 141.755 10.5625 141.271 10.5365C139.37 10.4479 137.458 10.3906 135.536 10.3906C74.9219 10.3906 24.3542 54.5677 12.6563 113.292C10.9844 121.682 10.1094 130.37 10.1094 139.266C10.1094 140.464 10.125 141.651 10.1563 142.839C10.1719 143.385 10.1979 143.932 10.224 144.474Z" fill="#FABDC9"/>
<path d="M43.8593 92.9003C47.1823 92.9003 47.177 98.0514 43.8593 98.0514C40.5416 98.0514 40.5468 92.9003 43.8593 92.9003ZM44.1614 82.8118C45.8177 82.8118 45.8177 85.3847 44.1614 85.3847C42.5 85.3847 42.5052 82.8118 44.1614 82.8118ZM58.7135 90.9576C59.4375 87.567 61.6198 85.1556 63.5885 85.5774C65.5573 85.9993 66.5625 89.0878 65.8385 92.4785C65.1145 95.8691 62.9323 98.2806 60.9635 97.8587C59 97.4368 57.9895 94.3483 58.7135 90.9576ZM63.6145 63.2024C65.276 63.2024 65.2708 65.7753 63.6145 65.7753C61.9531 65.7753 61.9583 63.2024 63.6145 63.2024ZM87.9323 87.3431C106.568 71.2806 114.005 49.3587 104.542 38.3743C95.0833 27.3899 72.3073 31.5045 53.6718 47.5618C35.0364 63.6191 27.5989 85.5462 37.0573 96.5306C46.5156 107.515 69.2968 103.406 87.9323 87.3431Z" fill="#FBCED5"/>
<path d="M60.9635 97.8594C62.9323 98.2813 65.1146 95.8698 65.8385 92.4792C66.5625 89.0886 65.5573 86.0001 63.5885 85.5782C61.6198 85.1563 59.4375 87.5678 58.7135 90.9584C57.9896 94.349 59 97.4376 60.9635 97.8594Z" fill="#FDE8EC"/>
<path d="M63.6145 65.7754C65.2708 65.7754 65.276 63.1973 63.6145 63.1973C61.9583 63.1973 61.953 65.7754 63.6145 65.7754Z" fill="#FDE8EC"/>
<path d="M199.635 50.5155C207.719 55.828 215.917 61.328 221.854 68.9634C223.479 71.0571 224.927 73.2967 226.802 75.1613C227.448 75.8071 228.37 76.4478 229.214 76.0936C230.234 75.6613 230.224 74.229 229.984 73.1509C227.859 63.6926 221.125 56.0571 214.625 48.8696C210.75 44.578 202.698 35.8592 196.057 36.6144C186.323 37.7186 195.453 47.7707 199.635 50.5155Z" fill="#F78FB9"/>
<path d="M22.927 116.177C24.7656 116.989 27.3958 115.078 28.7968 111.906C30.1978 108.734 29.8385 105.505 27.9999 104.693C26.1614 103.875 23.5312 105.792 22.1301 108.958C20.7291 112.13 21.0833 115.364 22.927 116.177Z" fill="#FDE8EC"/>
<path d="M41.8749 107.973C39.8853 107.656 37.828 110.171 37.2811 113.593C36.7343 117.02 37.8957 120.057 39.8853 120.374C41.8697 120.692 43.927 118.176 44.4739 114.749C45.0259 111.322 43.8593 108.291 41.8749 107.973Z" fill="#FDE8EC"/>
<path d="M25.5988 130.364C25.0519 133.786 26.2134 136.822 28.2029 137.14C30.1873 137.458 32.2446 134.942 32.7915 131.515C33.3436 128.093 32.1769 125.057 30.1925 124.739C28.2029 124.421 26.1457 126.937 25.5988 130.364Z" fill="#FDE8EC"/>
<path d="M43.8594 98.0514C47.1771 98.0514 47.1823 92.9004 43.8594 92.9004C40.5469 92.9004 40.5417 98.0514 43.8594 98.0514Z" fill="#FDE8EC"/>
<path d="M43.7342 139.911C43.5623 139.776 43.3904 139.641 43.2133 139.51C42.8123 139.276 42.38 139.156 41.9165 139.156H41.7654C41.4112 139.146 41.0779 139.219 40.7706 139.38C40.4529 139.484 40.1769 139.661 39.9425 139.911C39.6925 140.146 39.5154 140.422 39.4112 140.74C39.2498 141.052 39.1769 141.375 39.1925 141.734C39.2185 141.964 39.2498 142.187 39.281 142.417C39.406 142.854 39.6248 143.234 39.9425 143.557C40.1196 143.687 40.2915 143.823 40.4633 143.958C40.8696 144.193 41.3019 144.307 41.7654 144.307H41.9165C42.2706 144.323 42.5987 144.25 42.906 144.089C43.229 143.984 43.505 143.807 43.7342 143.557C43.9842 143.323 44.1665 143.047 44.2706 142.729C44.4269 142.422 44.505 142.089 44.4894 141.734C44.4581 141.505 44.4269 141.276 44.4008 141.052C44.2758 140.615 44.0571 140.234 43.7342 139.911Z" fill="#FDE8EC"/>
<path d="M29.6458 161.01C26.3333 161.01 26.3228 166.166 29.6458 166.166C32.9583 166.166 32.9635 161.01 29.6458 161.01Z" fill="#FDE8EC"/>
<path d="M19.4687 149.4C22.7813 149.4 22.7865 144.244 19.4687 144.244C16.1563 144.244 16.151 149.4 19.4687 149.4Z" fill="#FDE8EC"/>
<path d="M25.578 91.1611C25.8123 91.4163 26.0884 91.5934 26.4061 91.6924C26.7134 91.8538 27.0467 91.932 27.4009 91.9163C27.6248 91.8851 27.854 91.8538 28.0832 91.8226C28.5207 91.7028 28.9009 91.4841 29.2186 91.1611C29.354 90.9893 29.4894 90.8174 29.6248 90.6403C29.854 90.2393 29.9738 89.807 29.9738 89.3434V89.1872C29.9894 88.833 29.9165 88.5049 29.755 88.1976C29.6509 87.8799 29.4738 87.6038 29.2186 87.3695C28.9894 87.1195 28.7082 86.9372 28.3905 86.8382C28.0832 86.6768 27.755 86.5986 27.4009 86.6143C27.1717 86.6455 26.9425 86.6768 26.7134 86.708C26.2759 86.8278 25.9009 87.0518 25.578 87.3695C25.4425 87.5413 25.3071 87.7184 25.1769 87.8903C24.9425 88.2913 24.828 88.7288 24.8228 89.1872V89.3434C24.8123 89.6976 24.8853 90.0257 25.0467 90.333C25.1509 90.6507 25.328 90.9268 25.578 91.1611Z" fill="#FDE8EC"/>
<path d="M44.1614 85.3848C45.8176 85.3848 45.8228 82.8066 44.1614 82.8066C42.5051 82.8066 42.4999 85.3848 44.1614 85.3848Z" fill="#FDE8EC"/>
<path d="M58.375 130.567C56.7187 130.567 56.7187 133.14 58.375 133.14C60.0365 133.14 60.0365 130.567 58.375 130.567Z" fill="#FDE8EC"/>
<path d="M47.0051 170.385C45.3437 170.385 45.3437 172.958 47.0051 172.958C48.6614 172.958 48.6666 170.385 47.0051 170.385Z" fill="#FAB7D6"/>
<path d="M188 394.188L169.349 429.604L149.859 392.599L168.515 357.177L188 394.188ZM145.203 475.458L125.713 438.453L143.312 405.031L145.203 401.443L154.745 419.568L164.687 438.453L145.203 475.458ZM102.406 394.188L117.172 366.141L121.89 357.177L140.542 392.599L137.88 397.656L121.057 429.604L102.406 394.188ZM82.8488 357.052L97.4686 329.297L102.338 320.047L117.234 348.333L112.281 357.74L97.7446 385.339L82.8488 357.052ZM62.1613 317.766L79.2811 285.255L81.6509 280.76L97.6821 311.203L93.1248 319.859L78.1925 348.208L62.1613 317.766ZM125.651 275.781L140.542 304.068L121.89 339.49L106.995 311.203L125.651 275.781ZM163.854 348.333L145.203 383.755L126.552 348.333L145.203 312.911L163.854 348.333ZM218.89 261.51C217.146 257.318 216.463 252.708 216.255 248.823L208.755 263.073L197.969 242.594C198.099 246.865 197.937 252.443 196.713 257.891L204.094 271.917L188.068 302.359L175.864 279.188C174.318 279.484 172.745 279.646 171.161 279.63C169.594 279.615 168.036 279.422 166.505 279.099L183.406 311.203L168.515 339.49L149.859 304.068L163.453 278.255C160.849 277.359 158.38 276.047 156.177 274.385L145.203 295.224L130.307 266.938L145.203 238.651L145.557 239.323C145.604 238.781 145.651 238.245 145.693 237.719C146.099 232.922 146.349 228.724 144.265 223.849C144.177 223.641 144.083 223.464 143.989 223.266C143.193 221.552 142.349 220.37 141.505 219.552C140.651 219.557 139.802 219.563 138.943 219.563C137.672 219.563 136.406 219.552 135.14 219.547L140.542 229.807L125.651 258.094L125.052 256.964C123.713 258.766 122.12 260.38 120.281 261.661C119.781 262.005 119.26 262.333 118.724 262.63L120.989 266.938L102.338 302.359L86.3071 271.917L92.9321 259.339C90.7446 256.906 89.078 253.729 88.3436 250.359L81.6509 263.073L73.63 247.839C73.8488 250.234 74.078 252.781 74.1821 255.703C74.328 259.792 74.453 263.438 74.2863 266.781L76.9946 271.917L75.63 274.505L57.6978 308.557L61.2082 319.578L72.5832 355.245L73.5363 357.052L73.3019 357.495L76.8175 368.516L78.1925 365.896L93.0884 394.188L88.0519 403.75L91.5623 414.766L97.7446 403.031L116.401 438.453L105.635 458.896L108.687 468.464L109.146 469.911L121.057 447.297L140.542 484.302L123.849 516.01L126.594 524.63L127.359 527.026L145.203 493.146L155.245 512.224L158.76 501.208L149.859 484.302L169.349 447.297L173.463 455.109L176.974 444.089L174.005 438.453L186.094 415.5L200.39 370.656L192.656 385.339L173.172 348.333L188.068 320.047L205.797 353.714L209.307 342.693L192.724 311.203L208.755 280.766L221.401 304.776L224.911 293.755L213.411 271.917L218.89 261.51Z" fill="#F89F46"/>
</svg>
