<svg width="648" height="388" viewBox="0 0 648 388" fill="none" xmlns="http://www.w3.org/2000/svg">
<g clip-path="url(#clip0_775_18215)">
<path fill-rule="evenodd" clip-rule="evenodd" d="M0.474121 176.198L353.125 291.437L644.995 121L326.136 73.2549L0.474121 176.198Z" fill="white"/>
<mask id="mask0_775_18215" style="mask-type:luminance" maskUnits="userSpaceOnUse" x="-3" y="70" width="651" height="225">
<path d="M-2.04688 70.666H647.63V294.666H-2.04688V70.666Z" fill="white"/>
</mask>
<g mask="url(#mask0_775_18215)">
<path d="M353.11 293.754C352.865 293.754 352.625 293.713 352.391 293.64L-0.244629 178.384C-0.723796 178.228 -1.11442 177.952 -1.4113 177.546C-1.70296 177.145 -1.854 176.692 -1.854 176.187C-1.854 175.687 -1.70296 175.233 -1.4113 174.827C-1.11442 174.421 -0.723796 174.145 -0.244629 173.994L325.401 71.0511C325.745 70.9366 326.094 70.9105 326.453 70.9678L645.328 118.697C645.813 118.77 646.235 118.978 646.584 119.322C646.938 119.661 647.162 120.072 647.255 120.551C647.349 121.03 647.297 121.494 647.099 121.937C646.896 122.379 646.584 122.723 646.162 122.968L354.292 293.437C353.922 293.645 353.531 293.754 353.11 293.754ZM8.021 176.254L352.849 288.963L638.172 122.338L326.323 75.6136L8.021 176.254Z" fill="#7F2224"/>
</g>
<path fill-rule="evenodd" clip-rule="evenodd" d="M559.219 203.219C546.745 169.766 547.625 145.563 532.964 112.854C528.844 103.677 524.495 71.3699 531.74 71.6147C551.224 72.2761 590.312 94.6407 617.286 101.359C634.698 105.677 647.604 103.115 641.12 117.328C638.24 123.646 586.771 153.88 570.437 207.292C566.359 220.599 561.292 208.729 559.219 203.219Z" fill="#FFAD01"/>
<path d="M566.146 215.692C562.86 215.692 560.052 212.083 557.042 204.026C551.281 188.729 548.401 175.244 545.521 162.296C542.037 146.468 538.75 131.474 530.818 113.791C527.375 106.119 522.797 78.7964 527.646 71.5725C528.078 70.8485 528.667 70.2808 529.406 69.8746C530.146 69.4683 530.938 69.2756 531.781 69.2964C543.099 69.6871 560.094 76.8381 578.099 84.4214C591.854 90.1767 606.083 96.2079 617.818 99.0985C621.797 100.078 625.583 100.697 628.912 101.255C636.542 102.51 642.057 103.432 644.261 107.546C645.703 110.177 645.328 113.604 643.198 118.281C642.333 120.177 639.537 122.599 633.333 127.703C617.589 140.77 584.839 167.994 572.61 207.953C571.62 211.218 569.86 215.562 566.245 215.677L566.146 215.692ZM561.38 202.411C564.261 210.01 565.958 210.974 566.203 211.046C567.167 209.692 567.839 208.203 568.219 206.583C580.849 165.276 614.307 137.515 630.406 124.151C634.38 120.838 638.5 117.416 639.047 116.349C640.49 113.171 640.891 110.942 640.245 109.703C639.12 107.588 634.068 106.755 628.219 105.791C624.792 105.229 620.917 104.583 616.771 103.557C604.682 100.583 590.281 94.5204 576.354 88.6506C558.771 81.2392 542.151 74.2652 531.708 73.9006C528.453 75.8902 530.761 102.177 535.11 111.89C543.229 130.005 546.63 145.203 550.099 161.286C552.979 174.125 555.86 187.39 561.422 202.385L561.38 202.411Z" fill="#7F2224"/>
<path fill-rule="evenodd" clip-rule="evenodd" d="M26.3543 172.51C58.0366 155.88 100.235 150.843 130.844 132.135C139.485 126.885 170.938 118.453 171.615 125.661C173.459 145.057 156.188 186.656 153.021 214.239C150.974 232.026 155.136 244.458 140.188 239.895C133.547 237.838 78.8491 193.52 23.745 184.14C10.0054 181.807 21.0991 175.276 26.3543 172.51Z" fill="#FFAD01"/>
<path d="M145.49 243.161C143.443 243.099 141.453 242.745 139.511 242.099C137.755 241.552 134.557 239.448 127.485 234.76C107.323 221.39 65.4429 193.578 23.3596 186.427C19.9898 185.849 15.4377 184.672 14.8752 181.104C14.3439 177.807 17.5523 174.526 25.2762 170.469C40.1096 162.672 57.4325 157.333 74.2398 152.166C93.5418 146.208 113.485 140.062 129.677 130.166C136.875 125.776 163.391 117.745 171.182 121.63C171.953 121.974 172.584 122.484 173.084 123.166C173.578 123.849 173.87 124.609 173.964 125.448C175.026 136.713 170.089 154.469 164.86 173.276C160.87 187.661 156.735 202.515 155.354 214.5C154.891 218.557 154.75 222.385 154.636 225.765C154.36 233.495 154.156 239.078 150.313 241.781C148.854 242.771 147.25 243.229 145.49 243.161ZM19.4429 180.443C20.9116 181.229 22.4793 181.708 24.1356 181.88C67.1825 189.203 109.714 217.375 130.037 230.932C135.005 234.229 139.682 237.333 140.88 237.693C144.219 238.729 146.485 238.844 147.636 238.026C149.578 236.588 149.766 231.536 149.969 225.609C150.099 222.156 150.24 218.224 150.729 213.984C152.172 201.635 156.318 186.64 160.365 172.052C165.479 153.661 170.302 136.307 169.323 125.89C166.917 122.927 141.125 128.568 132.037 134.12C115.36 144.323 95.1252 150.552 75.5679 156.583C59.0054 161.693 41.8804 166.974 27.4325 174.568C20.2346 178.338 19.5106 180.198 19.4429 180.453V180.443Z" fill="#7F2224"/>
<path fill-rule="evenodd" clip-rule="evenodd" d="M162.682 145.505C162.682 140.713 173.01 145.015 183.323 145.015C221.344 145.015 245.25 144.223 283.114 155.333C292.057 157.947 264.87 192.296 255.75 198.499C244.948 205.692 235.917 214.666 228.661 225.421C228.531 225.593 200.849 257.739 200.432 245.104C199.87 227.937 162.713 172.671 162.713 145.489L162.682 145.505Z" fill="#FFAD01"/>
<path d="M202.349 250.328C201.984 250.333 201.63 250.286 201.281 250.182C200.146 249.854 198.214 248.745 198.099 245.192C197.87 238.229 190.609 223.364 182.932 207.62C172.365 185.963 160.38 161.416 160.38 145.505C160.359 144.87 160.474 144.265 160.729 143.687C160.979 143.109 161.344 142.609 161.818 142.192C164.011 140.323 167.755 140.885 172.922 141.677C176.37 142.271 179.839 142.609 183.339 142.698H190.365C225.12 142.698 247.974 142.625 283.761 153.114C284.662 153.364 285.417 153.844 286.026 154.552C286.641 155.26 287 156.073 287.12 157C288.557 166.5 264.912 195.047 257.005 200.411C246.443 207.442 237.615 216.208 230.516 226.719C230.359 226.974 210.891 250.328 202.349 250.328ZM164.99 145.677C165.063 160.526 176.755 184.526 187.083 205.651C195.333 222.541 202.448 237.135 202.724 245.078C202.698 245.317 202.698 245.557 202.724 245.797C206.479 245.536 220.365 231.739 226.761 224.026C234.156 213.099 243.354 203.984 254.354 196.687C264.193 190.01 284.599 161.531 282.438 157.62C247.313 147.317 224.641 147.359 190.266 147.401H183.193C179.464 147.317 175.766 146.958 172.089 146.323C169.625 145.833 166.156 145.317 164.99 145.635V145.677Z" fill="#7F2224"/>
<path fill-rule="evenodd" clip-rule="evenodd" d="M310.709 142.036C320.042 138.812 343.516 125.099 343.198 143.677C342.927 160.01 328.021 202.166 323.641 225.692C318.11 255.578 305.469 266.557 282.625 235.062C272.615 221.26 251.459 207.145 238.182 197.375C223.089 186.27 300.63 145.474 310.709 141.979V142.036Z" fill="#FFAD01"/>
<path d="M306.172 256.385C298.797 256.385 290.448 249.838 280.755 236.474C272.443 224.958 256.271 213.318 243.177 203.911C240.917 202.281 238.771 200.745 236.797 199.292C236.276 198.932 235.818 198.505 235.417 198.015C235.016 197.526 234.693 196.989 234.448 196.406C234.198 195.823 234.037 195.219 233.964 194.594C233.886 193.963 233.901 193.338 234.005 192.713C236.641 175.448 303.683 142.036 309.959 139.864C311.401 139.344 313.328 138.542 315.505 137.62C324.146 133.906 335.037 129.286 341.313 133.489C344.193 135.417 345.636 138.854 345.505 143.719C345.344 153.505 340.349 171.318 335.063 190.182C331.464 203.062 327.735 216.385 325.917 226.156C322.578 244.213 316.844 254.271 308.865 256.068C307.979 256.276 307.084 256.38 306.172 256.385ZM311.474 144.224C301.709 147.604 240.584 180.198 238.584 193.406C238.485 193.833 238.526 194.25 238.703 194.651C238.886 195.052 239.167 195.364 239.547 195.578C241.505 197.015 243.641 198.557 245.87 200.167C259.177 209.765 275.74 221.75 284.495 233.765C293.917 246.719 301.979 252.906 307.844 251.578C313.703 250.255 318.443 241.161 321.38 225.333C323.224 215.333 326.985 201.922 330.625 188.943C335.594 171.187 340.709 152.828 340.88 143.646C340.938 140.443 340.224 138.333 338.735 137.318C334.558 134.51 324.177 138.927 317.318 141.864C315.058 142.828 313.115 143.646 311.474 144.224Z" fill="#7F2224"/>
<path fill-rule="evenodd" clip-rule="evenodd" d="M421.245 269.593C405.287 270.802 399.297 242.416 394.974 230.573C392.932 224.974 372.438 139.333 380.875 141.088C401.573 145.401 433.459 169.75 468.339 176.296C491.386 180.614 508.047 188.354 480.943 211.39C468.339 222.099 420.886 251.479 421.979 267.854C422.052 268.906 422.151 269.526 421.245 269.593Z" fill="#FFAD01"/>
<path d="M420.224 271.943C405.823 271.943 399.281 251.495 394.948 237.839C394.172 235.391 393.505 233.177 392.802 231.349C392.526 230.589 371.125 147.979 378.083 139.948C378.484 139.474 378.974 139.141 379.562 138.938C380.146 138.734 380.745 138.698 381.349 138.828C390.484 140.74 401.328 146.208 413.885 152.552C430.39 160.901 449.099 170.339 468.76 174.037C481.359 176.396 494.536 180.011 496.901 188.875C498.64 195.448 493.916 203.391 482.5 213.146C479.531 215.667 474.708 219.177 469.12 223.219C452.094 235.61 423.594 256.313 424.344 267.682C424.573 270.964 422.901 271.755 421.463 271.87L420.224 271.943ZM381.338 143.563C378.713 152.974 394.068 221.38 397.177 229.781C397.87 231.651 398.62 233.927 399.396 236.443C403.245 248.557 408.974 266.662 419.719 267.307C419.875 254.36 441.87 237.349 466.38 219.505C471.896 215.505 476.651 212.042 479.489 209.636C489.193 201.375 493.687 194.615 492.448 190.068C490.521 182.875 473.51 179.62 467.963 178.557C447.656 174.745 428.635 165.13 411.87 156.672C399.989 150.714 389.719 145.521 381.349 143.563H381.338Z" fill="#7F2224"/>
<path fill-rule="evenodd" clip-rule="evenodd" d="M485.12 207.75C503.844 211.536 559.016 220.89 578.833 216.213C590.052 213.562 548.719 137.073 546.557 128.755C544.729 121.734 537.802 104.838 530.818 102.953C519.151 99.7913 470.703 204.843 485.12 207.75Z" fill="#FFAD01"/>
<path d="M563.885 219.807C533.755 219.807 485.26 210.124 484.672 210.01C483.682 209.796 482.823 209.338 482.099 208.624C481.375 207.916 480.901 207.067 480.667 206.083C475.698 190.255 508.75 119.864 523.542 104.526C525.489 102.51 528.427 99.9162 531.422 100.723C540.453 103.171 547.521 123.317 548.792 128.166C549.338 130.234 553.109 138.062 557.432 147.13C573.276 180.223 586.078 208.296 582.391 215.968C582.114 216.598 581.708 217.135 581.177 217.572C580.646 218.015 580.042 218.307 579.364 218.458C574.255 219.473 569.094 219.927 563.885 219.807ZM530.255 105.187C527.693 105.187 518.271 116.885 505.557 142.911C494.338 165.848 486.057 188.697 484.948 199.734C484.484 204.312 485.364 205.489 485.625 205.489C504.937 209.374 559.234 218.442 578.344 213.968C582.031 209.234 561.146 165.562 553.286 149.114C548 138.078 544.989 131.703 544.37 129.328C542.052 120.624 535.266 106.552 530.255 105.187Z" fill="#7F2224"/>
<path fill-rule="evenodd" clip-rule="evenodd" d="M291.094 228.729C331.651 211.666 344.672 210.901 386.146 202.067C406.542 197.75 402.87 220.052 394.786 233.437C389.245 242.661 356.088 292.432 349.104 294.604C331.953 300.015 338.432 303.739 322.505 288.172C314.151 280.015 276.906 234.687 291.094 228.729Z" fill="#FFAD01"/>
<path d="M335.682 301.568C332.688 301.568 330.5 299.38 325.328 294.213L320.875 289.812C314.297 283.365 283.042 246.458 285.781 232.141C285.979 230.896 286.474 229.776 287.261 228.792C288.047 227.802 289.026 227.073 290.203 226.599C323.813 212.458 338.839 209.406 366.084 203.854C371.917 202.672 378.344 201.365 385.63 199.807C394.599 197.896 398.953 200.932 401.011 203.838C406.11 210.958 402.724 224.713 396.761 234.63C394.042 239.161 358.438 294.088 349.797 296.807C346.974 297.698 344.209 298.74 341.5 299.927C339.667 300.849 337.729 301.396 335.682 301.568ZM390.886 203.807C389.427 203.828 387.985 204 386.563 204.328C379.25 205.88 372.823 207.203 366.979 208.385C340.016 213.865 325.214 216.891 291.959 230.859C291.5 231.031 291.12 231.307 290.818 231.693C290.516 232.078 290.339 232.516 290.287 233.005C288.287 243.479 314.552 277.193 324.089 286.516C325.834 288.213 327.302 289.698 328.568 290.948C331.969 294.344 334.011 296.401 335.266 296.875C336.016 297.167 336.818 296.875 339.656 295.682C342.505 294.432 345.417 293.338 348.386 292.401C353.932 290.516 384.677 245.724 392.771 232.24C397.912 223.724 400.979 211.766 397.224 206.516C396.459 205.562 395.516 204.844 394.396 204.365C393.271 203.885 392.104 203.703 390.886 203.807Z" fill="#7F2224"/>
<path fill-rule="evenodd" clip-rule="evenodd" d="M343.271 220.646C330.802 187.187 331.677 162.984 317.016 130.297C312.896 121.114 308.547 88.8123 315.792 89.057C335.281 89.7029 374.365 112.078 401.344 118.781C418.755 123.099 431.656 120.552 425.177 134.771C422.297 141.088 370.823 171.317 354.49 224.713C350.417 238.026 345.344 226.156 343.271 220.646Z" fill="#FFAD01"/>
<path d="M350.229 233.119C346.943 233.119 344.135 229.505 341.125 221.447C335.364 206.156 332.484 192.671 329.604 179.718C326.12 163.89 322.833 148.901 314.901 131.213C311.458 123.546 306.864 96.2183 311.729 88.9996C312.167 88.2756 312.755 87.7131 313.495 87.3069C314.229 86.9006 315.021 86.7079 315.864 86.7235C327.187 87.1142 344.177 94.2652 362.182 101.849C375.937 107.604 390.167 113.63 401.901 116.526C405.88 117.515 409.651 118.135 412.995 118.682C420.625 119.947 426.141 120.854 428.344 124.968C429.786 127.619 429.411 131.026 427.281 135.703C426.417 137.619 423.62 140.02 417.417 145.13C401.672 158.208 368.922 185.421 356.693 225.38C355.703 228.645 353.943 233.005 350.328 233.104L350.229 233.119ZM345.463 219.838C348.344 227.437 350.042 228.401 350.286 228.474C351.245 227.109 351.917 225.614 352.302 223.994C364.932 182.697 398.391 154.927 414.489 141.562C418.463 138.25 422.583 134.828 423.13 133.76C424.573 130.583 424.974 128.354 424.328 127.114C423.203 125.015 418.151 124.234 412.302 123.213C408.875 122.64 405 122.005 400.854 120.984C388.771 118.005 374.364 111.932 360.453 106.078C342.854 98.6662 326.234 91.6871 315.807 91.3121C312.536 93.3121 314.859 119.604 319.208 129.302C327.328 147.416 330.729 162.614 334.198 178.713C337.078 191.536 339.958 204.802 345.521 219.796L345.463 219.838Z" fill="#7F2224"/>
<path fill-rule="evenodd" clip-rule="evenodd" d="M378.844 118.854C410.531 102.234 452.745 97.1874 483.333 78.479C491.974 73.229 523.427 64.8072 524.12 72.0207C525.932 91.3592 508.651 133 505.51 160.583C503.469 178.385 507.63 190.802 492.693 186.239C486.057 184.198 431.344 139.864 376.24 130.495C362.5 128.167 373.589 121.63 378.844 118.854Z" fill="#FFAD01"/>
<path d="M497.979 189.505C495.933 189.453 493.943 189.099 492.005 188.442C490.245 187.906 487.047 185.807 479.979 181.114C459.813 167.75 417.933 139.937 375.849 132.771C372.479 132.192 367.927 131.026 367.365 127.458C366.834 124.166 370.047 120.885 377.782 116.828C392.599 109.026 409.927 103.687 426.745 98.5102C446.047 92.5675 465.995 86.4216 482.183 76.5206C489.38 72.1352 515.896 64.0883 523.688 67.9893C524.459 68.3331 525.094 68.8435 525.589 69.5258C526.084 70.2029 526.38 70.9633 526.469 71.8018C527.532 83.057 522.594 100.828 517.365 119.62C513.375 134.005 509.24 148.854 507.86 160.843C507.401 164.916 507.271 168.745 507.141 172.125C506.865 179.849 506.667 185.422 502.818 188.125C501.354 189.114 499.745 189.573 497.979 189.505ZM371.948 126.781C373.412 127.573 374.974 128.052 376.625 128.224C419.677 135.547 462.136 163.718 482.542 177.276C486.016 179.75 489.625 182 493.37 184.036C496.714 185.073 498.99 185.177 500.125 184.37C502.068 182.932 502.255 177.88 502.459 171.953C502.589 168.5 502.735 164.567 503.224 160.323C504.662 147.979 508.813 132.984 512.86 118.396C517.969 100.005 522.797 82.6352 521.818 72.2341C519.422 69.2549 493.615 74.8956 484.542 80.4529C467.849 90.6508 447.615 96.8956 428 102.87C411.438 107.979 394.313 113.255 379.87 120.838C372.667 124.609 371.948 126.468 371.875 126.724L371.948 126.781Z" fill="#7F2224"/>
<path fill-rule="evenodd" clip-rule="evenodd" d="M147.156 85.8016C147.156 81.01 157.469 85.3016 167.797 85.3016C205.818 85.3016 229.797 84.5204 267.589 95.6141C276.521 98.2496 249.328 132.599 240.224 138.786C229.427 145.984 220.391 154.958 213.12 165.708C213.005 165.895 185.313 198.026 184.906 185.39C184.26 168.255 147.156 112.942 147.156 85.8016Z" fill="#FFAD01"/>
<path d="M186.792 190.641C186.422 190.646 186.057 190.599 185.698 190.5C184.562 190.167 182.63 189.057 182.516 185.505C182.286 178.542 175.026 163.677 167.349 147.938C156.766 126.281 144.781 101.719 144.781 85.8178C144.76 85.1875 144.875 84.5782 145.125 84C145.38 83.4219 145.745 82.9219 146.224 82.5105C148.396 80.625 152.141 81.198 157.328 81.974C160.771 82.5834 164.245 82.9271 167.74 83.0105H174.781C209.505 83.0105 232.391 82.9271 268.182 93.4271C269.078 93.6823 269.833 94.1615 270.443 94.8646C271.057 95.573 271.417 96.3907 271.536 97.3125C272.974 106.797 249.344 135.359 241.437 140.729C230.875 147.755 222.047 156.521 214.948 167.031C214.849 167.26 195.406 190.641 186.792 190.641ZM149.406 85.9896C149.479 100.839 161.172 124.839 171.5 145.948C179.75 162.859 186.865 177.448 187.125 185.391C187.125 185.635 187.156 185.875 187.214 186.109C190.969 185.849 204.854 172.052 211.234 164.323C218.635 153.396 227.839 144.287 238.844 136.984C248.667 130.307 269.089 101.818 266.927 97.9063C231.802 87.6146 209.115 87.6303 174.755 87.6875H167.698C163.969 87.6094 160.266 87.2448 156.594 86.5938C154.042 86.1355 150.557 85.6042 149.406 85.9323V85.9896Z" fill="#7F2224"/>
<path fill-rule="evenodd" clip-rule="evenodd" d="M290.187 70.505C299.521 67.2863 322.979 53.5727 322.661 72.1456C322.39 88.479 307.484 130.64 303.12 154.166C297.588 184.052 284.943 195.031 262.088 163.531C252.005 149.734 230.922 135.62 217.64 125.849C202.547 114.739 280.088 73.9477 290.187 70.4477V70.505Z" fill="#FFAD01"/>
<path d="M285.635 184.885C278.26 184.885 269.922 178.338 260.213 164.974C251.906 153.463 235.729 141.818 222.625 132.411C220.38 130.781 218.234 129.245 216.276 127.792C215.75 127.432 215.286 127.01 214.885 126.521C214.484 126.031 214.161 125.495 213.911 124.911C213.667 124.328 213.505 123.724 213.432 123.094C213.359 122.463 213.375 121.838 213.479 121.213C216.104 103.948 283.146 70.5363 289.422 68.3644C290.865 67.8436 292.792 67.0415 294.969 66.1196C303.682 62.4061 314.51 57.7863 320.776 61.9894C323.656 63.9165 325.099 67.354 324.969 72.2186C324.807 82.0051 319.812 99.8176 314.542 118.682C310.927 131.63 307.193 144.885 305.38 154.656C302.036 172.698 296.307 182.771 288.328 184.573C287.443 184.776 286.547 184.885 285.635 184.885ZM314.552 64.9269C309.526 64.9269 302.099 68.0884 296.781 70.3644C294.521 71.328 292.578 72.1457 290.937 72.7238C281.172 76.104 220.047 108.698 218.047 121.906C217.953 122.333 218 122.75 218.177 123.146C218.354 123.547 218.63 123.859 219.01 124.078C220.969 125.515 223.099 127.057 225.333 128.667C238.641 138.265 255.219 150.25 263.958 162.265C273.38 175.219 281.443 181.406 287.307 180.083C293.167 178.755 297.922 169.661 300.844 153.833C302.687 143.833 306.448 130.422 310.088 117.443C315.057 99.6874 320.172 81.328 320.359 72.1457C320.359 68.9374 319.682 66.8228 318.198 65.8176C317.078 65.1405 315.865 64.8332 314.552 64.8957V64.9269Z" fill="#7F2224"/>
<path fill-rule="evenodd" clip-rule="evenodd" d="M349.536 170.499C333.578 171.718 327.589 143.317 323.266 131.473C321.224 125.89 300.729 40.2338 309.167 42.0046C329.849 46.3171 361.75 70.6661 396.63 77.213C419.677 81.5307 436.339 89.2546 409.234 112.291C396.62 123.015 349.177 152.38 350.271 168.755C350.344 169.807 350.443 170.427 349.536 170.499Z" fill="#FFAD01"/>
<path d="M348.516 172.812C334.115 172.812 327.573 152.37 323.24 138.713C322.464 136.281 321.797 134.052 321.094 132.24C320.818 131.474 299.417 48.7812 306.375 40.8229C306.771 40.3489 307.266 40.0104 307.854 39.8124C308.443 39.6145 309.037 39.5781 309.646 39.7135C318.761 41.6145 329.62 47.0989 342.177 53.4426C358.682 61.7708 377.391 71.2135 397.052 74.9114C409.636 77.2708 422.828 80.8801 425.193 89.7604C426.932 96.3385 422.208 104.266 410.792 114.021C407.823 116.552 403 120.062 397.412 124.094C380.37 136.484 351.886 157.187 352.636 168.557C352.865 171.849 351.193 172.625 349.755 172.745L348.516 172.812ZM309.63 44.4322C307.005 53.8437 322.36 122.25 325.469 130.656C326.162 132.526 326.912 134.812 327.688 137.318C331.537 149.448 337.266 167.531 347.995 168.182C348.167 155.229 370.162 138.224 394.672 120.396C400.188 116.38 404.943 112.911 407.781 110.51C417.485 102.266 421.979 95.4895 420.74 90.9426C418.813 83.7447 401.802 80.4947 396.255 79.427C375.953 75.6145 356.927 66.0208 340.162 57.5416C328.281 51.5885 318.011 46.4062 309.646 44.4322H309.63Z" fill="#7F2224"/>
<path fill-rule="evenodd" clip-rule="evenodd" d="M387.255 115.155C405.979 118.942 461.151 128.296 480.958 123.629C492.187 120.984 450.854 44.4888 448.698 36.1606C446.854 29.1398 439.927 12.2596 432.953 10.3585C421.286 7.2075 372.839 112.265 387.255 115.155Z" fill="#FFAD01"/>
<path d="M466.005 127.213C435.891 127.213 387.385 117.546 386.797 117.432C385.812 117.208 384.958 116.744 384.239 116.036C383.521 115.328 383.042 114.484 382.807 113.499C377.838 97.6714 410.891 27.2807 425.682 11.9266C427.625 9.91616 430.562 7.32241 433.557 8.1297C442.588 10.5776 449.661 30.7235 450.927 35.5828C451.463 37.6401 455.25 45.4682 459.568 54.536C475.411 87.6297 488.229 115.703 484.542 123.385C484.26 124.015 483.854 124.546 483.323 124.984C482.792 125.421 482.187 125.718 481.516 125.874C476.396 126.89 471.229 127.338 466.005 127.213ZM432.323 12.5932C429.755 12.5932 420.323 24.3016 407.604 50.3172C396.401 73.3432 388.12 96.1037 387.01 107.156C386.552 111.718 387.427 112.911 387.672 112.911C406.989 116.796 461.281 125.864 480.396 121.385C484.094 116.666 463.213 72.9839 455.349 56.5516C450.062 45.4995 447.042 39.1401 446.422 36.7651C444.187 28.0464 437.406 13.9578 432.323 12.5932Z" fill="#7F2224"/>
<path fill-rule="evenodd" clip-rule="evenodd" d="M343.922 162.958C384.49 145.906 397.495 145.146 438.974 136.297C459.37 131.979 455.693 154.297 447.615 167.677C442.073 176.885 408.917 226.672 401.932 228.843C384.781 234.255 391.26 237.984 375.333 222.401C366.995 214.239 329.734 168.927 343.922 162.958Z" fill="#FFAD01"/>
<path d="M388.526 235.812C385.516 235.812 383.323 233.609 378.156 228.458C376.901 227.202 375.448 225.739 373.719 224.051C367.12 217.609 335.886 180.697 338.604 166.369C338.807 165.124 339.302 164.01 340.089 163.025C340.88 162.041 341.859 161.312 343.026 160.843C376.641 146.697 391.651 143.577 418.896 138.093C424.745 136.9 431.167 135.603 438.469 134.036C447.443 132.119 451.776 135.171 453.854 138.062C458.938 145.26 455.568 158.958 449.604 168.869C446.865 173.406 411.266 228.327 402.625 231.046C399.807 231.942 397.042 232.978 394.328 234.156C392.5 235.083 390.568 235.635 388.526 235.812ZM443.714 138.051C442.255 138.067 440.813 138.234 439.391 138.551C432.078 140.109 425.636 141.432 419.776 142.609C392.828 148.109 378.011 151.13 344.787 165.088C344.323 165.255 343.943 165.536 343.641 165.921C343.333 166.307 343.156 166.744 343.099 167.228C341.109 177.708 367.365 211.432 376.901 220.76C378.646 222.458 380.115 223.926 381.38 225.192C384.781 228.588 386.839 230.63 388.078 231.103C388.828 231.406 389.63 231.103 392.484 229.911C395.333 228.671 398.24 227.583 401.198 226.645C406.745 224.76 437.49 179.963 445.599 166.484C450.724 157.963 453.792 146.005 450.037 140.739C449.271 139.796 448.328 139.083 447.208 138.609C446.089 138.13 444.927 137.947 443.714 138.051Z" fill="#7F2224"/>
<path fill-rule="evenodd" clip-rule="evenodd" d="M158.146 213.667C155.052 202.297 140.594 173.292 162.714 175.162C182.141 176.802 231.183 197.912 258.933 205.005C294.089 213.979 306.156 229.896 266.797 254.547C249.516 265.339 231.037 289.38 218.318 304.391C203.917 321.438 161.505 225.938 158.146 213.667Z" fill="#FFAD01"/>
<path d="M214.286 308.76C213.667 308.76 213.057 308.687 212.458 308.547C193.391 304.333 158.766 224.745 155.917 214.297C155.427 212.469 154.62 210.156 153.682 207.495C149.995 196.932 145.401 183.807 150.802 176.885C153.224 173.765 157.313 172.411 162.927 172.885C174.453 173.864 195.318 181.219 217.339 189C232.422 194.338 248 199.854 259.536 202.786C280.578 208.167 292 215.739 293.469 225.12C294.938 234.5 286.641 244.89 268.052 256.531C253.646 265.536 238.396 283.87 226.125 298.703C224.01 301.25 222.005 303.682 220.12 305.901C219.417 306.797 218.552 307.495 217.531 307.995C216.505 308.5 215.427 308.755 214.286 308.76ZM160.771 177.406C157.745 177.406 155.615 178.182 154.417 179.708C150.589 184.656 155.078 197.479 158.047 205.969C158.995 208.713 159.833 211.104 160.38 213.073C163.635 225.005 197.823 300.573 213.453 304.042C214.036 304.203 214.615 304.177 215.182 303.974C215.755 303.765 216.214 303.417 216.563 302.922C218.432 300.703 220.438 298.302 222.542 295.724C235.026 280.703 250.568 261.984 265.573 252.557C281.964 242.302 290.057 233.031 288.875 225.781C287.693 218.531 277.182 212.01 258.359 207.203C246.62 204.213 230.995 198.656 215.771 193.302C194.99 185.953 173.5 178.354 162.484 177.474C161.906 177.432 161.318 177.406 160.771 177.406Z" fill="#7F2224"/>
<path fill-rule="evenodd" clip-rule="evenodd" d="M351.453 264.255C358.656 269.339 619.906 132.005 644.995 121C644.896 123.26 593.349 253.38 590.615 255.021C538.766 286.505 405.766 363.24 353.443 385.271C338.375 391.615 34.8231 299.063 34.6043 298.286C26.9585 263.406 10.2085 216.542 0.474121 176.255C4.50537 174.068 343.245 258.5 351.453 264.313V264.255Z" fill="#DE2926"/>
<mask id="mask1_775_18215" style="mask-type:luminance" maskUnits="userSpaceOnUse" x="-3" y="118" width="651" height="270">
<path d="M-2.04688 118.666H647.63V387.999H-2.04688V118.666Z" fill="white"/>
</mask>
<g mask="url(#mask1_775_18215)">
<path d="M351.354 387.776C315.781 387.776 35.8438 301.526 33.5678 300.343C32.9271 300.005 32.5209 299.479 32.3438 298.776C28.3855 280.718 22.0626 259.698 15.349 237.437C9.22922 217.146 2.92193 196.182 -1.77078 176.713C-1.89057 176.208 -1.8489 175.718 -1.63536 175.239C-1.42703 174.765 -1.09369 174.401 -0.635361 174.151C0.557347 173.505 1.58339 172.942 56.3959 185.953C88.224 193.505 130.323 203.807 174.943 214.974C203.026 221.995 341.198 256.703 352.276 262.067C363.25 261.651 490.318 196.802 566.417 157.937C605.391 138.052 636.182 122.338 644.063 118.87C644.24 118.791 644.427 118.739 644.62 118.708C644.813 118.677 645.01 118.672 645.203 118.687C645.401 118.708 645.589 118.75 645.776 118.817C645.958 118.885 646.13 118.974 646.292 119.083C646.453 119.192 646.599 119.323 646.729 119.468C646.859 119.62 646.969 119.781 647.057 119.953C647.146 120.13 647.208 120.312 647.25 120.505C647.292 120.698 647.307 120.89 647.302 121.083C647.302 122.135 596.375 254.198 591.807 256.974C536.693 290.458 406.193 365.541 354.333 387.385C353.365 387.698 352.37 387.828 351.354 387.776ZM36.5938 296.562C46.099 299.739 117.245 321.541 191.057 342.791C328.307 382.349 349.724 384.192 352.547 383.083C404.078 361.385 533.839 286.677 589.057 253.192C593.307 246.385 632.266 148.729 641.021 125.343C628.912 131.187 601.688 145.088 568.521 162.01C525.891 183.765 472.833 210.859 430.162 231.88C354.807 269.021 352.099 267.468 350.141 266.099C340.276 260.343 37.4271 184.166 3.48443 178.713C8.04693 197.161 13.9948 216.916 19.7709 236.052C26.3542 257.968 32.5782 278.63 36.5938 296.562Z" fill="#7F2224"/>
</g>
<path fill-rule="evenodd" clip-rule="evenodd" d="M240.255 163.448C238.453 183.594 238.583 202.516 253.661 212.297C274.792 226.026 322.156 227.854 346.729 213.219C364.01 202.932 363.422 184.083 362.99 157.406L240.255 163.448Z" fill="white"/>
<path d="M301.823 225.765C282.536 225.765 263.583 221.448 252.396 214.255C235.833 203.505 236.25 182.297 237.995 163.276C238.016 162.995 238.088 162.729 238.208 162.479C238.328 162.224 238.49 162.005 238.687 161.807C238.891 161.614 239.12 161.463 239.375 161.354C239.635 161.245 239.901 161.187 240.182 161.172L362.932 155.13C363.583 155.094 364.141 155.302 364.615 155.75C365.094 156.198 365.339 156.75 365.349 157.401V158.625C365.781 185.203 366.083 204.411 347.937 215.219C335.625 222.515 318.542 225.765 301.823 225.765ZM242.385 165.651C240.63 187.161 242.297 202.167 254.917 210.354C274.344 222.974 320.906 225.911 345.547 211.234C361.161 201.937 361.13 185.146 360.729 159.833L242.385 165.651Z" fill="#7F2224"/>
<path fill-rule="evenodd" clip-rule="evenodd" d="M362.958 155.39C361.089 131.775 240.974 126.754 240.083 161.145C239.229 193.978 365.984 193.692 362.958 155.39Z" fill="white"/>
<path d="M297.979 187.161C279.255 187.161 260.807 184.026 249.401 177.578C239.578 172.036 237.662 165.521 237.776 161.031C238.25 142.437 268.485 135.016 296.594 134.266C324.349 133.505 364.011 139.531 365.266 155.203C365.87 162.958 361.766 169.88 353.37 175.229C340.995 183.115 319.276 187.161 297.979 187.161ZM301.896 138.812C300.182 138.812 298.453 138.812 296.724 138.812C271.912 139.474 242.787 145.693 242.401 161.073C242.271 165.776 245.396 169.953 251.662 173.49C274.906 186.615 328.682 185.406 350.875 171.26C357.849 166.828 361.13 161.521 360.656 155.432C359.922 146.297 333.031 138.844 301.896 138.844V138.812Z" fill="#7F2224"/>
<path fill-rule="evenodd" clip-rule="evenodd" d="M255.995 155.62C269.719 151.531 269.073 131.286 292.391 140.526C310.016 147.521 318.182 129.203 345.547 151.448C348.141 153.562 366.547 155.13 359.505 168.109C357.49 171.823 344.583 176.916 340.505 178.729C323.51 186.338 250.323 189.39 242.271 168.427C240.917 164.927 244.026 159.187 255.995 155.62Z" fill="#DE2926"/>
<path d="M296.266 186.745C280.422 186.745 264.146 184.99 253.13 180.443C246.245 177.563 241.865 173.839 240.167 169.261C239.812 168.266 239.672 167.24 239.75 166.182C239.828 165.13 240.115 164.136 240.615 163.203C242.052 160.323 245.755 156.281 255.391 153.401C259.714 152.11 262.49 148.87 265.474 145.432C270.875 139.089 276.995 131.891 293.354 138.38C299.432 140.797 304.172 139.906 309.656 138.886C318.875 137.156 329.333 135.188 347.104 149.662C348.036 150.089 349 150.443 349.984 150.729C354.302 152.167 360.786 154.24 362.844 159.36C363.995 162.24 363.578 165.531 361.604 169.172C359.635 172.813 351.656 176.443 343.62 179.896L341.531 180.802C334.068 184.141 315.531 186.745 296.266 186.745ZM256.615 157.833C247.828 160.453 245.323 163.88 244.661 165.229C244.229 165.985 244.13 166.771 244.375 167.604C245.667 170.958 249.198 173.839 254.859 176.24C277.901 185.735 327 182.297 339.526 176.688L341.687 175.75C345.245 174.224 356.089 169.563 357.427 167.115C358.771 164.672 359.057 162.802 358.437 161.219C357.182 158.052 351.927 156.354 348.443 155.219C346.87 154.844 345.406 154.219 344.052 153.344C327.922 140.224 318.974 141.833 310.349 143.516C304.677 144.583 298.828 145.677 291.495 142.771C278.203 137.505 274.068 142.365 268.844 148.526C265.76 152.151 262.26 156.25 256.615 157.948V157.833Z" fill="#7F2224"/>
<path d="M270.5 168.614C266.984 168.614 262.13 168.208 258.833 166.255C253.906 163.374 251.385 164.338 249.557 165.046C248.864 165.463 248.109 165.666 247.297 165.65C246.489 165.635 245.745 165.4 245.062 164.958C244.849 164.786 244.672 164.583 244.531 164.348C244.39 164.114 244.297 163.864 244.245 163.593C244.192 163.328 244.187 163.057 244.229 162.786C244.276 162.515 244.364 162.26 244.495 162.025C244.63 161.786 244.802 161.578 245.01 161.4C245.219 161.218 245.448 161.083 245.703 160.984C245.958 160.89 246.224 160.843 246.5 160.838C246.771 160.838 247.036 160.88 247.297 160.973L247.875 160.755C250.135 159.88 254.323 158.223 261.192 162.281C264.073 163.994 269.833 164.208 273.838 163.864C274.146 163.833 274.442 163.864 274.739 163.958C275.031 164.046 275.297 164.192 275.531 164.39C275.765 164.588 275.953 164.822 276.088 165.093C276.229 165.369 276.307 165.661 276.333 165.963C276.359 166.27 276.323 166.567 276.229 166.859C276.14 167.15 275.995 167.416 275.797 167.65C275.599 167.885 275.364 168.072 275.094 168.213C274.823 168.359 274.531 168.442 274.229 168.468C273.463 168.525 272.125 168.614 270.5 168.614ZM307.942 165.588C306 165.52 304.083 165.275 302.182 164.859C301.036 164.604 299.88 164.442 298.713 164.369C298.422 164.343 298.146 164.27 297.88 164.14C297.62 164.015 297.39 163.843 297.192 163.63C296.995 163.416 296.844 163.171 296.734 162.9C296.63 162.63 296.578 162.348 296.578 162.057C296.578 161.765 296.63 161.484 296.734 161.213C296.844 160.942 296.995 160.697 297.192 160.484C297.39 160.27 297.62 160.104 297.88 159.973C298.146 159.848 298.422 159.77 298.713 159.749C300.172 159.812 301.609 160.005 303.031 160.322C305.192 160.729 308.791 161.416 309.817 160.583C316.271 155.145 320.213 155.979 325.213 157.057C326.651 157.359 328.192 157.692 329.995 157.921C330.396 157.619 331.114 156.984 331.666 156.484C334.875 153.604 340.307 148.796 346.771 151.458C347.057 151.578 347.307 151.744 347.521 151.963C347.739 152.177 347.906 152.427 348.026 152.713C348.146 152.994 348.203 153.291 348.208 153.593C348.208 153.9 348.156 154.197 348.041 154.484C347.922 154.765 347.755 155.015 347.541 155.229C347.323 155.447 347.078 155.614 346.791 155.734C346.51 155.848 346.219 155.906 345.911 155.906C345.604 155.911 345.312 155.848 345.031 155.734C341.484 154.296 338.146 156.9 334.734 159.937C332.844 161.619 331.594 162.739 329.963 162.541C328.026 162.317 326.104 161.989 324.203 161.546C319.583 160.557 317.479 160.109 312.755 164.093C311.333 165.182 309.729 165.682 307.942 165.588Z" fill="#7F2224"/>
<path fill-rule="evenodd" clip-rule="evenodd" d="M402.193 56.3747C403.63 75.9007 437.75 51.4424 441.396 73.9632C442.328 79.7184 443.25 94.0049 449.115 95.3122C457.61 97.1976 456.458 94.8695 457.854 85.8591C459.714 73.9476 455.854 68.9268 460.735 57.4268C462.667 52.8955 455.87 26.9684 452.87 22.2028C448.365 15.0101 440.818 3.05176 431.5 3.05176C421.146 3.05176 418.886 15.7132 412.083 26.7809C406.771 35.4111 401.714 50.3174 402.146 56.3747H402.193Z" fill="#DE2926"/>
<mask id="mask2_775_18215" style="mask-type:luminance" maskUnits="userSpaceOnUse" x="399" y="0" width="65" height="99">
<path d="M399.667 0.208008H463.667V98.6663H399.667V0.208008Z" fill="white"/>
</mask>
<g mask="url(#mask2_775_18215)">
<path d="M453.302 98.2188C451.718 98.1667 450.161 97.9479 448.625 97.5573C442.041 96.1198 440.588 85.2292 439.536 77.2865C439.39 76.1615 439.25 75.1563 439.119 74.3229C437.677 65.4271 430.979 65.4115 420.135 66.4479C413.567 67.0677 407.359 67.6719 403.359 64.2917C402.27 63.2969 401.422 62.125 400.823 60.7813C400.224 59.4323 399.916 58.026 399.901 56.5521C399.385 49.4688 405.099 33.8177 410.156 25.5729C411.942 22.6927 413.411 19.6302 414.838 16.6927C418.797 8.48958 422.557 0.75 431.541 0.75C442.14 0.75 450.109 13.4115 454.859 20.9792C457.739 25.5 465.416 52.4479 462.895 58.3906C460.145 64.8073 460.333 68.8698 460.578 73.9896C460.875 78.1042 460.724 82.1979 460.13 86.276C459.942 87.5469 459.802 88.6823 459.672 89.6719C459.182 93.4167 458.864 95.8906 456.791 97.3281C455.724 98 454.562 98.2969 453.302 98.2188ZM427.38 61.3698C434.77 61.3698 442.073 63.3854 443.729 73.5885C443.854 74.4635 444 75.5156 444.161 76.6823C444.776 81.3594 446.234 92.2917 449.661 93.0573C453.39 93.8906 454.083 93.5729 454.198 93.5C454.588 93.2135 454.901 90.7969 455.135 89.0417C455.265 87.9896 455.406 86.8229 455.609 85.5156C456.151 81.7396 456.281 77.9531 456 74.1458C455.765 68.8802 455.536 63.9167 458.692 56.5208C460.13 53.0104 453.895 28.0469 451 23.4271C446.75 16.6771 439.635 5.36979 431.588 5.36979C425.823 5.36979 423.161 10.1875 419.026 18.7083C417.588 21.7448 416.047 24.8802 414.145 27.9896C409.088 36.2187 404.151 50.7396 404.536 56.2188C404.526 57.0729 404.677 57.8906 404.994 58.6823C405.317 59.4688 405.781 60.1667 406.38 60.7656C408.89 62.8802 414.406 62.3646 419.744 61.8438C422.093 61.6146 424.718 61.3698 427.338 61.3698H427.38Z" fill="#7F2224"/>
</g>
<path fill-rule="evenodd" clip-rule="evenodd" d="M422.844 199.005C403.703 206.76 408.958 196.583 385.844 211.463C370.292 221.536 364.443 214.166 355.599 233.437C351.943 241.463 365.265 244.025 370.562 241.895C379.635 238.083 389.094 236.13 398.937 236.041C416.219 236.197 421.073 220.083 442.042 215.895C450.437 214.223 464.495 204.083 459.484 199.546C455.739 196.166 428.646 196.671 422.802 198.973L422.844 199.005Z" fill="#DE2926"/>
<path d="M366.156 244.916C361.979 244.916 357.271 243.609 354.734 240.963C354.203 240.406 353.765 239.786 353.427 239.093C353.088 238.406 352.87 237.677 352.76 236.916C352.651 236.156 352.666 235.396 352.802 234.64C352.932 233.885 353.182 233.166 353.541 232.484C359.635 219.161 364.916 217.494 371.614 215.375C376.224 214.067 380.547 212.119 384.578 209.536C398.635 200.484 402.854 200.338 407.75 200.166C411.021 200.052 414.39 199.937 421.963 196.875C428 194.453 456.198 193.521 461.125 197.838C461.521 198.182 461.854 198.573 462.135 199.015C462.411 199.458 462.625 199.932 462.765 200.437C462.906 200.937 462.969 201.453 462.963 201.974C462.953 202.5 462.87 203.01 462.708 203.505C460.922 209.937 449.286 216.833 442.547 218.156C432.911 220.067 426.922 224.599 421.13 228.989C414.791 233.781 408.802 238.312 399.255 238.312H398.448C389.083 238.5 380.094 240.416 371.474 244.067C369.75 244.677 367.979 244.963 366.156 244.916ZM441.364 199.448C434.062 199.448 426.531 200.01 423.708 201.146C415.385 204.515 411.422 204.656 407.864 204.771C403.547 204.932 400.031 205.047 387.041 213.406C382.661 216.218 377.963 218.338 372.953 219.765C366.703 221.75 362.875 222.948 357.687 234.401C357.515 234.656 357.39 234.932 357.317 235.234C357.245 235.531 357.219 235.833 357.25 236.14C357.281 236.448 357.359 236.744 357.495 237.021C357.625 237.302 357.802 237.547 358.021 237.765C360.312 240.156 366.734 240.932 369.687 239.755C379.036 235.791 388.791 233.781 398.953 233.724C407.047 233.724 412.271 229.88 418.276 225.333C424.286 220.786 430.911 215.781 441.583 213.651C447.817 212.411 457.104 206.052 458.146 202.312C458.302 201.692 458.146 201.489 457.911 201.276C456.5 200.067 449.057 199.448 441.364 199.448Z" fill="#7F2224"/>
<path fill-rule="evenodd" clip-rule="evenodd" d="M219.459 153.229C197.854 180.354 175.172 164.078 167.365 182.01C164.386 188.859 170.016 186.328 161.245 197.406C157.485 202.182 167.005 210.646 179.219 202.5C196.875 190.714 194.86 189.234 213.781 191.938C223.995 193.375 221.677 189.057 224.037 177.922C227.927 159.677 231.86 165.057 219.719 153.719L219.573 153.203L219.459 153.229Z" fill="#DE2926"/>
<path d="M169.193 208.198C167.505 208.255 165.875 207.968 164.302 207.349C162.734 206.724 161.354 205.812 160.161 204.614C159.583 204.067 159.12 203.432 158.771 202.713C158.422 201.989 158.213 201.234 158.146 200.437C158.078 199.64 158.156 198.859 158.38 198.093C158.599 197.323 158.948 196.619 159.427 195.979C164.338 189.765 164.239 188.5 164.125 187.161C163.911 185.026 164.286 183.005 165.25 181.088C169.307 171.734 177.172 170.484 185.495 169.161C195.333 167.593 206.495 165.807 217.64 151.765C217.916 151.427 218.255 151.182 218.666 151.036C219.073 150.885 219.489 150.859 219.916 150.942C220.323 151.02 220.682 151.203 220.995 151.479C221.302 151.75 221.521 152.088 221.646 152.484L223.646 154.323C230.505 160.614 231.182 161.52 228.963 168.395C227.859 171.703 226.948 175.057 226.239 178.468C225.734 180.812 225.463 182.786 225.219 184.64C224.656 188.614 224.265 191.479 221.932 193.276C220.151 194.63 217.614 194.942 213.396 194.338C198.328 192.182 197.927 192.468 187.469 199.781C185.526 201.13 183.265 202.656 180.541 204.526C178.875 205.687 177.073 206.578 175.14 207.203C173.208 207.828 171.224 208.161 169.193 208.198ZM219.5 156.755C207.791 170.265 195.88 172.166 186.219 173.692C178.281 174.958 172.536 175.88 169.484 182.916C168.833 184.125 168.583 185.406 168.734 186.77C168.948 189.52 168.734 191.692 163.057 198.817C162.239 199.864 163.13 201.031 163.547 201.489C165.552 203.635 171.021 205.177 177.948 200.557C180.646 198.76 182.875 197.203 184.807 195.864C196.156 187.953 197.666 187.234 214.057 189.635C216.776 190.036 218.495 189.968 219.172 189.463C219.844 188.958 220.265 186.687 220.609 183.921C220.854 182.14 221.156 179.937 221.687 177.416C222.453 173.875 223.411 170.39 224.568 166.958C226.01 162.64 226.01 162.64 220.521 157.708L219.5 156.755Z" fill="#7F2224"/>
<path d="M349.146 387.776C348.844 387.771 348.547 387.713 348.266 387.593C347.979 387.474 347.735 387.302 347.516 387.083C347.302 386.864 347.141 386.614 347.026 386.328C346.912 386.047 346.854 385.75 346.86 385.442L347.276 337.224C347.276 336.922 347.339 336.63 347.453 336.349C347.573 336.067 347.74 335.817 347.959 335.604C348.172 335.39 348.422 335.224 348.703 335.109C348.985 334.994 349.276 334.937 349.578 334.937C349.886 334.937 350.182 335 350.464 335.119C350.745 335.239 350.995 335.406 351.209 335.625C351.427 335.843 351.589 336.099 351.703 336.38C351.818 336.666 351.875 336.963 351.87 337.265L351.453 385.484C351.453 385.791 351.391 386.083 351.271 386.364C351.156 386.64 350.99 386.89 350.771 387.104C350.557 387.317 350.307 387.484 350.026 387.599C349.745 387.713 349.453 387.776 349.146 387.776ZM350.865 317.484C350.557 317.479 350.261 317.411 349.979 317.291C349.698 317.166 349.453 316.994 349.24 316.771C349.026 316.552 348.865 316.297 348.755 316.01C348.646 315.724 348.594 315.427 348.599 315.125L349.766 264.302C349.797 264.01 349.875 263.734 350.011 263.474C350.141 263.213 350.318 262.989 350.537 262.791C350.755 262.599 351 262.453 351.276 262.349C351.552 262.25 351.834 262.203 352.125 262.208C352.417 262.218 352.698 262.276 352.969 262.39C353.24 262.5 353.479 262.656 353.688 262.859C353.896 263.062 354.063 263.302 354.188 263.567C354.307 263.833 354.375 264.109 354.391 264.401L353.224 315.224C353.224 315.531 353.162 315.833 353.042 316.114C352.917 316.401 352.745 316.651 352.526 316.869C352.302 317.083 352.047 317.25 351.761 317.364C351.469 317.479 351.172 317.531 350.865 317.526V317.484ZM224.542 218.557C219.917 218.557 218.104 216.901 215.599 214.599L214.761 213.854C214.552 213.64 214.391 213.401 214.276 213.13C214.162 212.859 214.099 212.573 214.089 212.276C214.084 211.979 214.13 211.692 214.235 211.416C214.339 211.14 214.49 210.89 214.688 210.672C214.886 210.453 215.115 210.276 215.38 210.146C215.646 210.015 215.927 209.937 216.219 209.911C216.516 209.89 216.802 209.922 217.089 210.005C217.37 210.093 217.63 210.229 217.86 210.411L218.709 211.192C221.011 213.307 221.719 213.937 224.469 213.937C224.761 213.963 225.037 214.036 225.297 214.161C225.563 214.291 225.792 214.463 225.99 214.677C226.188 214.89 226.339 215.13 226.448 215.406C226.552 215.677 226.604 215.958 226.604 216.25C226.604 216.541 226.552 216.823 226.448 217.093C226.339 217.364 226.188 217.604 225.99 217.823C225.792 218.036 225.563 218.203 225.297 218.333C225.037 218.458 224.761 218.536 224.469 218.557H224.542ZM381.724 186.109C381.099 186.109 380.563 185.885 380.115 185.448C379.594 184.932 379.011 184.494 378.37 184.14C378.24 184.364 378.078 184.567 377.88 184.744C377.651 184.948 377.391 185.099 377.099 185.198C376.807 185.297 376.511 185.338 376.203 185.317C375.896 185.297 375.604 185.224 375.328 185.088C375.057 184.953 374.813 184.771 374.61 184.541C372.823 182.51 373.328 180.713 374.307 179.791C376.396 177.807 380.63 179.479 383.354 182.151C383.573 182.369 383.74 182.619 383.854 182.901C383.974 183.182 384.031 183.479 384.031 183.786C384.031 184.093 383.974 184.385 383.854 184.672C383.74 184.953 383.573 185.203 383.354 185.422C382.906 185.88 382.365 186.109 381.724 186.109ZM156.188 177.317C152.36 177.213 148.589 176.672 144.886 175.692C139.125 173.922 137.682 174.255 136.474 174.656C135.255 175.057 134.005 175.187 132.729 175.057C132.422 175.031 132.136 174.942 131.865 174.802C131.594 174.661 131.365 174.468 131.167 174.234C130.974 174 130.828 173.734 130.74 173.442C130.651 173.151 130.62 172.854 130.646 172.547C130.677 172.244 130.761 171.958 130.906 171.687C131.047 171.416 131.235 171.182 131.474 170.989C131.709 170.791 131.974 170.651 132.266 170.562C132.557 170.468 132.854 170.442 133.162 170.468C133.854 170.541 134.531 170.463 135.193 170.224C137.396 169.593 139.615 169.26 146.24 171.276C151.537 172.885 159.63 173.244 160.453 171.896C160.485 171.588 160.573 171.302 160.719 171.036C160.865 170.765 161.052 170.536 161.287 170.338C161.526 170.146 161.787 170 162.078 169.906C162.37 169.817 162.667 169.781 162.974 169.807C163.276 169.838 163.563 169.922 163.834 170.067C164.104 170.208 164.339 170.401 164.531 170.635C164.729 170.869 164.87 171.135 164.959 171.427C165.047 171.724 165.078 172.021 165.047 172.323C164.974 173.052 164.745 173.724 164.36 174.349C163.974 174.968 163.474 175.474 162.86 175.864C160.771 176.984 158.552 177.468 156.188 177.317ZM414.417 172.052C413.891 172.047 413.422 171.885 413.005 171.562C412.589 171.239 412.318 170.823 412.188 170.312C412.016 169.875 411.917 169.422 411.891 168.953C411.865 168.484 411.912 168.026 412.031 167.573C412.151 167.119 412.339 166.698 412.594 166.307C412.849 165.911 413.162 165.567 413.526 165.276C416.896 162.802 422.932 166.437 422.99 166.468C423.25 166.63 423.469 166.833 423.651 167.078C423.828 167.328 423.953 167.599 424.026 167.896C424.099 168.192 424.11 168.489 424.063 168.791C424.016 169.093 423.912 169.375 423.755 169.64C423.594 169.901 423.391 170.119 423.146 170.302C422.896 170.479 422.625 170.609 422.328 170.677C422.031 170.75 421.729 170.765 421.427 170.718C421.125 170.672 420.844 170.567 420.584 170.411C419.365 169.656 418.042 169.177 416.62 168.974V169.104C416.703 169.401 416.729 169.708 416.688 170.021C416.646 170.328 416.547 170.619 416.391 170.89C416.235 171.161 416.031 171.39 415.781 171.578C415.531 171.771 415.255 171.901 414.953 171.979C414.776 172.021 414.599 172.047 414.417 172.052ZM521.386 169.88C521.167 169.88 520.959 169.849 520.75 169.791C520.042 169.541 519.313 169.422 518.563 169.448C518.271 169.427 517.995 169.349 517.729 169.224C517.469 169.093 517.24 168.922 517.042 168.708C516.844 168.494 516.688 168.255 516.584 167.984C516.479 167.708 516.422 167.427 516.422 167.135C516.422 166.849 516.479 166.567 516.584 166.291C516.688 166.021 516.844 165.781 517.042 165.567C517.24 165.354 517.469 165.182 517.729 165.052C517.995 164.927 518.271 164.849 518.563 164.828C519.735 164.807 520.886 164.979 522 165.349C522.266 165.427 522.511 165.552 522.729 165.713C522.948 165.88 523.13 166.083 523.281 166.312C523.427 166.547 523.531 166.797 523.594 167.062C523.651 167.333 523.662 167.604 523.625 167.875C523.589 168.151 523.505 168.406 523.375 168.651C523.245 168.896 523.078 169.109 522.875 169.291C522.667 169.474 522.438 169.614 522.182 169.718C521.927 169.817 521.656 169.875 521.386 169.88ZM107.61 165.979C107.307 165.979 107.011 165.922 106.729 165.802C106.448 165.687 106.198 165.521 105.979 165.307C105.766 165.088 105.599 164.838 105.479 164.557C105.365 164.276 105.307 163.984 105.307 163.677V163.302C105.307 162.812 105.307 162.312 105.307 161.994L104.86 161.718C104.354 161.416 103.709 161.031 102.86 160.453C102.625 160.271 102.432 160.057 102.281 159.802C102.13 159.547 102.031 159.271 101.985 158.979C101.943 158.687 101.948 158.396 102.016 158.109C102.084 157.823 102.198 157.552 102.365 157.312C102.531 157.067 102.74 156.864 102.985 156.698C103.235 156.531 103.5 156.422 103.792 156.359C104.078 156.297 104.37 156.286 104.662 156.338C104.953 156.385 105.224 156.489 105.479 156.64C106.214 157.161 106.792 157.489 107.235 157.765C109.698 159.203 109.943 160.135 109.943 163.302V163.734C109.938 164.036 109.87 164.328 109.75 164.604C109.625 164.88 109.459 165.125 109.24 165.333C109.021 165.547 108.771 165.708 108.49 165.817C108.209 165.927 107.912 165.984 107.61 165.979ZM486.516 158.192C485.927 158.198 485.412 158 484.974 157.604C484.75 157.401 484.573 157.161 484.438 156.885C484.307 156.609 484.235 156.317 484.219 156.015C484.203 155.708 484.245 155.416 484.349 155.125C484.448 154.838 484.599 154.583 484.802 154.354C485.193 153.828 485.646 153.369 486.156 152.963C486.672 152.562 487.229 152.234 487.828 151.984C488.432 151.729 489.057 151.562 489.703 151.474C490.349 151.39 490.995 151.39 491.641 151.474H492.365C492.688 151.448 493 151.489 493.307 151.593C493.61 151.703 493.88 151.864 494.12 152.083C494.354 152.302 494.542 152.562 494.672 152.854C494.797 153.151 494.865 153.463 494.865 153.786C494.865 154.109 494.797 154.416 494.672 154.713C494.542 155.01 494.354 155.265 494.12 155.484C493.88 155.703 493.61 155.869 493.307 155.974C493 156.078 492.688 156.119 492.365 156.093H491.599C489.599 156.093 489.526 156.093 488.245 157.531C487.766 158.01 487.188 158.229 486.516 158.192ZM530.469 149.765C530.224 149.765 529.985 149.729 529.75 149.646C528.714 149.302 527.88 149 527.214 148.739C525.375 148.052 525.36 148.052 523.761 149.146C523.505 149.312 523.229 149.432 522.932 149.489C522.63 149.552 522.334 149.557 522.031 149.494C521.735 149.437 521.453 149.328 521.203 149.161C520.948 148.989 520.735 148.781 520.563 148.531C520.391 148.276 520.271 148 520.209 147.703C520.146 147.406 520.146 147.104 520.203 146.807C520.261 146.505 520.37 146.229 520.537 145.974C520.703 145.718 520.917 145.505 521.167 145.333C524.391 143.13 525.573 143.203 528.828 144.427C529.464 144.656 530.271 144.942 531.203 145.26C531.464 145.349 531.698 145.479 531.906 145.651C532.12 145.823 532.297 146.026 532.432 146.26C532.573 146.494 532.667 146.744 532.719 147.015C532.771 147.281 532.776 147.552 532.729 147.817C532.688 148.088 532.599 148.343 532.464 148.578C532.334 148.817 532.162 149.026 531.953 149.203C531.75 149.38 531.516 149.515 531.261 149.614C531.005 149.708 530.745 149.76 530.469 149.765ZM469.636 143.276C469.182 143.271 468.766 143.151 468.386 142.906C468.005 142.661 467.724 142.333 467.531 141.922C466.672 140.021 466.094 139.588 464.651 139.343C464.334 139.307 464.037 139.208 463.761 139.052C463.479 138.89 463.245 138.682 463.057 138.422C462.865 138.166 462.735 137.88 462.662 137.567C462.589 137.255 462.578 136.942 462.636 136.625C462.698 136.312 462.813 136.021 462.995 135.755C463.172 135.484 463.396 135.265 463.667 135.093C463.938 134.922 464.229 134.807 464.547 134.755C464.865 134.708 465.177 134.718 465.49 134.797C466.193 134.916 466.87 135.125 467.521 135.422C468.167 135.718 468.766 136.099 469.318 136.557C469.865 137.015 470.344 137.536 470.75 138.119C471.162 138.708 471.485 139.333 471.724 140.005C471.849 140.286 471.922 140.578 471.932 140.885C471.943 141.192 471.891 141.489 471.781 141.776C471.677 142.067 471.516 142.323 471.307 142.547C471.099 142.771 470.854 142.942 470.573 143.073C470.276 143.203 469.964 143.271 469.636 143.276ZM370.464 141.547C370.297 141.567 370.125 141.567 369.959 141.547C368.927 141.317 367.88 141.187 366.818 141.156C364.406 141.146 362.198 140.468 360.193 139.114C359.906 138.974 359.656 138.776 359.448 138.531C359.24 138.281 359.089 138.005 359 137.698C358.906 137.385 358.88 137.073 358.922 136.75C358.964 136.432 359.063 136.13 359.229 135.854C359.396 135.578 359.61 135.343 359.87 135.156C360.13 134.968 360.422 134.838 360.74 134.771C361.052 134.708 361.37 134.703 361.688 134.771C362 134.833 362.292 134.958 362.557 135.146C363.891 136.109 365.386 136.593 367.037 136.583C368.365 136.619 369.672 136.781 370.969 137.073C371.25 137.125 371.516 137.229 371.761 137.385C372.005 137.541 372.214 137.734 372.386 137.968C372.557 138.198 372.677 138.458 372.755 138.734C372.828 139.015 372.849 139.297 372.818 139.583C372.787 139.869 372.703 140.146 372.568 140.401C372.438 140.656 372.261 140.88 372.042 141.067C371.823 141.26 371.578 141.401 371.307 141.5C371.031 141.599 370.755 141.64 370.464 141.635V141.547ZM570.104 141.114C569.698 141.114 569.318 141.015 568.964 140.812C568.61 140.614 568.328 140.338 568.12 139.994C566.057 136.599 566.057 136.599 563.365 137.343C563.078 137.401 562.792 137.406 562.505 137.354C562.219 137.302 561.948 137.198 561.703 137.047C561.453 136.896 561.24 136.703 561.063 136.468C560.886 136.239 560.761 135.979 560.682 135.703C560.604 135.422 560.578 135.135 560.604 134.843C560.636 134.557 560.714 134.281 560.849 134.021C560.979 133.76 561.156 133.536 561.375 133.338C561.594 133.146 561.839 133 562.115 132.901C567.641 131.359 569.313 133.057 572.078 137.604C572.235 137.864 572.339 138.151 572.386 138.453C572.427 138.755 572.417 139.057 572.344 139.354C572.271 139.651 572.146 139.922 571.964 140.172C571.781 140.416 571.563 140.625 571.302 140.786C570.932 141 570.531 141.109 570.104 141.114ZM397.886 138.151H397.667C397.365 138.125 397.078 138.036 396.807 137.896C396.537 137.755 396.302 137.567 396.104 137.333C395.912 137.099 395.766 136.833 395.677 136.541C395.584 136.25 395.552 135.953 395.578 135.646V135.213C395.703 134.552 395.667 133.901 395.464 133.26C395.401 132.958 395.391 132.661 395.443 132.359C395.495 132.057 395.604 131.776 395.771 131.515C395.938 131.26 396.146 131.041 396.396 130.864C396.646 130.687 396.922 130.567 397.219 130.505C397.521 130.437 397.823 130.432 398.125 130.484C398.427 130.536 398.703 130.646 398.964 130.812C399.224 130.979 399.438 131.187 399.615 131.437C399.787 131.692 399.906 131.968 399.974 132.265C400.276 133.38 400.349 134.505 400.188 135.646V136.062C400.162 136.349 400.084 136.625 399.953 136.88C399.828 137.135 399.656 137.359 399.443 137.557C399.229 137.75 398.99 137.896 398.719 138C398.453 138.099 398.172 138.151 397.886 138.151ZM595.193 120.338C594.886 120.333 594.594 120.265 594.313 120.146C594.031 120.021 593.787 119.849 593.573 119.625C593.36 119.406 593.198 119.151 593.089 118.864C592.979 118.578 592.927 118.286 592.932 117.979C592.969 117.354 592.865 116.76 592.61 116.187C592.354 115.619 591.985 115.14 591.495 114.755C590.974 114.489 590.422 114.369 589.839 114.401C589.255 114.427 588.714 114.599 588.224 114.911L587.261 115.416C586.219 116.083 585.104 116.562 583.901 116.854C583.599 116.901 583.297 116.89 583 116.823C582.703 116.75 582.427 116.625 582.182 116.442C581.932 116.265 581.729 116.041 581.568 115.781C581.406 115.521 581.302 115.239 581.255 114.937C581.209 114.63 581.219 114.333 581.292 114.031C581.365 113.734 581.49 113.463 581.672 113.213C581.849 112.968 582.073 112.765 582.334 112.604C582.599 112.442 582.88 112.338 583.182 112.291C583.823 112.041 584.438 111.734 585.026 111.375C585.485 111.13 585.906 110.896 586.25 110.739C586.844 110.411 587.474 110.166 588.136 110C588.792 109.838 589.464 109.76 590.146 109.776C590.823 109.786 591.49 109.885 592.146 110.073C592.797 110.265 593.417 110.531 594 110.885C595.167 111.698 596.068 112.744 596.698 114.026C597.328 115.302 597.61 116.656 597.542 118.078C597.537 118.38 597.469 118.672 597.349 118.948C597.224 119.229 597.057 119.474 596.839 119.682C596.62 119.896 596.37 120.057 596.089 120.172C595.807 120.281 595.511 120.338 595.209 120.338H595.193ZM298.698 116.234C294.755 116.083 291.099 114.984 287.724 112.942C284.672 111.343 283.948 111.156 283.245 111.776C281.802 112.984 279.917 112.567 278.479 112.25C278.245 112.192 278.011 112.14 277.771 112.104C277.469 112.073 277.177 111.984 276.912 111.838C276.641 111.692 276.412 111.494 276.219 111.26C276.026 111.021 275.891 110.75 275.802 110.458C275.719 110.161 275.693 109.864 275.724 109.557C275.761 109.255 275.854 108.974 276.005 108.703C276.151 108.437 276.344 108.208 276.584 108.015C276.823 107.828 277.089 107.687 277.38 107.599C277.672 107.515 277.974 107.484 278.276 107.515L279.459 107.734C279.771 107.802 280.292 107.922 280.636 107.963C283.735 105.63 286.99 107.343 289.87 108.854C292.651 110.599 295.688 111.521 298.974 111.619C299.261 111.64 299.537 111.713 299.802 111.843C300.063 111.968 300.292 112.14 300.49 112.354C300.688 112.567 300.844 112.812 300.948 113.083C301.052 113.354 301.11 113.635 301.11 113.927C301.11 114.218 301.052 114.5 300.948 114.771C300.844 115.041 300.688 115.286 300.49 115.5C300.292 115.713 300.063 115.885 299.802 116.01C299.537 116.14 299.261 116.213 298.974 116.234H298.698ZM211.162 115.661C209.714 115.604 208.37 115.208 207.13 114.468C205.688 113.776 205.313 113.604 204.25 114.135C203.979 114.281 203.693 114.364 203.386 114.396C203.084 114.427 202.781 114.396 202.49 114.307C202.198 114.218 201.932 114.078 201.693 113.88C201.459 113.687 201.266 113.458 201.125 113.187C200.979 112.916 200.891 112.63 200.865 112.323C200.834 112.021 200.865 111.718 200.953 111.427C201.042 111.135 201.182 110.869 201.375 110.635C201.573 110.396 201.802 110.208 202.073 110.062C203.193 109.458 204.391 109.182 205.662 109.234C206.938 109.286 208.104 109.656 209.172 110.349C210.615 111.073 211.104 111.286 212.24 110.755C212.521 110.599 212.823 110.505 213.146 110.474C213.464 110.442 213.776 110.474 214.084 110.573C214.391 110.672 214.662 110.828 214.901 111.041C215.146 111.255 215.334 111.505 215.469 111.797C215.604 112.088 215.677 112.396 215.688 112.718C215.693 113.036 215.641 113.349 215.521 113.646C215.401 113.942 215.224 114.203 214.995 114.432C214.766 114.656 214.5 114.828 214.203 114.942C213.245 115.396 212.235 115.64 211.177 115.661H211.162ZM468.959 111.255C468.182 111.255 467.563 110.937 467.099 110.307C466.307 109.791 463.703 108.869 462.781 110.005C462.584 110.239 462.349 110.427 462.078 110.567C461.802 110.708 461.516 110.786 461.209 110.812C460.906 110.838 460.61 110.807 460.318 110.713C460.026 110.619 459.761 110.474 459.526 110.276C459.292 110.078 459.104 109.843 458.969 109.573C458.828 109.302 458.745 109.015 458.719 108.708C458.693 108.406 458.724 108.104 458.818 107.817C458.912 107.526 459.057 107.26 459.25 107.026C459.703 106.547 460.209 106.135 460.776 105.797C461.339 105.458 461.943 105.208 462.578 105.036C463.214 104.869 463.865 104.791 464.521 104.807C465.182 104.823 465.823 104.932 466.453 105.13C467.162 105.302 470.776 106.265 471.219 108.437C471.292 108.734 471.297 109.036 471.245 109.338C471.193 109.64 471.089 109.922 470.922 110.182C470.761 110.442 470.552 110.656 470.302 110.833C470.052 111.01 469.776 111.135 469.479 111.198C469.313 111.239 469.146 111.26 468.974 111.255H468.959ZM345.75 105.849C345.578 105.869 345.406 105.869 345.229 105.849C343.417 105.39 341.584 105.036 339.729 104.781C338.927 105.385 338.026 105.687 337.021 105.687C336.719 105.708 336.417 105.672 336.13 105.573C335.839 105.479 335.578 105.328 335.344 105.125C335.115 104.927 334.932 104.687 334.797 104.416C334.656 104.14 334.578 103.849 334.557 103.547C334.537 103.239 334.578 102.942 334.672 102.651C334.771 102.364 334.922 102.104 335.12 101.869C335.323 101.64 335.563 101.458 335.834 101.323C336.11 101.182 336.401 101.104 336.703 101.083H336.964C338.406 99.7445 340.063 99.9789 346.255 101.375C346.537 101.427 346.802 101.531 347.047 101.687C347.292 101.843 347.5 102.036 347.672 102.265C347.844 102.5 347.964 102.755 348.042 103.036C348.115 103.312 348.136 103.599 348.104 103.885C348.073 104.172 347.99 104.442 347.854 104.698C347.724 104.958 347.547 105.177 347.328 105.369C347.11 105.557 346.865 105.703 346.594 105.802C346.318 105.896 346.037 105.942 345.75 105.932V105.849ZM257.479 104.119C257.037 104.119 256.63 104 256.255 103.771C255.886 103.536 255.599 103.218 255.406 102.828C253 97.9059 251.589 97.7914 250.334 97.6716C249.802 97.6872 249.281 97.6091 248.771 97.4528C248.261 97.2914 247.787 97.057 247.354 96.7445C246.922 96.432 246.552 96.057 246.24 95.6247C245.932 95.1872 245.698 94.7184 245.542 94.208C245.427 93.9216 245.37 93.6247 245.375 93.3122C245.375 93.0049 245.438 92.7132 245.563 92.4268C245.682 92.1455 245.854 91.8955 246.073 91.6768C246.297 91.4632 246.547 91.2966 246.834 91.1872C247.12 91.0726 247.422 91.0153 247.729 91.0205C248.037 91.0205 248.334 91.083 248.615 91.208C248.901 91.3278 249.151 91.4997 249.365 91.7184C249.578 91.9424 249.745 92.1924 249.86 92.4789C249.932 92.682 250.031 92.8695 250.162 93.0414H250.755C253.432 93.2549 256.313 94.0466 259.594 100.755C259.735 101.026 259.807 101.317 259.828 101.625C259.849 101.927 259.807 102.229 259.709 102.515C259.61 102.807 259.453 103.062 259.25 103.291C259.047 103.521 258.807 103.703 258.531 103.833C258.198 104.031 257.839 104.125 257.448 104.119H257.479ZM560.354 102.869C560.068 102.869 559.792 102.817 559.526 102.713C559.261 102.609 559.021 102.463 558.813 102.271C558.599 102.083 558.427 101.859 558.302 101.604C558.172 101.349 558.094 101.078 558.068 100.797C557.667 99.5882 556.927 98.6559 555.834 98.0049C555.557 98.0987 555.276 98.1351 554.985 98.1195C554.693 98.1091 554.417 98.0414 554.151 97.9216C553.886 97.8018 553.656 97.6351 553.453 97.432C553.25 97.2237 553.089 96.9841 552.979 96.7184C552.865 96.4476 552.807 96.1716 552.797 95.8799C552.792 95.5882 552.834 95.307 552.938 95.0362C553.037 94.7653 553.182 94.5205 553.37 94.3018C553.563 94.083 553.787 93.906 554.047 93.7757C554.677 93.458 555.344 93.3122 556.052 93.3434C556.755 93.3747 557.406 93.5778 558.005 93.9476C559.219 94.6091 560.235 95.4997 561.047 96.6143C561.86 97.7289 562.401 98.9632 562.662 100.323C562.688 100.625 562.662 100.927 562.573 101.218C562.485 101.515 562.344 101.781 562.146 102.015C561.953 102.255 561.719 102.442 561.448 102.588C561.177 102.734 560.891 102.823 560.584 102.854L560.354 102.869ZM500.354 101.76C499.912 101.75 499.505 101.63 499.13 101.396C498.755 101.161 498.469 100.843 498.266 100.453C498.037 100.041 497.875 99.6039 497.787 99.1351C497.698 98.6716 497.688 98.208 497.755 97.7393C497.818 97.2705 497.959 96.8278 498.167 96.4059C498.38 95.9841 498.651 95.6039 498.99 95.2705C499.438 94.807 499.948 94.4164 500.511 94.0934C501.073 93.7757 501.667 93.5414 502.297 93.3903C502.927 93.2445 503.568 93.1872 504.214 93.2184C504.86 93.2497 505.49 93.3747 506.104 93.5882C506.5 93.7549 506.86 93.9789 507.182 94.2601C507.505 94.5414 507.781 94.8695 508 95.2341C508.219 95.6039 508.375 95.9997 508.464 96.4216C508.557 96.8382 508.578 97.2601 508.537 97.6872C508.511 97.9737 508.432 98.2445 508.307 98.4997C508.182 98.7549 508.016 98.9789 507.807 99.1716C507.599 99.3695 507.36 99.5205 507.094 99.6247C506.834 99.7341 506.557 99.7862 506.271 99.7914C505.985 99.8018 505.709 99.7549 505.438 99.6559C505.172 99.5622 504.927 99.4164 504.714 99.2341C504.495 99.0466 504.323 98.8278 504.188 98.5778C504.052 98.3226 503.964 98.057 503.927 97.7757C503.302 97.807 502.766 98.0466 502.313 98.4789C502.459 98.7445 502.542 99.0257 502.573 99.3226C502.604 99.6195 502.573 99.9112 502.485 100.198C502.391 100.484 502.25 100.744 502.057 100.968C501.865 101.198 501.63 101.38 501.365 101.515C501.042 101.661 500.709 101.729 500.354 101.718V101.76ZM425.896 96.8122C425.12 96.8122 424.5 96.4997 424.042 95.8747C423.406 95.0257 423.089 94.5934 420.698 95.557C420.412 95.6716 420.115 95.7289 419.802 95.7289C419.495 95.7237 419.198 95.6612 418.917 95.5414C418.63 95.4164 418.38 95.2497 418.167 95.0257C417.948 94.807 417.787 94.5518 417.672 94.2653C417.552 93.9789 417.5 93.682 417.505 93.3747C417.505 93.0622 417.568 92.7705 417.693 92.4841C417.813 92.2028 417.985 91.9528 418.209 91.7341C418.427 91.5205 418.682 91.3539 418.969 91.2445C420.667 90.5518 424.729 88.9424 427.755 93.083C427.938 93.3278 428.063 93.5987 428.136 93.8955C428.209 94.1924 428.224 94.4893 428.182 94.7914C428.136 95.0934 428.037 95.3747 427.88 95.6403C427.724 95.9007 427.526 96.1247 427.281 96.307C426.87 96.6091 426.406 96.7601 425.896 96.7653V96.8122ZM323.386 87.7184C321.323 87.5153 319.38 86.932 317.552 85.9632C316.365 85.3591 315.12 84.9164 313.818 84.6247C313.63 84.8591 313.401 85.0518 313.13 85.2028C312.865 85.3487 312.578 85.4372 312.276 85.4737C311.969 85.5049 311.672 85.4789 311.38 85.3955C311.084 85.3122 310.818 85.1716 310.584 84.9789C310.344 84.7914 310.151 84.5622 310 84.2966C309.854 84.0257 309.766 83.7393 309.729 83.4372C309.698 83.1351 309.719 82.8382 309.807 82.5414C309.891 82.2497 310.031 81.9841 310.219 81.7445C312.438 78.6507 316.313 80.307 319.422 81.7445C320.677 82.3955 321.995 82.8434 323.386 83.0987C323.672 83.1195 323.948 83.1976 324.214 83.3226C324.474 83.4528 324.703 83.6195 324.901 83.833C325.099 84.0466 325.255 84.2914 325.36 84.5622C325.469 84.833 325.521 85.1143 325.521 85.4059C325.521 85.6976 325.469 85.9789 325.36 86.2497C325.255 86.5205 325.099 86.7653 324.901 86.9789C324.703 87.1924 324.474 87.3643 324.214 87.4893C323.948 87.6195 323.672 87.6924 323.386 87.7184ZM351.307 81.557C351 81.557 350.709 81.4945 350.427 81.3799C350.146 81.2601 349.896 81.0934 349.677 80.8747C349.464 80.6559 349.297 80.4059 349.177 80.1247C349.063 79.8434 349.005 79.5466 349.005 79.2393C348.927 78.4268 349.037 77.6403 349.334 76.8799C349.636 76.1195 350.089 75.4684 350.703 74.9268C351.438 74.4789 352.235 74.2289 353.089 74.1664C353.943 74.0987 354.766 74.2341 355.557 74.5674C355.849 74.6559 356.115 74.7966 356.354 74.9893C356.589 75.182 356.781 75.4164 356.922 75.6872C357.068 75.9528 357.156 76.2445 357.188 76.5466C357.219 76.8539 357.188 77.1507 357.099 77.4424C357.011 77.7341 356.87 77.9997 356.672 78.2393C356.479 78.4737 356.245 78.6664 355.979 78.807C355.709 78.9528 355.422 79.0414 355.115 79.0726C354.813 79.0987 354.511 79.0726 354.219 78.9841L353.641 78.8382C353.636 78.9789 353.636 79.1143 353.641 79.2549C353.636 79.557 353.568 79.8487 353.448 80.1299C353.328 80.4059 353.156 80.6507 352.938 80.8643C352.719 81.0726 352.469 81.2341 352.188 81.3487C351.906 81.4632 351.615 81.5153 351.307 81.5153V81.557Z" fill="#7F2224"/>
<path d="M382.823 354.188C382.354 354.182 381.932 354.047 381.547 353.781C381.167 353.521 380.88 353.177 380.703 352.75C380.578 352.469 380.51 352.177 380.5 351.87C380.489 351.568 380.542 351.271 380.651 350.984C380.76 350.698 380.922 350.443 381.13 350.219C381.344 350 381.588 349.823 381.87 349.698L425.12 330.302C425.401 330.177 425.693 330.109 425.995 330.099C426.302 330.089 426.599 330.141 426.885 330.25C427.172 330.359 427.427 330.516 427.651 330.724C427.87 330.938 428.047 331.182 428.172 331.458C428.297 331.74 428.364 332.031 428.375 332.339C428.38 332.641 428.333 332.938 428.224 333.224C428.114 333.51 427.953 333.766 427.739 333.984C427.531 334.208 427.286 334.38 427.005 334.505L383.698 353.974C383.422 354.109 383.13 354.182 382.823 354.188Z" fill="white"/>
<path d="M442.14 326.276C441.708 326.276 441.302 326.161 440.932 325.937C440.562 325.708 440.276 325.396 440.083 325.01C439.943 324.734 439.864 324.442 439.844 324.14C439.818 323.833 439.854 323.536 439.953 323.244C440.047 322.953 440.193 322.687 440.396 322.458C440.594 322.224 440.833 322.036 441.104 321.901L453.234 315.843C453.505 315.729 453.786 315.672 454.078 315.666C454.37 315.661 454.651 315.713 454.927 315.812C455.198 315.916 455.448 316.067 455.661 316.26C455.88 316.458 456.057 316.682 456.187 316.948C456.318 317.208 456.396 317.484 456.422 317.776C456.448 318.067 456.422 318.349 456.338 318.63C456.26 318.911 456.13 319.166 455.953 319.401C455.771 319.63 455.557 319.823 455.307 319.974L443.182 326.031C442.854 326.198 442.51 326.276 442.14 326.276Z" fill="white"/>
<path d="M205.271 255.869C205.078 255.875 204.896 255.849 204.708 255.797L181.724 250.182C181.448 250.093 181.193 249.958 180.969 249.771C180.74 249.588 180.557 249.364 180.411 249.109C180.271 248.854 180.177 248.583 180.141 248.291C180.099 248.005 180.115 247.718 180.182 247.432C180.255 247.146 180.375 246.885 180.542 246.646C180.708 246.406 180.917 246.208 181.161 246.047C181.406 245.885 181.672 245.776 181.958 245.713C182.245 245.651 182.531 245.646 182.818 245.698L205.776 251.323C206.052 251.385 206.313 251.494 206.547 251.656C206.786 251.812 206.984 252.005 207.146 252.239C207.313 252.474 207.427 252.729 207.5 253.005C207.568 253.281 207.589 253.557 207.552 253.843C207.521 254.125 207.438 254.39 207.302 254.64C207.167 254.896 206.995 255.114 206.781 255.302C206.568 255.489 206.323 255.63 206.057 255.729C205.792 255.828 205.51 255.875 205.229 255.869H205.271Z" fill="white"/>
<path d="M164.557 248.516C164.364 248.51 164.177 248.49 163.995 248.443L75.6508 226.385C75.354 226.307 75.0831 226.177 74.8383 225.995C74.5935 225.813 74.3956 225.589 74.2394 225.328C74.0831 225.063 73.979 224.781 73.9373 224.479C73.8904 224.177 73.906 223.875 73.979 223.578C74.0571 223.281 74.1821 223.01 74.3644 222.766C74.5467 222.521 74.7654 222.318 75.031 222.161C75.2915 222.005 75.5727 221.906 75.88 221.859C76.1821 221.818 76.479 221.833 76.7758 221.911L165.12 243.969C165.396 244.031 165.656 244.141 165.89 244.302C166.13 244.458 166.328 244.656 166.495 244.891C166.656 245.125 166.776 245.38 166.844 245.656C166.911 245.932 166.932 246.214 166.896 246.495C166.859 246.781 166.776 247.047 166.64 247.297C166.505 247.552 166.333 247.771 166.114 247.958C165.901 248.141 165.656 248.286 165.39 248.38C165.12 248.479 164.844 248.521 164.557 248.516Z" fill="white"/>
<path d="M312.886 178.64C312.563 178.666 312.25 178.624 311.943 178.52C311.636 178.416 311.365 178.255 311.125 178.036C310.891 177.812 310.708 177.557 310.578 177.26C310.448 176.963 310.38 176.656 310.38 176.333C310.38 176.01 310.448 175.697 310.578 175.406C310.708 175.109 310.891 174.848 311.125 174.63C311.365 174.411 311.636 174.249 311.943 174.145C312.25 174.036 312.563 173.999 312.886 174.02C313.86 174.025 314.818 173.911 315.766 173.677C316.339 173.546 316.974 173.416 317.781 173.291C318.083 173.244 318.38 173.255 318.682 173.328C318.979 173.4 319.25 173.525 319.495 173.703C319.745 173.885 319.948 174.104 320.104 174.364C320.266 174.63 320.37 174.911 320.417 175.213C320.464 175.515 320.453 175.812 320.38 176.109C320.313 176.406 320.182 176.677 320.005 176.927C319.828 177.171 319.604 177.38 319.344 177.536C319.083 177.697 318.802 177.802 318.5 177.848C317.781 177.963 317.235 178.083 316.729 178.197C315.464 178.499 314.182 178.645 312.886 178.64Z" fill="white"/>
<path d="M324.464 176.151C324.172 176.136 323.896 176.063 323.63 175.943C323.365 175.818 323.13 175.651 322.927 175.443C322.729 175.229 322.573 174.99 322.458 174.719C322.349 174.448 322.292 174.167 322.286 173.875C322.281 173.583 322.333 173.302 322.432 173.031C322.536 172.755 322.688 172.511 322.88 172.292C323.073 172.078 323.302 171.901 323.563 171.771C323.823 171.641 324.099 171.563 324.391 171.531C328.552 171.391 336.115 169.146 337.599 166.453C337.745 166.188 337.938 165.953 338.177 165.761C338.417 165.573 338.688 165.432 338.979 165.344C339.276 165.261 339.573 165.235 339.88 165.271C340.188 165.302 340.474 165.396 340.74 165.542C341.01 165.688 341.24 165.886 341.432 166.125C341.625 166.365 341.76 166.63 341.844 166.927C341.932 167.219 341.958 167.521 341.922 167.823C341.885 168.13 341.792 168.417 341.646 168.682C338.693 174.037 328.078 176.021 324.552 176.151H324.464Z" fill="white"/>
<path d="M65.0676 173.375C64.7395 173.38 64.427 173.313 64.1301 173.172C63.8541 173.052 63.6093 172.875 63.3957 172.656C63.1874 172.432 63.0259 172.182 62.9166 171.896C62.8072 171.615 62.7603 171.318 62.7655 171.016C62.7759 170.708 62.8384 170.417 62.9634 170.141C64.5207 166.672 67.8489 165.448 70.5103 164.38C71.5051 164.057 72.4634 163.656 73.3905 163.172C73.6562 163.016 73.9374 162.917 74.2395 162.875C74.5416 162.833 74.8437 162.849 75.1405 162.927C75.4374 163 75.7082 163.13 75.953 163.318C76.1978 163.5 76.3957 163.724 76.552 163.984C76.7082 164.25 76.8072 164.531 76.8489 164.833C76.8957 165.141 76.8749 165.438 76.802 165.734C76.7239 166.031 76.5937 166.302 76.4114 166.547C76.2239 166.792 75.9999 166.99 75.7395 167.146C74.6093 167.776 73.427 168.292 72.1978 168.698C69.5884 169.677 67.9634 170.37 67.2551 171.953C67.0728 172.391 66.7812 172.74 66.3801 173C65.9791 173.26 65.5416 173.385 65.0676 173.375Z" fill="white"/>
<path d="M81.0939 164.37C80.7033 164.37 80.3335 164.276 79.9845 164.088C79.6408 163.896 79.3647 163.635 79.1512 163.302C78.9845 163.047 78.8752 162.766 78.8231 162.463C78.7658 162.161 78.771 161.859 78.8387 161.557C78.9064 161.26 79.0262 160.984 79.2033 160.734C79.3804 160.479 79.5991 160.271 79.8595 160.109C81.0314 159.406 82.2658 158.833 83.5575 158.396C84.1512 158.167 84.7554 157.948 85.3283 157.693C85.6095 157.542 85.9064 157.453 86.2241 157.427C86.5418 157.401 86.8491 157.437 87.1512 157.542C87.4481 157.641 87.7189 157.797 87.9533 158.005C88.1929 158.219 88.3752 158.469 88.5106 158.755C88.6408 159.042 88.7137 159.344 88.7189 159.661C88.7293 159.979 88.672 160.286 88.5575 160.578C88.4377 160.875 88.2658 161.13 88.0418 161.354C87.8179 161.578 87.5575 161.75 87.2606 161.865C86.5835 162.182 85.8179 162.437 85.1877 162.698C84.1877 163.036 83.2293 163.463 82.3075 163.979C81.9429 164.234 81.5418 164.365 81.0939 164.37Z" fill="white"/>
<path d="M447.166 40.5208C446.864 40.5208 446.568 40.4635 446.286 40.3437C446 40.2292 445.75 40.0625 445.536 39.849C445.318 39.6302 445.151 39.3802 445.031 39.099C444.911 38.8177 444.854 38.526 444.849 38.2187C444.896 36.9427 444.76 35.6823 444.432 34.4479C444.359 34.151 444.344 33.8542 444.39 33.5521C444.432 33.2448 444.536 32.9635 444.693 32.7031C444.849 32.4375 445.052 32.2187 445.297 32.0365C445.541 31.8542 445.812 31.724 446.109 31.651C446.406 31.5729 446.708 31.5625 447.01 31.6042C447.312 31.651 447.594 31.75 447.859 31.9062C448.12 32.0677 448.344 32.2656 448.526 32.5104C448.708 32.7604 448.838 33.0312 448.911 33.3281C449.333 34.9323 449.515 36.5625 449.474 38.2187C449.474 38.526 449.416 38.8177 449.297 39.099C449.182 39.3802 449.015 39.6302 448.797 39.849C448.583 40.0625 448.333 40.2292 448.052 40.3437C447.771 40.4635 447.474 40.5208 447.166 40.5208Z" fill="white"/>
<path d="M443.974 29.0518C443.479 29.0518 443.026 28.9059 442.625 28.6195C442.224 28.3278 441.942 27.9528 441.781 27.4841L441.682 27.1664C440.557 22.9216 439.708 21.8851 435.922 20.057C435.646 19.9268 435.406 19.7445 435.203 19.5153C435 19.2862 434.849 19.0257 434.75 18.7341C434.651 18.4476 434.609 18.1455 434.625 17.8434C434.646 17.5362 434.724 17.2445 434.859 16.9684C434.995 16.6976 435.177 16.458 435.406 16.2549C435.635 16.0518 435.896 15.9007 436.187 15.8018C436.474 15.7028 436.776 15.6612 437.078 15.682C437.385 15.7028 437.677 15.7809 437.953 15.9164C442.89 18.333 444.635 20.4632 446.047 25.8434V25.9997C446.109 26.1768 446.146 26.3539 446.166 26.5362C446.182 26.7184 446.182 26.9059 446.156 27.0882C446.13 27.2705 446.083 27.4476 446.01 27.6143C445.942 27.7862 445.854 27.9476 445.75 28.0987C445.64 28.2497 445.515 28.3799 445.375 28.4997C445.234 28.6195 445.083 28.7237 444.922 28.807C444.755 28.8903 444.583 28.9528 444.401 28.9945C444.224 29.0362 444.041 29.057 443.854 29.0518H443.974Z" fill="white"/>
</g>
<defs>
<clipPath id="clip0_775_18215">
<rect width="648" height="388" fill="white"/>
</clipPath>
</defs>
</svg>
