<svg width="440" height="528" viewBox="0 0 440 528" fill="none" xmlns="http://www.w3.org/2000/svg">
<path fill-rule="evenodd" clip-rule="evenodd" d="M7.35408 140.374C2.13533 94.2023 35.3072 109.364 32.8905 95.1919C29.6718 76.2648 49.3228 53.0826 64.3437 60.994C64.3437 60.994 63.2291 54.7544 72.1405 49.9784C88.8697 41.0357 95.6562 38.5982 112.318 45.218C112.474 45.218 111.151 13.3378 140.047 20.8169C152.646 24.0565 141.125 31.4836 150.609 15.9159C156.823 5.72318 193.255 -5.12058 200.932 19.8221C202.901 26.1659 201.979 13.5461 221.609 5.67109C239.016 -1.30287 246.781 13.2492 252.005 29.0982C256.198 41.7857 251.583 14.4732 285.547 15.968C298.271 16.5305 317.349 31.7961 315.328 43.1815C320.547 26.343 370.281 29.5305 360.391 69.5201C360.307 69.869 394.229 57.6451 393.937 86.9471C393.797 100.405 377.573 95.0357 407.234 96.7284C417.677 97.3378 431.375 122.036 423.198 128.697C431.901 129.968 436.755 128.541 437.365 146.442C437.885 161.432 428.016 174.333 413.781 174.333L93.4999 183.989L7.40616 140.411L7.35408 140.374Z" fill="#FCF0E8"/>
<mask id="mask0_775_18157" style="mask-type:luminance" maskUnits="userSpaceOnUse" x="4" y="0" width="437" height="187">
<path d="M4 0.333008H440.479V187H4V0.333008Z" fill="white"/>
</mask>
<g mask="url(#mask0_775_18157)">
<path d="M93.4479 186.635C93.0052 186.646 92.5885 186.547 92.1927 186.338L6.08331 142.765C5.66664 142.547 5.32289 142.25 5.05727 141.864C4.79164 141.479 4.62497 141.052 4.56768 140.583C1.08852 108.771 15.5729 103.63 24.2552 100.494C29.8437 98.5257 30.5573 97.9111 30.1406 95.4893C28.1041 83.5309 34.5416 68.7341 45.1094 61.0466C50.6771 57.0049 56.6666 55.5934 62.0469 56.9528C62.9166 54.0413 65.1979 50.3643 70.8385 47.3486C86.9219 38.7341 94.6302 35.8591 109.755 41.1038C110.677 31.7653 114.021 24.6351 119.365 20.6091C124.708 16.583 131.932 15.6247 140.74 17.8903C142.323 18.2705 143.833 18.8538 145.266 19.6299C146.156 17.7913 147.146 15.9997 148.224 14.2601C152.609 7.06218 168.641 0.0725946 182.797 1.83301C192.193 3.02051 199.12 8.00488 202.568 15.9893C204.891 12.9945 207.578 10.3799 210.641 8.14551C213.698 5.91634 217.005 4.15593 220.568 2.86426C226.901 0.317385 232.646 0.197594 237.609 2.5153C246.312 6.52572 250.995 17.2601 254.198 26.6195C257.589 21.1663 265.422 12.0674 285.667 12.9736C294.37 13.3538 306.156 20.0309 312.958 28.5205C314.734 30.6716 316.141 33.0413 317.172 35.6351C323.406 30.5257 334.229 29.307 343.37 31.8695C355.656 35.3538 367.026 45.9163 363.995 65.5622C377.797 62.5466 385.422 65.4372 389.443 68.5622C394.354 72.3747 396.807 78.4788 396.719 86.7236C396.745 89.0257 396.255 91.2184 395.26 93.2966H395.417C398.182 93.2966 402.062 93.3799 407.391 93.6768C415.573 94.1507 424.031 105.01 427.198 114.823C427.901 116.64 428.318 118.526 428.432 120.474C428.552 122.427 428.375 124.343 427.896 126.239C435.797 127.479 439.625 130.599 440.078 146.073C440.182 148.187 440.078 150.286 439.766 152.38C439.448 154.468 438.932 156.505 438.208 158.494C437.49 160.484 436.583 162.38 435.484 164.182C434.385 165.989 433.12 167.672 431.687 169.224C430.536 170.442 429.271 171.531 427.896 172.494C426.521 173.453 425.062 174.265 423.526 174.932C421.984 175.599 420.396 176.104 418.755 176.453C417.115 176.797 415.453 176.974 413.776 176.979L93.5 186.619L93.4479 186.635ZM9.89581 138.474L94.0052 181.041L413.62 171.401C416.281 171.422 418.833 170.911 421.276 169.869C423.724 168.828 425.859 167.338 427.687 165.406C428.859 164.125 429.896 162.739 430.792 161.25C431.687 159.76 432.432 158.198 433.016 156.562C433.604 154.922 434.021 153.244 434.271 151.521C434.526 149.802 434.604 148.073 434.51 146.338C434.042 132.651 431.849 132.39 425.302 131.609C424.484 131.505 423.562 131.416 422.724 131.276C422.177 131.198 421.693 130.974 421.276 130.609C420.859 130.239 420.578 129.791 420.427 129.255C420.281 128.718 420.292 128.187 420.458 127.656C420.63 127.13 420.932 126.692 421.37 126.343C423.109 124.896 423.318 121.255 421.823 116.614C419.036 108.005 411.849 99.6038 407.005 99.3278C398.182 98.8382 393.484 98.958 391.219 99.0309C389.286 99.0309 387.443 99.1143 386.693 97.1299C386.589 96.7966 386.542 96.4528 386.552 96.1038C386.562 95.7549 386.625 95.4111 386.745 95.083C386.865 94.7549 387.031 94.4528 387.25 94.182C387.469 93.9059 387.724 93.6768 388.016 93.4841C389.062 92.6924 389.854 91.6976 390.396 90.4997C390.932 89.3018 391.156 88.0518 391.062 86.7393C391.062 80.3434 389.323 75.7236 385.964 73.057C382.604 70.3903 375.729 68.1403 361.891 71.8903C361.307 72.1507 360.703 72.2341 360.078 72.1455C359.448 72.0518 358.891 71.8018 358.406 71.3851C358.052 71.0361 357.807 70.6247 357.667 70.1455C357.531 69.6663 357.521 69.182 357.641 68.6976C363.437 45.2913 347.005 38.7705 341.839 37.3226C331.396 34.3799 319.943 37.4997 317.974 43.8591C317.88 44.2132 317.724 44.5361 317.505 44.8226C317.286 45.1143 317.021 45.3538 316.708 45.5413C316.396 45.7288 316.057 45.8486 315.698 45.9007C315.339 45.958 314.984 45.9424 314.63 45.8538C314.276 45.7705 313.948 45.6195 313.656 45.4111C313.359 45.1976 313.115 44.9372 312.922 44.6247C312.729 44.3174 312.599 43.9841 312.536 43.6247C312.474 43.2653 312.484 42.9111 312.562 42.5518C313.062 39.6611 311.656 35.9268 308.573 32.0934C302.76 24.8591 292.594 18.932 285.391 18.6195C265.422 17.7288 260.234 27.1247 257.745 31.6247C256.74 33.3643 255.677 35.3382 253.432 35.1091C251.182 34.8851 250.141 32.3226 249.323 29.8799C246.484 21.2705 242.359 10.9841 235.203 7.67155C231.724 6.03614 227.531 6.17676 222.604 8.16114C211.583 12.5882 207.599 18.4997 205.667 21.3382C204.604 22.9059 203.51 24.5309 201.422 24.1976C199.333 23.8695 198.615 21.7913 198.234 20.5361C195.901 12.9372 190.453 8.54655 182.062 7.49968C169.88 5.96322 155.953 12.3643 152.958 17.2757C151.375 19.6143 150.141 22.1247 149.25 24.807V24.9111C149.297 25.5466 149.156 26.1351 148.844 26.6872C148.526 27.2341 148.083 27.6507 147.51 27.9268C146.953 28.1559 146.38 28.1976 145.792 28.0518C145.208 27.9059 144.719 27.6038 144.328 27.1455C143.865 26.6559 143.63 26.0726 143.63 25.4007C142.38 24.3643 140.953 23.708 139.349 23.432C132.281 21.6872 126.693 22.1924 122.724 25.1768C116.458 29.8955 115.276 39.4841 115.12 44.7861C115.156 45.3122 115.062 45.8226 114.839 46.3018C114.609 46.7861 114.281 47.1768 113.849 47.4841C113.036 48.0153 112.177 48.1038 111.271 47.7497C95.3437 41.4216 89.1146 43.9997 73.4635 52.3851C67.5312 55.557 67.0573 59.2184 67.1302 60.6455C67.1562 61.1663 67.0573 61.6611 66.8281 62.1299C66.5989 62.5986 66.2708 62.9841 65.8385 63.2757C65.4166 63.5466 64.9583 63.6924 64.4531 63.7132C63.9531 63.7341 63.4844 63.6299 63.0364 63.4007C57.2396 60.333 51.375 63.5205 48.401 65.682C40.7604 71.2288 33.7083 83.2549 35.6406 94.6559C36.9114 102.062 30.9219 104.172 26.1041 105.88C17.7812 108.791 7.45831 112.484 9.96352 138.474H9.89581Z" fill="#7F2224"/>
</g>
<path fill-rule="evenodd" clip-rule="evenodd" d="M100.703 160.822C89.1978 157.333 4.32799 138.666 2.98424 139.802C-4.81263 146.39 50.8697 452.822 55.7603 459.114C60.0259 464.64 106.135 505.171 153.849 522.739C163.719 514.671 109.182 201.697 100.703 160.822Z" fill="#DE2926"/>
<path d="M153.849 525.599C153.515 525.599 153.198 525.541 152.89 525.422C103.771 507.349 57.8697 466.489 53.552 460.932C49.828 456.135 30.5936 350.521 21.854 300.13C-5.33346 143.25 -0.776172 139.401 1.19258 137.76C2.5155 136.63 3.17695 136.015 48.6249 145.937C70.2603 150.64 95.3801 156.396 101.526 158.239C102.015 158.39 102.432 158.651 102.776 159.031C103.125 159.411 103.349 159.849 103.458 160.349C107.458 179.698 123.193 267.812 136.911 353.729C163.229 518.625 158.146 522.88 155.625 524.901C155.114 525.349 154.526 525.583 153.849 525.599ZM4.96862 142.729C2.203 169.26 52.3176 446.203 58.078 457.635C61.8697 462.5 105.89 501.213 152.073 519.114C155.901 490.094 107.979 211.317 98.2186 163.052C82.9842 158.833 17.1561 144.526 4.96862 142.729Z" fill="#7F2224"/>
<path fill-rule="evenodd" clip-rule="evenodd" d="M75.7292 154.755L58.1667 150.833L115.38 504.088C121.349 507.572 127.563 511.062 133.917 514.145L75.7292 154.755ZM39.9375 146.843C33.6719 145.499 27.7552 144.244 22.5312 143.182L75.2396 476.322C80.7604 480.697 87.2344 485.557 94.3854 490.525L39.9375 146.843Z" fill="white"/>
<path d="M133.916 516.885C133.484 516.88 133.073 516.781 132.682 516.588C126.588 513.588 120.286 510.171 113.953 506.426C113.203 505.984 112.755 505.333 112.609 504.473L55.4477 151.249C55.38 150.796 55.4165 150.348 55.5675 149.911C55.7134 149.473 55.953 149.098 56.2863 148.775C56.6196 148.453 57.0102 148.234 57.4582 148.109C57.9061 147.984 58.354 147.973 58.8071 148.078C64.9009 149.421 70.8905 150.765 76.3696 152.02C76.9269 152.145 77.4009 152.416 77.7915 152.833C78.1821 153.249 78.4217 153.739 78.5102 154.301L136.703 513.676C136.786 514.192 136.729 514.687 136.531 515.171C136.333 515.656 136.026 516.051 135.604 516.359C135.104 516.723 134.541 516.9 133.916 516.885ZM117.922 502.275C122.083 504.718 126.224 506.999 130.281 509.109L73.2707 157.005L61.578 154.374L117.922 502.275ZM94.3175 493.281C93.7394 493.286 93.2082 493.124 92.7342 492.791C86.1352 488.208 79.6457 483.395 73.4477 478.484C72.8748 478.036 72.5311 477.458 72.4217 476.739L19.6977 143.619C19.6248 143.166 19.6665 142.718 19.8123 142.286C19.9582 141.854 20.1977 141.473 20.5311 141.161C20.8592 140.838 21.2394 140.619 21.6769 140.489C22.1144 140.364 22.5571 140.348 23.005 140.442C28.2238 141.51 34.2498 142.765 40.5155 144.104C41.078 144.223 41.5623 144.494 41.9582 144.916C42.3592 145.338 42.5988 145.833 42.6873 146.406L97.0832 490.093C97.1717 490.645 97.0936 491.176 96.8644 491.682C96.6352 492.192 96.2863 492.598 95.8123 492.895C95.354 493.176 94.854 493.317 94.3175 493.317V493.281ZM77.7655 474.77C81.9061 478.031 86.1873 481.255 90.5415 484.39L37.4842 149.176L25.8592 146.718L77.7655 474.77Z" fill="#7F2224"/>
<path fill-rule="evenodd" clip-rule="evenodd" d="M100.703 160.823C119.542 156.062 432.927 164.047 432.771 167.901C431.88 190.021 382.292 524.552 377.417 524.552C357.313 524.552 155.203 527.099 153.849 522.807C150.073 510.609 100.547 161.729 100.708 160.89L100.703 160.823Z" fill="#DE2926"/>
<mask id="mask1_775_18157" style="mask-type:luminance" maskUnits="userSpaceOnUse" x="97" y="156" width="339" height="373">
<path d="M97.3333 156.333H436V528.302H97.3333V156.333Z" fill="white"/>
</mask>
<g mask="url(#mask1_775_18157)">
<path d="M243.75 528.094C152.578 528.094 151.984 526.156 151.182 523.557C149.114 516.886 134.734 418.974 123.036 337.901C122.776 336.162 97.6613 161.849 97.9738 160.281C98.078 159.755 98.3176 159.297 98.6874 158.906C99.0624 158.516 99.5051 158.255 100.026 158.12C118.562 153.432 428.016 160.37 434.474 165.63C435.213 166.255 435.573 167.052 435.552 168.021C435.068 180.031 421.63 274.349 409.359 354.948C404.359 387.844 397.083 434.943 390.75 472.417C381.489 527.344 380.552 527.344 377.469 527.344C374.385 527.344 366.031 527.344 354.682 527.5C307.599 527.917 271.479 528.094 243.75 528.094ZM156.213 520.646C171.167 523.453 308.609 522.302 354.651 521.922L375.729 521.766C383.385 498.198 426.745 203.792 429.828 170.01C404.411 166.766 138.078 158.818 103.854 163.125C108.052 193.766 150.891 496.052 156.213 520.646Z" fill="#7F2224"/>
</g>
<path d="M169.896 159.427L219.438 525.234C211.479 525.234 203.927 525.109 196.948 525.021L147.406 159.359C154.37 159.359 161.906 159.359 169.896 159.359V159.427ZM399.995 165.214L356.74 524.708L334.25 524.885L377.641 164.255C385.807 164.568 393.307 164.901 399.995 165.214ZM323.266 162.427L321.422 524.99L299.172 525.13L301.021 161.797L323.266 162.427ZM250.245 160.682L273.88 525.25H251.552L227.875 160.141L250.245 160.578V160.682Z" fill="white"/>
<mask id="mask2_775_18157" style="mask-type:luminance" maskUnits="userSpaceOnUse" x="144" y="156" width="260" height="373">
<path d="M144 156.333H404V528.302H144V156.333Z" fill="white"/>
</mask>
<g mask="url(#mask2_775_18157)">
<path d="M251.552 528.093C251.198 528.088 250.854 528.026 250.526 527.89C250.198 527.76 249.901 527.573 249.646 527.333C249.385 527.088 249.182 526.807 249.031 526.489C248.875 526.166 248.792 525.828 248.766 525.474L225.094 160.369C225.036 159.552 225.292 158.849 225.859 158.26C226.411 157.64 227.104 157.354 227.927 157.385L250.297 157.822C250.646 157.828 250.979 157.895 251.302 158.031C251.625 158.161 251.917 158.349 252.167 158.588C252.422 158.828 252.62 159.109 252.771 159.421C252.922 159.739 253.005 160.072 253.031 160.421L276.667 525.057C276.719 525.864 276.469 526.562 275.922 527.151C275.38 527.744 274.703 528.041 273.901 528.036H251.568L251.552 528.093ZM230.87 163.036L254.177 522.494H270.906L247.615 163.416L230.87 163.036ZM219.438 528.02C211.479 528.02 203.906 527.916 196.911 527.828C196.578 527.828 196.255 527.765 195.943 527.64C195.63 527.52 195.349 527.349 195.099 527.13C194.849 526.906 194.646 526.645 194.495 526.349C194.339 526.052 194.24 525.739 194.198 525.406L144.641 159.724C144.536 158.89 144.755 158.151 145.302 157.51C146.323 156.682 147.484 156.369 148.781 156.567C155.344 156.567 162.396 156.567 169.844 156.567C170.177 156.572 170.505 156.635 170.818 156.755C171.13 156.875 171.411 157.046 171.661 157.27C171.911 157.489 172.12 157.75 172.276 158.046C172.432 158.343 172.531 158.656 172.578 158.989L222.203 524.849C222.26 525.25 222.229 525.64 222.115 526.031C222 526.416 221.807 526.765 221.542 527.067C221.276 527.369 220.958 527.609 220.594 527.776C220.224 527.942 219.839 528.02 219.438 528.02ZM199.385 522.27L216.234 522.406L167.495 162.218H150.661L199.385 522.27ZM299.141 527.916C298.771 527.916 298.411 527.843 298.068 527.703C297.729 527.562 297.427 527.359 297.161 527.093C296.901 526.828 296.703 526.526 296.563 526.182C296.422 525.838 296.354 525.484 296.354 525.109L298.198 161.796C298.203 161.015 298.484 160.349 299.036 159.791C299.589 159.229 300.266 158.968 301.052 159.01L323.302 159.635C323.667 159.645 324.016 159.718 324.349 159.864C324.688 160.01 324.979 160.218 325.234 160.479C325.49 160.739 325.682 161.041 325.818 161.385C325.953 161.724 326.021 162.078 326.016 162.442L324.172 525.005C324.172 525.375 324.099 525.729 323.958 526.067C323.818 526.406 323.62 526.708 323.359 526.963C323.099 527.224 322.802 527.427 322.464 527.567C322.125 527.708 321.771 527.776 321.401 527.776L299.156 527.916H299.141ZM303.771 164.671L301.943 522.323L318.62 522.218L320.359 165.145L303.771 164.671ZM334.25 527.692C333.412 527.687 332.719 527.375 332.162 526.75C331.604 526.119 331.375 525.385 331.479 524.552L374.859 163.927C374.896 163.572 375 163.244 375.167 162.932C375.333 162.619 375.547 162.349 375.818 162.125C376.083 161.895 376.385 161.724 376.719 161.609C377.052 161.494 377.396 161.447 377.745 161.468C385.927 161.781 393.412 162.109 400.13 162.427C400.516 162.447 400.88 162.541 401.229 162.718C401.573 162.89 401.87 163.125 402.12 163.416C402.365 163.713 402.547 164.046 402.656 164.416C402.771 164.786 402.802 165.161 402.76 165.546L359.505 525.041C359.464 525.375 359.365 525.692 359.214 525.994C359.057 526.296 358.854 526.557 358.599 526.786C358.349 527.01 358.068 527.187 357.75 527.307C357.438 527.432 357.109 527.494 356.771 527.5L334.266 527.692H334.25ZM380.099 167.151L337.432 522.114L354.302 521.989L396.896 167.916L380.099 167.151Z" fill="#7F2224"/>
</g>
<path d="M280.948 160.563C280.385 160.552 279.87 160.396 279.401 160.078C278.932 159.76 278.588 159.339 278.375 158.818C278.25 158.5 278.182 158.167 278.177 157.828C278.172 157.484 278.229 157.151 278.344 156.833C278.463 156.51 278.635 156.219 278.859 155.964C279.083 155.703 279.344 155.495 279.646 155.333C281 153.292 279.781 141.667 273.255 135.755C265.177 128.438 254.562 135.755 247.057 143.25C243.578 146.74 244.484 150.224 245.318 153.188C245.614 154.177 245.786 155.188 245.838 156.219C245.87 156.609 245.823 156.99 245.693 157.359C245.568 157.729 245.37 158.057 245.104 158.344C244.838 158.635 244.526 158.854 244.172 159.01C243.812 159.172 243.437 159.25 243.047 159.25C242.656 159.25 242.281 159.172 241.922 159.01C241.568 158.854 241.255 158.635 240.989 158.344C240.724 158.057 240.526 157.729 240.401 157.359C240.271 156.99 240.224 156.609 240.255 156.219C240.172 155.661 240.057 155.109 239.906 154.563C239.052 151.219 237.469 144.979 243.177 139.276C256.562 125.943 266.224 125.979 271.969 128.349C281.927 132.443 285.703 145.115 285.755 152.125C285.755 157.63 283.786 159.635 282.099 160.37C281.729 160.516 281.349 160.578 280.948 160.563ZM177.713 159.776C177.068 159.786 176.489 159.599 175.969 159.219C175.677 158.995 175.432 158.724 175.245 158.401C175.057 158.083 174.937 157.74 174.885 157.375C174.833 157.005 174.849 156.641 174.943 156.281C175.036 155.922 175.193 155.594 175.416 155.297C178.896 150.521 175.083 145.953 173.239 144.208C168.922 140.115 161.557 137.708 157.87 140.724C157.443 141.078 156.958 141.292 156.406 141.354C155.859 141.422 155.338 141.333 154.838 141.089C154.271 140.792 153.838 140.349 153.547 139.776C153.255 139.198 153.161 138.589 153.255 137.953C153.255 135.688 153.536 128.839 143.786 126.063C142.39 125.802 140.995 125.792 139.599 126.031C138.198 126.271 136.885 126.745 135.656 127.458C134.385 128.099 133.505 129.089 133.01 130.422C132.87 130.932 132.614 131.385 132.26 131.771C131.901 132.161 131.474 132.453 130.974 132.635C130.229 132.786 129.5 132.734 128.786 132.474C128.073 132.214 127.479 131.786 127.005 131.188C126.015 130.229 124.896 129.458 123.646 128.87C116.198 125.854 112.682 131.156 111.776 132.865C109.724 136.714 109.755 142.292 113.776 145.167L114.057 145.292C114.401 145.427 114.713 145.63 114.979 145.891C115.245 146.151 115.453 146.453 115.604 146.797C115.75 147.141 115.828 147.5 115.828 147.87C115.833 148.245 115.771 148.604 115.63 148.953C115.489 149.302 115.291 149.609 115.031 149.875C114.771 150.146 114.469 150.349 114.125 150.5C113.781 150.646 113.422 150.719 113.047 150.724C112.672 150.729 112.312 150.661 111.969 150.521L111.396 150.292C111.213 150.224 111.047 150.135 110.89 150.031C109.745 149.24 108.745 148.292 107.88 147.203C107.015 146.115 106.328 144.922 105.812 143.625C105.297 142.333 104.979 140.99 104.859 139.604C104.739 138.214 104.823 136.839 105.109 135.479C100.932 137.776 94.6665 139.083 85.4217 137.219C82.9738 136.724 80.6508 135.875 78.4581 134.677C78.2081 135.948 77.7863 137.161 77.2029 138.318C76.6144 139.474 75.8904 140.531 75.0154 141.49C74.1456 142.448 73.1613 143.271 72.0623 143.964C70.9633 144.651 69.7967 145.182 68.5571 145.552C59.5571 148.13 48.5727 142.432 44.6717 137.203C36.9113 126.745 40.3592 120.885 43.4008 117.839C33.5675 114.75 32.1613 107.901 32.0206 104.958C31.9946 104.177 32.0311 103.401 32.1248 102.63C32.2238 101.859 32.38 101.099 32.5936 100.349C32.8123 99.599 33.0831 98.875 33.4113 98.1719C33.7394 97.4635 34.1248 96.7865 34.5571 96.1458C34.9946 95.5 35.4738 94.8906 36.005 94.3229C36.5363 93.75 37.104 93.2292 37.7186 92.7448C38.3279 92.2656 38.9738 91.8385 39.6561 91.4583C40.3331 91.0781 41.0363 90.7552 41.7654 90.4896C44.5154 89.5625 51.604 88.4115 57.8331 97.599C58.0415 97.9062 58.1821 98.2396 58.2602 98.6042C58.3383 98.9687 58.3383 99.3281 58.2706 99.6927C58.2029 100.057 58.0675 100.396 57.8644 100.708C57.6613 101.016 57.4061 101.276 57.0988 101.484C56.7915 101.693 56.4581 101.833 56.0936 101.911C55.729 101.984 55.3696 101.984 55.005 101.917C54.6404 101.849 54.3019 101.708 53.9946 101.505C53.6873 101.302 53.4269 101.047 53.2186 100.74C50.2967 96.4323 46.8488 94.6875 43.5258 95.7865C42.6352 96.1406 41.8227 96.6146 41.0779 97.2135C40.3331 97.8177 39.6977 98.5156 39.1665 99.3125C38.6352 100.109 38.2342 100.964 37.9686 101.88C37.6977 102.802 37.5727 103.74 37.5883 104.693C37.7811 108.703 41.0727 111.667 46.7446 112.958C48.0831 113.271 50.5727 113.844 51.0988 116.109C51.6196 118.38 49.9633 119.599 48.7811 120.521C46.1352 122.682 42.8279 125.385 49.1456 133.854C51.9842 137.656 60.7394 141.995 67.005 140.182C70.9425 139.052 73.1873 135.495 73.6561 129.724C73.7081 129.203 73.8904 128.729 74.2029 128.307C74.5154 127.885 74.9113 127.573 75.3956 127.37C75.9321 127.188 76.479 127.151 77.0363 127.26C77.5936 127.37 78.0831 127.609 78.5102 127.984C80.8852 129.948 83.5831 131.229 86.604 131.818C96.4425 133.839 103.63 131.938 106.885 126.464C107.557 125.245 108.041 123.953 108.338 122.589C108.64 121.224 108.739 119.849 108.64 118.458C108.541 117.068 108.245 115.719 107.76 114.411C107.271 113.104 106.609 111.891 105.771 110.776C105.364 110.224 104.875 109.755 104.302 109.37C103.734 108.984 103.12 108.703 102.453 108.526C101.786 108.354 101.114 108.297 100.427 108.354C99.7446 108.411 99.0883 108.578 98.4581 108.859C98.1144 108.995 97.755 109.057 97.3852 109.047C97.0154 109.036 96.6613 108.958 96.3227 108.807C95.9842 108.656 95.6821 108.448 95.4269 108.177C95.1717 107.906 94.979 107.599 94.8436 107.255C94.7133 106.906 94.6456 106.552 94.6561 106.177C94.6665 105.807 94.7446 105.453 94.8956 105.115C95.0415 104.771 95.255 104.474 95.5206 104.219C95.7863 103.964 96.0936 103.766 96.4425 103.63C97.4477 103.198 98.4946 102.911 99.5779 102.776C100.666 102.646 101.75 102.667 102.828 102.849C103.911 103.026 104.943 103.354 105.932 103.833C106.916 104.307 107.812 104.917 108.625 105.651C109.073 102.016 110.39 98.724 112.578 95.7865C118.286 88.3958 122.187 85.8177 131.724 88.9531C132.385 89.1719 133.021 89.4583 133.62 89.8073C135.245 88.6771 137 87.8125 138.89 87.2187C140.781 86.625 142.713 86.3229 144.693 86.3229C153.568 85.9896 159.885 89.9844 161.422 96.974C163.552 96.8281 165.656 96.9948 167.739 97.4792C169.734 97.8958 171.635 98.5937 173.432 99.5677C166.208 95.0885 162.984 87.2448 164.568 77.2917C164.812 75.7917 165.135 74.3125 165.547 72.849C165.12 72.474 164.838 72.0156 164.698 71.4687C164.552 70.9219 164.573 70.3854 164.76 69.849C165.135 68.8542 165.416 67.8333 165.609 66.7865C165.797 65.7396 165.896 64.6823 165.901 63.6198C165.906 62.5521 165.818 61.4948 165.635 60.4479C165.453 59.401 165.182 58.375 164.818 57.375C164.453 56.375 164.005 55.4167 163.474 54.4948C162.943 53.5729 162.328 52.7083 161.646 51.8958C160.958 51.0833 160.203 50.3385 159.385 49.6562C158.568 48.9792 157.698 48.375 156.771 47.8542C152.698 45.5156 148.588 45.3594 146.765 47.4531C146.224 48.0781 145.536 48.4062 144.708 48.4271C143.682 48.4323 142.849 48.0365 142.203 47.2396C140.89 45.9219 139.39 44.8854 137.693 44.1198C130.838 40.7552 123.088 40.6354 117.922 43.7917C113.708 46.3698 111.427 50.9531 111.307 57.0573C111.307 62.2865 115.781 67.1146 117.469 68.6979C119.057 67.7292 120.776 67.1302 122.625 66.901C124.474 66.6719 126.291 66.8385 128.068 67.3906C130.521 68.1771 138.338 71.7656 136.474 85.1719C136.401 85.5208 136.265 85.8385 136.068 86.1354C135.875 86.4323 135.63 86.6771 135.338 86.8802C135.047 87.0833 134.729 87.2292 134.385 87.3073C134.041 87.3906 133.693 87.4062 133.344 87.3594C132.995 87.3073 132.661 87.1979 132.354 87.0208C132.047 86.849 131.781 86.6198 131.557 86.3437C131.333 86.0729 131.172 85.7656 131.062 85.4271C130.958 85.0885 130.916 84.7396 130.943 84.3854C131.812 78.1823 130.14 73.9271 126.38 72.724C123.318 71.75 119.974 73.0417 119.036 74.8698C118.786 75.3437 118.427 75.7135 117.969 75.9844C117.505 76.2552 117.01 76.3802 116.474 76.3698C115.943 76.3594 115.458 76.2083 115.01 75.9167C114.568 75.625 114.239 75.2344 114.021 74.75C112.505 73.1823 110.854 71.7708 109.078 70.5104C105.109 67.4948 96.2133 67.3906 90.4008 70.2865C88.2602 71.349 85.7342 73.2135 85.7342 76.125C85.7342 77.026 85.38 77.7604 84.6717 78.3229C83.9686 78.8646 83.1769 79.0469 82.3071 78.8594C80.9842 78.5469 80.7029 77.974 79.6769 75.8125C78.9113 74.1927 76.5623 69.276 76.0571 68.5052C72.9061 64.5 68.8019 62.1979 65.6144 62.7396C62.4269 63.276 60.6196 66.7135 59.6977 69.4687C58.6508 72.6198 58.1456 76.875 58.6665 78.0417C59.0154 78.1823 59.3227 78.3802 59.5883 78.6406C59.8592 78.8958 60.0623 79.1979 60.2133 79.5417C60.3592 79.8854 60.4373 80.2396 60.4425 80.6146C60.4477 80.9896 60.38 81.349 60.2446 81.6927C60.1092 82.0417 59.9061 82.349 59.6508 82.6146C59.3904 82.8854 59.0883 83.0937 58.7446 83.2396C58.4061 83.3854 58.0467 83.4635 57.6769 83.4687C57.3019 83.474 56.9425 83.4115 56.5988 83.2708C50.1769 81.0417 53.9529 69.099 54.4061 67.7396C56.9269 60.125 61.3644 57.8385 64.6561 57.2812C69.88 56.3594 75.8644 59.3229 80.4633 65.1979C81.3019 66.4948 82.0311 67.8542 82.6561 69.276C84.1196 67.599 85.8644 66.2812 87.8748 65.3333C90.8644 63.9271 94.005 63.0729 97.2967 62.7708C100.588 62.474 103.828 62.7448 107.026 63.5937C106.14 61.5052 105.708 59.3229 105.734 57.0573C105.875 49.0729 109.219 42.6927 115.015 39.1198C121.854 34.9167 131.479 34.9531 140.151 39.2083C141.776 39.9792 143.291 40.9323 144.693 42.0625L144.916 41.9271C142.521 38.6667 141.224 35.0208 141.021 30.9792C141.021 25.2292 144.916 20.3437 151.88 17.6094C161.89 13.6719 176.875 14.6823 184.588 23.1719C185.234 23.8646 185.812 24.6042 186.328 25.401C192.854 17.7135 201.995 18.4271 208.401 21.9167C215.172 25.5052 220.338 32.8594 217.276 38.9792C217.094 39.2812 216.864 39.5417 216.583 39.7604C216.302 39.974 215.995 40.1354 215.656 40.2344C215.318 40.3333 214.969 40.3646 214.62 40.3333C214.265 40.3021 213.932 40.2031 213.614 40.0469C213.302 39.8854 213.026 39.6771 212.786 39.4115C212.552 39.151 212.37 38.8542 212.25 38.5208C212.125 38.1875 212.068 37.8437 212.073 37.4896C212.078 37.1354 212.146 36.7969 212.281 36.4687C213.588 33.875 210.541 29.375 205.786 26.849C203.193 25.4687 194.281 21.776 188.588 32.0781C188.318 32.651 187.911 33.0937 187.364 33.4115C186.818 33.7292 186.229 33.8646 185.599 33.8177C184.906 33.6979 184.307 33.3906 183.797 32.901C183.291 32.4115 182.963 31.8229 182.812 31.1354C182.349 29.599 181.578 28.2396 180.495 27.0573C174.666 20.6406 162.062 19.7552 153.953 22.9427C151.203 24.026 146.588 26.4271 146.64 31.0469C146.64 33.0521 147.427 36.276 150.802 40.6354C153.927 40.7552 156.828 41.6302 159.505 43.25C161.323 44.276 162.974 45.526 164.458 46.9948C165.943 48.4635 167.213 50.1042 168.26 51.9115C169.307 53.7187 170.099 55.6354 170.635 57.651C171.177 59.6719 171.437 61.7292 171.427 63.8177L171.932 63.5052C176.109 60.9948 180.635 61.9896 183.666 62.9115C184.047 60.8906 184.771 58.9948 185.844 57.2396C186.911 55.4792 188.26 53.9635 189.88 52.6979C191.479 51.4583 193.193 50.3958 195.015 49.5104C196.838 48.6302 198.734 47.9427 200.703 47.4583C202.666 46.9687 204.661 46.6927 206.687 46.625C208.713 46.5573 210.724 46.6979 212.719 47.0521C224.901 49.6979 227.25 52.8385 230.125 60.8906C234.963 60.0208 240.443 62.7396 244.781 68.4375C249.114 74.1354 251.916 83.0625 248.088 89.4583C250.88 90.1719 253.479 91.3229 255.885 92.9115C258.286 94.5 260.364 96.4427 262.114 98.7344C262.88 97.3906 263.849 96.2187 265.021 95.2187C266.198 94.2135 267.51 93.4479 268.958 92.9115C288.609 85.1875 295.745 97.3542 297.469 101.276C300.234 107.589 299.943 116.271 295.083 118.708C294.75 118.87 294.401 118.964 294.031 118.99C293.661 119.01 293.302 118.964 292.953 118.844C292.604 118.724 292.286 118.542 292.01 118.297C291.734 118.052 291.51 117.76 291.349 117.427C291.187 117.094 291.094 116.745 291.073 116.375C291.047 116.005 291.099 115.646 291.219 115.292C291.338 114.943 291.521 114.63 291.765 114.349C292.01 114.073 292.297 113.854 292.63 113.688C293.568 113.115 294.614 108.13 292.073 102.984C290.036 98.8906 284.625 92.8437 270.995 98.1927C264.656 100.687 265.771 107.76 265.979 108.563C266.031 108.917 266.015 109.271 265.932 109.615C265.849 109.964 265.703 110.286 265.495 110.578C265.291 110.87 265.036 111.115 264.739 111.307C264.437 111.505 264.114 111.641 263.765 111.708C263.411 111.781 263.062 111.786 262.713 111.724C262.359 111.656 262.031 111.531 261.729 111.344C261.427 111.156 261.166 110.917 260.953 110.63C260.739 110.344 260.588 110.026 260.495 109.677C260.109 108.047 259.625 106.443 259.052 104.87C256.791 98.1771 246.068 92.7917 238.911 94.7396C230.802 96.974 231.724 107.359 232.995 113.375C234.474 120.349 242.745 122.839 249.375 122.839C249.745 122.839 250.099 122.911 250.443 123.052C250.781 123.193 251.083 123.396 251.344 123.656C251.604 123.917 251.807 124.219 251.948 124.563C252.088 124.901 252.161 125.26 252.161 125.63C252.161 126 252.088 126.354 251.948 126.698C251.807 127.036 251.604 127.339 251.344 127.599C251.083 127.865 250.781 128.063 250.443 128.203C250.099 128.349 249.745 128.417 249.375 128.417C245.87 128.422 242.463 127.844 239.156 126.677C239.052 128.182 238.745 129.651 238.245 131.078C237.739 132.505 237.057 133.833 236.193 135.078C235.328 136.318 234.312 137.417 233.151 138.385C231.989 139.349 230.719 140.141 229.338 140.76C227.651 141.469 225.901 141.948 224.088 142.198C222.276 142.448 220.463 142.464 218.646 142.24C216.828 142.016 215.073 141.563 213.375 140.88C211.677 140.198 210.094 139.307 208.625 138.214C200.271 132.026 200.672 126.01 201.661 122.682C200.693 122.479 199.76 122.161 198.864 121.729C197.974 121.292 197.146 120.755 196.385 120.115C195.625 119.474 194.958 118.75 194.375 117.943C193.797 117.135 193.323 116.271 192.958 115.344C192.224 113.349 191.807 111.292 191.708 109.167C191.614 107.042 191.844 104.953 192.401 102.901C187.672 103.755 183.031 103.411 178.479 101.87C176.953 101.359 175.489 100.708 174.094 99.9167C175.661 100.865 176.922 102.125 177.87 103.703C178.463 104.729 178.818 105.839 178.922 107.026C179.031 108.208 178.88 109.359 178.479 110.479C177.995 111.698 177.198 112.646 176.078 113.323C175.76 113.49 175.427 113.594 175.073 113.635C174.719 113.672 174.37 113.646 174.026 113.552C173.687 113.458 173.37 113.307 173.088 113.089C172.802 112.875 172.568 112.615 172.385 112.313C172.198 112.005 172.078 111.677 172.015 111.328C171.958 110.974 171.963 110.625 172.041 110.276C172.114 109.927 172.25 109.609 172.448 109.313C172.646 109.016 172.89 108.766 173.187 108.563V108.479C173.416 107.781 173.344 107.115 172.958 106.49C171.948 104.745 168.906 103.385 166.484 102.901C162.776 102.13 161.104 102.479 160.739 102.76C160.302 103.099 159.802 103.307 159.25 103.375C158.703 103.443 158.172 103.365 157.661 103.141C157.161 102.859 156.771 102.464 156.489 101.964C156.203 101.464 156.068 100.927 156.078 100.354C156.073 99.8385 156.036 99.3281 155.953 98.8177C155.469 95.3333 153.203 93.0521 149.219 92.1979C143.75 90.9948 137.937 92.9271 136.896 94.2031C136.906 94.5312 136.859 94.849 136.76 95.1615C136.656 95.474 136.505 95.7604 136.307 96.0208C136.109 96.2812 135.87 96.5052 135.594 96.6823C135.318 96.8594 135.021 96.9844 134.698 97.0573C134.057 97.1667 133.443 97.0781 132.854 96.7865C132.271 96.5 131.823 96.0677 131.515 95.4896C131.12 94.8125 130.541 94.3958 129.776 94.2344C123.161 92.0417 121.541 93.1354 116.859 99.1667C114.755 101.885 113.219 106.719 114.302 110.063C114.484 110.646 114.479 111.224 114.286 111.802C114.094 112.38 113.75 112.849 113.255 113.203C114.323 116.646 114.495 120.13 113.76 123.661C115.677 122.833 117.677 122.432 119.765 122.458C121.849 122.479 123.838 122.927 125.734 123.797C126.995 124.313 128.156 125 129.219 125.854C130.224 124.573 131.432 123.531 132.854 122.734C134.734 121.635 136.745 120.922 138.896 120.589C141.041 120.255 143.177 120.323 145.302 120.802C149.896 122.089 157.172 125.526 158.599 134.328C164.62 132.724 172.229 135.599 177.083 140.203C183.073 145.885 184.151 152.979 179.885 158.693C179.333 159.401 178.609 159.76 177.713 159.776ZM209.568 92.526C208.12 92.5573 206.739 92.8802 205.427 93.4844C204.114 94.0885 202.974 94.9323 202.01 96.0156C197.729 100.547 195.916 108.214 197.989 113.182C198.255 113.849 198.62 114.453 199.078 115.005C199.536 115.557 200.068 116.021 200.672 116.401C201.276 116.786 201.922 117.063 202.614 117.24C203.312 117.417 204.015 117.484 204.729 117.438C205.26 117.438 205.765 117.563 206.245 117.807C206.719 118.057 207.114 118.396 207.427 118.833C207.776 119.464 207.948 120.141 207.948 120.859C207.948 121.583 207.776 122.26 207.427 122.891C206.536 125.208 205.177 128.729 211.896 133.719C212.979 134.484 214.14 135.104 215.38 135.573C216.62 136.042 217.896 136.349 219.213 136.495C220.531 136.635 221.844 136.615 223.156 136.422C224.469 136.229 225.734 135.87 226.953 135.354C227.927 134.911 228.823 134.344 229.63 133.646C230.443 132.953 231.146 132.156 231.729 131.26C232.318 130.365 232.771 129.406 233.083 128.385C233.401 127.365 233.568 126.318 233.588 125.245C233.614 124.729 233.781 124.266 234.094 123.849C232.39 122.74 230.963 121.344 229.812 119.667C228.666 117.984 227.88 116.151 227.458 114.161C223.406 94.9844 233.031 90.1719 237.364 88.9896C238.776 88.6094 240.219 88.4062 241.682 88.3802C241.818 88.0937 242 87.8385 242.219 87.6146C246 83.7083 244.099 76.5625 240.271 71.5208C237.401 67.7396 232.995 64.7604 229.651 66.5885C229.291 66.7917 228.906 66.9062 228.495 66.9323C228.083 66.9583 227.687 66.8958 227.307 66.75C226.922 66.599 226.588 66.375 226.302 66.0729C226.021 65.776 225.812 65.4323 225.682 65.0417L225.422 64.2708C222.672 56.2187 222.099 54.526 211.5 52.2083C209.916 51.9531 208.323 51.8594 206.724 51.9271C205.12 51.9948 203.541 52.224 201.989 52.6094C200.432 52.9948 198.932 53.5365 197.484 54.224C196.036 54.9115 194.677 55.7396 193.396 56.7083C191.958 57.7969 190.844 59.151 190.062 60.7812C189.276 62.4062 188.911 64.125 188.958 65.9271C188.943 66.9531 188.536 67.7812 187.739 68.4219C186.328 69.4479 184.885 68.9427 183.229 68.4219C180.932 67.6354 177.453 66.4323 174.786 68.0521C172.474 69.4323 170.818 72.9375 170 78.1458C168.854 85.4531 170.698 90.8698 175.469 94.2344C181.281 98.3646 189.39 98.2083 191.427 97.4062C191.849 96.9583 192.359 96.6771 192.963 96.5625C193.568 96.4531 194.146 96.5312 194.703 96.7969C195.599 95.1302 196.693 93.6094 197.989 92.2292C199.052 91.0312 200.271 90.0208 201.64 89.1979C203.015 88.3698 204.479 87.7708 206.036 87.3958C207.594 87.0208 209.166 86.8854 210.765 86.9948C212.359 87.1042 213.906 87.4479 215.396 88.0312C215.713 88.1771 215.995 88.375 216.234 88.625C216.479 88.875 216.666 89.1615 216.802 89.4844C216.937 89.8073 217.01 90.1458 217.021 90.4948C217.026 90.8437 216.974 91.1823 216.854 91.5104C216.739 91.8385 216.562 92.1354 216.333 92.3958C216.104 92.6615 215.833 92.875 215.526 93.0365C215.219 93.1979 214.89 93.2969 214.541 93.3385C214.198 93.375 213.854 93.349 213.515 93.2604C212.245 92.7812 210.927 92.5365 209.568 92.526ZM403.927 156.063C403.578 156.073 403.239 156.016 402.911 155.896C402.583 155.776 402.291 155.599 402.031 155.37C401.765 155.141 401.557 154.87 401.396 154.557C401.234 154.25 401.135 153.922 401.099 153.573C401.062 153.224 401.088 152.885 401.182 152.547C401.271 152.208 401.422 151.901 401.625 151.62C401.833 151.339 402.083 151.104 402.38 150.917C402.672 150.729 402.995 150.604 403.333 150.536C414.562 148.078 420.255 142.12 420.255 132.844C420.156 130.714 419.594 128.708 418.573 126.833C417.547 124.964 416.166 123.411 414.422 122.177C410.541 119.146 405.318 117.714 401.838 118.536C400.375 118.917 398.948 119.214 397.588 119.495C391.291 120.781 389.791 121.448 389.844 125.141C392.245 133.385 388.802 140.828 381.349 143.375C381.021 143.427 380.698 143.427 380.37 143.365C380.041 143.302 379.734 143.188 379.453 143.016C379.166 142.844 378.922 142.63 378.713 142.37C378.505 142.109 378.349 141.823 378.245 141.505C378.135 141.188 378.088 140.865 378.099 140.531C378.109 140.203 378.182 139.88 378.307 139.573C378.432 139.266 378.604 138.984 378.828 138.74C379.052 138.495 379.312 138.297 379.609 138.146C384.833 136.401 385.838 131.068 384.463 126.589V126.411C384.213 125.573 383.88 124.76 383.469 123.99C383.052 123.214 382.562 122.484 382.005 121.813C381.443 121.135 380.818 120.521 380.13 119.974C379.448 119.427 378.713 118.948 377.932 118.552C377.151 118.151 376.333 117.833 375.489 117.599C374.64 117.365 373.781 117.219 372.906 117.156C372.031 117.099 371.156 117.125 370.286 117.245C369.416 117.359 368.568 117.563 367.739 117.854C367.635 117.854 367.375 118.151 366.901 119.599C366.849 119.99 366.734 120.359 366.552 120.708C366.37 121.057 366.13 121.365 365.838 121.63C365.547 121.896 365.219 122.099 364.854 122.25C364.489 122.396 364.109 122.479 363.719 122.49C361.318 122.49 360.76 120.521 359.646 116.672C357.172 108.057 348.646 106.401 342.099 107.589C335.552 108.771 329.182 113.026 329.724 119.688C329.755 120.026 329.724 120.359 329.635 120.693C329.547 121.021 329.396 121.323 329.198 121.599C328.995 121.875 328.75 122.109 328.463 122.292C328.172 122.479 327.864 122.609 327.526 122.677C327.193 122.75 326.859 122.76 326.521 122.703C326.182 122.651 325.864 122.542 325.568 122.37C325.271 122.203 325.015 121.984 324.797 121.719C324.583 121.453 324.416 121.161 324.307 120.833C323.562 118.76 317.958 116.755 312.401 118.203C304.448 120.297 301.021 128.052 303.021 139.505C303.526 142.38 309.776 148.099 313.463 149.036C313.802 149.151 314.104 149.323 314.375 149.552C314.646 149.781 314.864 150.047 315.031 150.359C315.203 150.672 315.307 151.005 315.349 151.354C315.396 151.708 315.37 152.052 315.281 152.396C315.193 152.74 315.047 153.057 314.838 153.344C314.63 153.63 314.38 153.87 314.083 154.057C313.786 154.25 313.463 154.38 313.114 154.448C312.771 154.521 312.422 154.521 312.073 154.458C307.161 153.203 298.51 146.286 297.505 140.516C293.776 119.109 306.87 113.932 310.974 112.854C313.297 112.219 315.656 112.01 318.052 112.229C320.448 112.448 322.734 113.078 324.901 114.125C327.234 107.536 334.25 103.385 341.088 102.151C350.088 100.495 360.479 103.385 364.38 113.359C364.906 112.958 365.489 112.661 366.12 112.469C367.01 112.172 367.916 111.948 368.844 111.792C369.771 111.63 370.698 111.547 371.64 111.531C372.578 111.516 373.51 111.573 374.443 111.698C375.37 111.828 376.286 112.026 377.182 112.292C378.083 112.557 378.958 112.896 379.807 113.297C380.656 113.693 381.469 114.156 382.25 114.682C383.026 115.208 383.76 115.786 384.448 116.427C385.14 117.063 385.776 117.75 386.364 118.484C388.75 115.677 392.771 114.839 396.495 114.073C397.765 113.828 399.088 113.547 400.443 113.203C405.666 111.839 412.526 113.672 417.854 117.854C419.057 118.719 420.146 119.708 421.125 120.823C422.099 121.938 422.932 123.151 423.63 124.458C424.323 125.771 424.859 127.141 425.234 128.573C425.609 130.01 425.818 131.469 425.859 132.948C425.859 144.875 418.286 153.083 404.552 156.099C404.344 156.115 404.135 156.104 403.927 156.063ZM351.359 101.594C351 101.604 350.646 101.552 350.307 101.427C349.969 101.307 349.661 101.125 349.39 100.885C349.125 100.641 348.911 100.359 348.75 100.036C348.588 99.7083 348.5 99.3646 348.474 99.0052C348.448 98.6458 348.489 98.2917 348.599 97.9479C348.708 97.6042 348.88 97.2917 349.114 97.0156C349.349 96.7396 349.62 96.5156 349.943 96.3437C350.26 96.1719 350.599 96.0677 350.958 96.0312C352.427 95.7865 353.583 95.0521 354.437 93.8333C354.807 93.4323 355.172 93.0521 355.573 92.6667C361.281 87.2656 362.849 82.2083 360.219 77.3802C356.13 70.026 344.255 66.1198 341.073 66.9219C332.005 69.3073 329.443 71.0365 328.885 71.4375C328.552 71.8958 328.12 72.2292 327.594 72.4323C327.062 72.6354 326.515 72.6719 325.963 72.5521C325.661 72.4792 325.375 72.3646 325.109 72.1979C324.844 72.0312 324.614 71.8281 324.422 71.5833C324.224 71.3385 324.073 71.0729 323.969 70.776C323.864 70.4844 323.807 70.1823 323.802 69.8698C323.776 69.6094 323.776 69.3542 323.802 69.099C322.911 67.4635 321.724 66.0781 320.234 64.9531C318.01 62.9844 313.693 62.4219 308.713 63.4375C305.807 64.0208 303.073 65.0573 300.515 66.5573V66.6615C299.864 68.0833 298.963 69.3333 297.812 70.3958C296.661 71.4583 295.354 72.2604 293.885 72.7969C293.26 73.0208 292.64 73.0208 292.021 72.7969L291.791 72.6719C291.489 72.5208 291.224 72.3177 290.995 72.0625C290.734 71.7604 290.541 71.4167 290.416 71.0365C290.318 70.6979 290.276 70.3542 290.297 70.0052C290.323 69.6875 290.396 69.3802 290.521 69.0833C291.859 66.5469 293.729 64.4948 296.13 62.9323C297.036 60.6875 297.203 58.3958 296.635 56.0469C296.078 54.2708 295.151 52.7135 293.864 51.3698C292.573 50.0312 291.057 49.0521 289.307 48.4271C285.172 46.9323 280.948 46.6094 276.635 47.4531C276.443 47.8021 276.203 48.125 275.922 48.4115C275.25 49.0885 274.443 49.349 273.5 49.1927C270.489 48.724 270.26 46.6146 270.26 45.9896C270.265 45.4583 270.39 44.9635 270.64 44.5C270.89 44.0365 271.234 43.6615 271.672 43.375C271.344 40.599 269.495 35.5625 266.448 34.5521C265.599 34.224 264.719 34 263.807 33.8802C262.901 33.7604 261.995 33.7552 261.083 33.8594C260.172 33.9635 259.291 34.1719 258.432 34.4896C257.573 34.8073 256.765 35.224 256.005 35.7396C254.599 36.5208 252.245 37.849 250.333 35.8594C249.969 35.4062 249.536 35.0469 249.026 34.776C248.515 34.5052 247.969 34.3437 247.396 34.2969C246.818 34.25 246.255 34.3177 245.708 34.5C245.161 34.6823 244.672 34.9687 244.239 35.3542C239.416 38.6302 235.833 47.7292 238.51 53.6719C238.64 54.0104 238.698 54.3542 238.693 54.7083C238.687 55.0677 238.614 55.4115 238.479 55.7396C238.344 56.0677 238.151 56.3646 237.901 56.6198C237.651 56.875 237.364 57.0781 237.041 57.224C236.719 57.3698 236.375 57.4479 236.021 57.4687C235.666 57.4844 235.318 57.4323 234.979 57.3177C234.646 57.2031 234.338 57.026 234.068 56.7969C233.797 56.5625 233.578 56.2917 233.411 55.974C229.547 47.2604 234.37 35.3177 241.104 30.7344C241.974 30.0625 242.927 29.5521 243.969 29.2031C245.01 28.8542 246.078 28.6875 247.177 28.7031C248.276 28.7187 249.338 28.9167 250.37 29.2917C251.401 29.6719 252.338 30.2135 253.187 30.9115H253.276C254.375 30.2083 255.547 29.6406 256.781 29.2083C258.015 28.776 259.281 28.4896 260.578 28.3542C261.88 28.2135 263.177 28.224 264.474 28.3854C265.771 28.5469 267.036 28.8542 268.26 29.3073C272.995 30.9271 275.781 36.276 276.807 40.7031C276.896 41.0365 276.963 41.401 277.031 41.7708C284.693 40.724 298.01 42.2396 301.906 54.3698C302.427 56.0781 302.62 57.8229 302.479 59.599C304.151 58.9531 305.864 58.4531 307.614 58.1042C314.385 56.7083 320.338 57.7344 323.943 60.9062C325.557 62.2604 326.963 63.8073 328.156 65.5469C331.828 63.8802 335.63 62.5833 339.557 61.6562C345.547 60.0885 359.906 65.5625 365.005 74.7656C367.271 78.8437 369.547 87.1406 359.333 96.8333C359.015 97.1302 358.739 97.4427 358.443 97.7396C357.594 98.8021 356.583 99.6719 355.406 100.349C354.224 101.026 352.963 101.464 351.62 101.661C351.531 101.646 351.443 101.62 351.359 101.594Z" fill="#7F2224"/>
<path d="M150.974 382.771C150.641 382.771 150.318 382.708 150 382.589C149.687 382.474 149.406 382.302 149.151 382.083C148.901 381.859 148.693 381.604 148.531 381.307C148.375 381.011 148.271 380.698 148.224 380.365L145.599 362.026C145.573 361.672 145.614 361.328 145.719 360.99C145.828 360.651 145.995 360.344 146.213 360.068C146.437 359.792 146.703 359.568 147.01 359.391C147.318 359.219 147.651 359.104 148 359.057C148.349 359.005 148.698 359.021 149.042 359.104C149.385 359.188 149.703 359.328 149.995 359.531C150.286 359.734 150.531 359.984 150.724 360.281C150.922 360.573 151.057 360.896 151.13 361.245L153.745 379.578C153.797 379.948 153.781 380.307 153.687 380.667C153.599 381.026 153.443 381.354 153.219 381.651C152.995 381.948 152.724 382.193 152.406 382.38C152.088 382.568 151.745 382.688 151.375 382.734C151.245 382.766 151.109 382.776 150.974 382.771Z" fill="white"/>
<path d="M146.797 348.188C146.464 348.188 146.141 348.125 145.828 348.01C145.516 347.891 145.234 347.724 144.979 347.51C144.729 347.292 144.521 347.037 144.354 346.745C144.193 346.458 144.083 346.146 144.031 345.818L135.656 291.292C135.604 290.927 135.62 290.568 135.708 290.208C135.797 289.849 135.948 289.521 136.167 289.224C136.385 288.927 136.656 288.682 136.969 288.49C137.286 288.297 137.625 288.177 137.99 288.12C138.359 288.057 138.724 288.068 139.083 288.156C139.448 288.24 139.776 288.391 140.078 288.615C140.375 288.833 140.62 289.104 140.812 289.422C141.005 289.745 141.125 290.089 141.177 290.453L149.547 344.964C149.604 345.328 149.589 345.693 149.505 346.052C149.417 346.412 149.26 346.745 149.042 347.042C148.823 347.344 148.557 347.589 148.24 347.781C147.922 347.974 147.583 348.094 147.214 348.151L146.797 348.188Z" fill="white"/>
<path d="M348.156 316.427H347.88C347.51 316.396 347.161 316.292 346.833 316.12C346.505 315.948 346.224 315.719 345.99 315.437C345.75 315.151 345.578 314.833 345.469 314.479C345.359 314.125 345.318 313.765 345.354 313.396L346.938 296.625C346.969 296.255 347.068 295.906 347.234 295.573C347.406 295.245 347.635 294.958 347.917 294.724C348.203 294.484 348.526 294.312 348.88 294.203C349.234 294.094 349.599 294.057 349.969 294.099C350.333 294.13 350.682 294.234 351.01 294.406C351.339 294.578 351.62 294.807 351.854 295.088C352.094 295.375 352.266 295.693 352.375 296.047C352.484 296.401 352.526 296.76 352.49 297.13L350.922 313.917C350.885 314.26 350.792 314.583 350.635 314.89C350.479 315.198 350.276 315.469 350.021 315.703C349.76 315.932 349.474 316.109 349.156 316.234C348.833 316.359 348.5 316.427 348.156 316.427Z" fill="white"/>
<path d="M349.724 280.692H349.62C349.25 280.671 348.901 280.578 348.567 280.416C348.234 280.255 347.942 280.036 347.698 279.76C347.453 279.489 347.271 279.177 347.146 278.828C347.021 278.479 346.968 278.119 346.989 277.75L351.182 205.411C351.208 205.041 351.297 204.687 351.458 204.354C351.62 204.02 351.838 203.734 352.12 203.484C352.396 203.239 352.708 203.057 353.057 202.937C353.406 202.812 353.765 202.765 354.135 202.786C354.505 202.807 354.854 202.901 355.187 203.062C355.521 203.224 355.812 203.442 356.057 203.718C356.302 204 356.484 204.312 356.604 204.661C356.729 205.01 356.776 205.369 356.755 205.739L352.505 278.078C352.489 278.437 352.401 278.776 352.25 279.093C352.104 279.416 351.896 279.703 351.635 279.942C351.38 280.187 351.083 280.375 350.75 280.505C350.422 280.635 350.078 280.697 349.724 280.692Z" fill="white"/>
<path d="M340.917 152.823H340.672C339.786 152.692 338.922 152.479 338.078 152.177C335.87 151.468 333.62 150.948 331.323 150.609C330.953 150.583 330.604 150.495 330.271 150.333C329.937 150.172 329.651 149.948 329.401 149.672C329.156 149.396 328.974 149.083 328.854 148.734C328.734 148.38 328.682 148.021 328.703 147.651C328.724 147.281 328.818 146.932 328.979 146.599C329.14 146.265 329.359 145.974 329.635 145.729C329.911 145.484 330.229 145.302 330.578 145.177C330.927 145.057 331.286 145.005 331.656 145.031C334.37 145.354 337.026 145.932 339.625 146.771C340.39 147 341.021 147.192 341.37 147.245C341.734 147.271 342.078 147.37 342.401 147.541C342.729 147.708 343.005 147.932 343.239 148.218C343.474 148.5 343.64 148.817 343.745 149.166C343.849 149.521 343.88 149.875 343.838 150.239C343.802 150.604 343.703 150.942 343.542 151.265C343.375 151.588 343.156 151.87 342.885 152.109C342.614 152.349 342.307 152.531 341.969 152.651C341.625 152.776 341.276 152.833 340.917 152.823Z" fill="white"/>
<path d="M320.687 146.667H320.479C319.37 146.63 318.339 146.333 317.38 145.776C316.427 145.213 315.661 144.463 315.083 143.51C313.224 140.338 314.146 135.807 315.484 132.896C318.182 127.057 319.833 125.526 325.63 126.588C325.979 126.677 326.292 126.823 326.583 127.031C326.87 127.239 327.109 127.495 327.302 127.792C327.495 128.094 327.625 128.417 327.693 128.766C327.76 129.114 327.766 129.463 327.698 129.812C327.635 130.167 327.51 130.489 327.323 130.792C327.135 131.094 326.896 131.349 326.609 131.562C326.323 131.776 326.01 131.927 325.667 132.021C325.323 132.109 324.974 132.135 324.625 132.094C323.901 131.927 323.172 131.844 322.427 131.854C321.661 132.937 321.031 134.099 320.552 135.338C319.63 137.062 319.417 138.87 319.906 140.76C319.906 140.88 320.115 141.125 320.88 141.177C321.234 141.213 321.568 141.318 321.88 141.479C322.193 141.641 322.469 141.859 322.703 142.125C322.932 142.396 323.109 142.698 323.229 143.031C323.344 143.364 323.401 143.708 323.385 144.062C323.375 144.417 323.297 144.76 323.156 145.083C323.016 145.411 322.823 145.698 322.568 145.948C322.318 146.203 322.031 146.396 321.708 146.542C321.38 146.682 321.042 146.76 320.687 146.771V146.667Z" fill="white"/>
<path d="M90.7343 113.182C90.1197 113.192 89.5728 113.01 89.0832 112.645C88.5936 112.281 88.2707 111.801 88.1041 111.213C87.6145 109.468 87.927 106.734 89.1457 102.13C89.2447 101.775 89.4061 101.447 89.6301 101.15C89.8541 100.859 90.1301 100.619 90.4478 100.432C90.7707 100.249 91.1145 100.13 91.4791 100.083C91.8489 100.036 92.2082 100.057 92.5676 100.15C92.927 100.249 93.2499 100.411 93.5468 100.635C93.8384 100.859 94.078 101.135 94.2655 101.458C94.4478 101.775 94.5676 102.119 94.6145 102.489C94.6614 102.859 94.6405 103.218 94.5416 103.578C93.2916 108.265 93.4478 109.52 93.4843 109.713C93.5624 110.072 93.5676 110.432 93.5103 110.796C93.4478 111.156 93.3228 111.494 93.1353 111.812C92.9478 112.124 92.703 112.39 92.4114 112.614C92.1197 112.838 91.7968 112.999 91.4478 113.093C91.2082 113.15 90.9739 113.176 90.7343 113.182Z" fill="white"/>
<path d="M93.4113 98.312C93.1613 98.312 92.9217 98.2807 92.6822 98.2078C92.3176 98.1141 91.9842 97.9526 91.6874 97.7234C91.3905 97.4891 91.1457 97.213 90.9634 96.8849C90.7759 96.5568 90.6613 96.2026 90.6197 95.8276C90.578 95.4526 90.6092 95.0828 90.7134 94.7234C94.1978 81.687 103.995 80.0464 112.875 79.5568C113.245 79.5307 113.604 79.5776 113.958 79.6974C114.307 79.8224 114.62 80.0047 114.901 80.2495C115.177 80.4995 115.396 80.7912 115.552 81.1297C115.713 81.463 115.797 81.8172 115.812 82.1922C115.833 82.562 115.786 82.9214 115.661 83.2703C115.542 83.6193 115.359 83.9318 115.109 84.2078C114.864 84.4839 114.573 84.7026 114.239 84.8641C113.906 85.0255 113.557 85.1141 113.187 85.1349C103.682 85.6766 98.4426 87.5255 96.1092 96.1714C95.9582 96.7964 95.6301 97.3068 95.1301 97.7078C94.6249 98.1037 94.052 98.3068 93.4113 98.312Z" fill="white"/>
<path d="M263.771 89.0046C263.417 89.0046 263.073 88.9368 262.745 88.8118C262.406 88.6868 262.109 88.4993 261.849 88.2546C261.588 88.0098 261.38 87.7233 261.229 87.4004C261.073 87.0723 260.99 86.7337 260.969 86.3743C260.948 86.015 260.995 85.666 261.104 85.3275C261.104 84.7702 261.104 83.0462 261.104 82.4681V81.7025C261.135 81.3483 261.224 81.015 261.38 80.6973C261.531 80.3796 261.74 80.1035 262 79.8639C262.255 79.6243 262.552 79.4368 262.88 79.3118C263.208 79.1816 263.547 79.1191 263.901 79.1191C264.255 79.1191 264.594 79.1816 264.922 79.3118C265.25 79.4368 265.542 79.6243 265.802 79.8639C266.062 80.1035 266.266 80.3796 266.422 80.6973C266.573 81.015 266.667 81.3483 266.693 81.7025V82.3275C266.865 83.9733 266.75 85.5931 266.344 87.1921C266.146 87.7337 265.807 88.166 265.338 88.4993C264.87 88.8327 264.344 88.9993 263.771 89.0046Z" fill="white"/>
<path d="M261.682 73.5466C261.354 73.5466 261.036 73.4893 260.729 73.38C260.416 73.2654 260.14 73.1091 259.885 72.8956C259.635 72.6873 259.427 72.4372 259.265 72.156C259.099 71.8695 258.989 71.5675 258.932 71.2445C257.833 65.0935 254.995 61.9893 249.739 61.2029C249.385 61.1352 249.062 60.9998 248.76 60.8018C248.458 60.6039 248.208 60.3591 248 60.0622C247.791 59.7654 247.651 59.4425 247.567 59.0935C247.484 58.7445 247.468 58.3904 247.526 58.0362C247.578 57.6768 247.698 57.3435 247.88 57.0362C248.057 56.7237 248.291 56.4581 248.578 56.2393C248.859 56.0154 249.177 55.8539 249.521 55.755C249.864 55.656 250.218 55.6247 250.578 55.6612C258.234 56.8122 262.901 61.7289 264.5 70.2497C264.562 70.6143 264.557 70.9789 264.474 71.3383C264.396 71.7029 264.25 72.0362 264.036 72.3383C263.823 72.6404 263.562 72.8956 263.25 73.0935C262.937 73.2966 262.604 73.4268 262.239 73.4945L261.682 73.5466Z" fill="white"/>
</svg>
